<svg width="1589" height="922" fill="none" xmlns="http://www.w3.org/2000/svg"><path d="M502.3 544H.5v372.5h501.8V544zM1588.5 0H1173v471h415.5V0z" fill="#FC0"/><path d="M1266 450.5H800v466h466v-466z" fill="#F3F6E6"/><path d="M1271 921.5H795v-476h476v476zm-466-10h456v-456H805v456z" fill="#383A48"/><path d="M1266 450.5H800v119h466v-119z" fill="#383A48"/><path d="M1209.9 450.5c-12.7 20.6-23.7 45.6-31.7 77.4C1111 793.8 936.3 637.7 800 728.6V450.5h409.9z" fill="#383A48"/><path d="M1318.9 425h-466v466h466V425z" fill="#F3F6E6"/><path d="M1323.9 896h-476V420h476v476zm-466-10h456V430h-456v456z" fill="#383A48"/><path d="M1318.9 425h-466v119h466V425z" fill="#383A48"/><path d="M1216.1 425c-15.4 22.3-28.6 50.1-37.9 86.9-58.8 232.4-199.6 142.3-325.2 176.8V425h363.1z" fill="#383A48"/><path d="M1371.8 399.5h-466v466h466v-466z" fill="#F3F6E6"/><path d="M1376.8 870.5h-476v-476h476v476zm-466-10h456v-456h-456v456z" fill="#383A48"/><path d="M1371.8 399.5h-466v119h466v-119z" fill="#383A48"/><path d="M1229.4 399.5c-21 25-39.3 57.3-51.2 104.4C1127.6 704.1 1016 665 905.8 672.3V399.5h323.6z" fill="#383A48"/><path d="M1424.8 374h-466v466h466V374z" fill="#F3F6E6"/><path d="M1429.8 845h-476V369h476v476zm-466-10h456V379h-456v456z" fill="#383A48"/><path d="M1424.8 374h-466v119h466V374z" fill="#383A48"/><path d="M1240 374c-25.4 26.6-48 61.3-61.9 116.3-42.5 168-127.9 167.5-219.4 167.3V374H1240z" fill="#383A48"/><path d="M1477.7 348.5h-466v466h466v-466z" fill="#F3F6E6"/><path d="M1482.7 819.5h-476v-476h476v476zm-466-10h456v-456h-456v456z" fill="#383A48"/><path d="M1477.7 348.5h-466v119h466v-119z" fill="#383A48"/><path d="M1248.5 348.5c-28.8 27.7-54.9 63.8-70.3 124.8-34.1 135-96 161.2-166.5 166.2v-291h236.8z" fill="#383A48"/><path d="M1530.6 323h-466v466h466V323z" fill="#F3F6E6"/><path d="M1535.6 794h-476V318h476v476zm-466-10h456V328h-456v456z" fill="#383A48"/><path d="M1530.6 323h-466v119h466V323z" fill="#383A48"/><path d="M1263.4 323c-34.5 29.7-67.2 66.9-85.2 138.3-25.3 99.9-65.7 140.2-113.6 156.5V323h198.8z" fill="#383A48"/><path d="M1583.5 297.5h-466v466h466v-466z" fill="#F3F6E6"/><path d="M1286.8 297.5c-39.5 32-63.4 70.5-83.8 151.5-17.2 67.8-44 109-85.5 130.7V297.5h169.3z" fill="#383A48"/><path d="M1588.5 768.5h-476v-476h476v476zm-466-10h456v-456h-456v456z" fill="#383A48"/><path d="M1583.5 297.5h-466v119h466v-119z" fill="#383A48"/><path d="M234.5 874.9c-2.9 13.7-7.2 27.6-13.5 41.6h29.7v-41.6h-16.2z" fill="#F3F6E6"/><path d="M292.6 874.9h-41.9v41.6h41.9v-41.6z" fill="#BEBFC3"/><path d="M334.5 874.9h-41.9v41.6h41.9v-41.6z" fill="#F3F6E6"/><path d="M376.5 874.9h-41.9v41.6h41.9v-41.6z" fill="#BEBFC3"/><path d="M418.4 874.9h-41.9v41.6h41.9v-41.6z" fill="#F3F6E6"/><path d="M460.3 874.9h-41.9v41.6h41.9v-41.6z" fill="#BEBFC3"/><path d="M502.2 874.9h-41.9v41.6h41.9v-41.6z" fill="#F3F6E6"/><path d="M544.2 874.9h-41.9v41.6h41.9v-41.6z" fill="#BEBFC3"/><path d="M586.1 874.9h-41.9v41.6h41.9v-41.6z" fill="#F3F6E6"/><path d="M628 874.9h-41.9v41.6H628v-41.6z" fill="#BEBFC3"/><path d="M670 874.9h-41.9v41.6H670v-41.6z" fill="#F3F6E6"/><path d="M670 916.5h21c6.3-14.1 10.6-27.9 13.5-41.6H670v41.6z" fill="#BEBFC3"/><path d="M250.7 791.3h-11.4c.6 13.7 1 27.6.3 41.7h11.1v-41.7z" fill="#F3F6E6"/><path d="M292.6 791.3h-41.9V833h41.9v-41.7z" fill="#BEBFC3"/><path d="M334.5 791.3h-41.9V833h41.9v-41.7z" fill="#F3F6E6"/><path d="M376.5 791.3h-41.9V833h41.9v-41.7z" fill="#BEBFC3"/><path d="M418.4 791.3h-41.9V833h41.9v-41.7z" fill="#F3F6E6"/><path d="M460.3 791.3h-41.9V833h41.9v-41.7z" fill="#BEBFC3"/><path d="M502.2 791.3h-41.9V833h41.9v-41.7z" fill="#F3F6E6"/><path d="M544.2 791.3h-41.9V833h41.9v-41.7z" fill="#BEBFC3"/><path d="M586.1 791.3h-41.9V833h41.9v-41.7z" fill="#F3F6E6"/><path d="M628 791.3h-41.9V833H628v-41.7z" fill="#BEBFC3"/><path d="M670 791.3h-41.9V833H670v-41.7z" fill="#F3F6E6"/><path d="M670 833.1h39.6c.6-14.1.3-28-.3-41.7H670v41.7zM250.7 833.1h-11.1c-.6 13.7-2.1 27.6-5.1 41.7h16.2v-41.7z" fill="#BEBFC3"/><path d="M292.6 833.1h-41.9v41.7h41.9v-41.7z" fill="#F3F6E6"/><path d="M334.5 833.1h-41.9v41.7h41.9v-41.7z" fill="#BEBFC3"/><path d="M376.5 833.1h-41.9v41.7h41.9v-41.7z" fill="#F3F6E6"/><path d="M418.4 833.1h-41.9v41.7h41.9v-41.7z" fill="#BEBFC3"/><path d="M460.3 833.1h-41.9v41.7h41.9v-41.7z" fill="#F3F6E6"/><path d="M502.2 833.1h-41.9v41.7h41.9v-41.7z" fill="#BEBFC3"/><path d="M544.2 833.1h-41.9v41.7h41.9v-41.7z" fill="#F3F6E6"/><path d="M586.1 833.1h-41.9v41.7h41.9v-41.7z" fill="#BEBFC3"/><path d="M628 833.1h-41.9v41.7H628v-41.7z" fill="#F3F6E6"/><path d="M670 833.1h-41.9v41.7H670v-41.7z" fill="#BEBFC3"/><path d="M670 874.8h34.5c3-14.1 4.5-28 5.1-41.7H670v41.7zM250.7 707.8h-13.6c-.9 13.7-.7 27.6-.1 41.7h13.7v-41.7z" fill="#F3F6E6"/><path d="M292.6 707.8h-41.9v41.7h41.9v-41.7z" fill="#BEBFC3"/><path d="M334.5 707.8h-41.9v41.7h41.9v-41.7z" fill="#F3F6E6"/><path d="M376.5 707.8h-41.9v41.7h41.9v-41.7z" fill="#BEBFC3"/><path d="M418.4 707.8h-41.9v41.7h41.9v-41.7z" fill="#F3F6E6"/><path d="M460.3 707.8h-41.9v41.7h41.9v-41.7z" fill="#BEBFC3"/><path d="M502.2 707.8h-41.9v41.7h41.9v-41.7z" fill="#F3F6E6"/><path d="M544.2 707.8h-41.9v41.7h41.9v-41.7z" fill="#BEBFC3"/><path d="M586.1 707.8h-41.9v41.7h41.9v-41.7z" fill="#F3F6E6"/><path d="M628 707.8h-41.9v41.7H628v-41.7z" fill="#BEBFC3"/><path d="M670 707.8h-41.9v41.7H670v-41.7z" fill="#F3F6E6"/><path d="M670 749.5h37c-.6-14.1-.9-28.1.1-41.7H670v41.7zM250.7 749.5H237c.6 13.7 1.6 27.6 2.3 41.7h11.4v-41.7z" fill="#BEBFC3"/><path d="M292.6 749.5h-41.9v41.7h41.9v-41.7z" fill="#F3F6E6"/><path d="M334.5 749.5h-41.9v41.7h41.9v-41.7z" fill="#BEBFC3"/><path d="M376.5 749.5h-41.9v41.7h41.9v-41.7z" fill="#F3F6E6"/><path d="M418.4 749.5h-41.9v41.7h41.9v-41.7z" fill="#BEBFC3"/><path d="M460.3 749.5h-41.9v41.7h41.9v-41.7z" fill="#F3F6E6"/><path d="M502.2 749.5h-41.9v41.7h41.9v-41.7z" fill="#BEBFC3"/><path d="M544.2 749.5h-41.9v41.7h41.9v-41.7z" fill="#F3F6E6"/><path d="M586.1 749.5h-41.9v41.7h41.9v-41.7z" fill="#BEBFC3"/><path d="M628 749.5h-41.9v41.7H628v-41.7z" fill="#F3F6E6"/><path d="M670 749.5h-41.9v41.7H670v-41.7z" fill="#BEBFC3"/><path d="M670 791.2h39.2c-.7-14.1-1.6-28-2.3-41.7h-37l.1 41.7zM250.7 650.2c-2.4 5.2-4.4 10.5-6 15.8h6v-15.8z" fill="#F3F6E6"/><path d="M292.6 665.9v-41.7h-26.7c-6.3 8.6-11.2 17.2-15.2 26V666l41.9-.1z" fill="#BEBFC3"/><path d="M334.5 624.2h-41.9v41.7h41.9v-41.7z" fill="#F3F6E6"/><path d="M376.5 624.2h-41.9v41.7h41.9v-41.7z" fill="#BEBFC3"/><path d="M418.4 624.2h-41.9v41.7h41.9v-41.7z" fill="#F3F6E6"/><path d="M460.3 624.2h-41.9v41.7h41.9v-41.7z" fill="#BEBFC3"/><path d="M502.2 624.2h-41.9v41.7h41.9v-41.7z" fill="#F3F6E6"/><path d="M544.2 624.2h-41.9v41.7h41.9v-41.7z" fill="#BEBFC3"/><path d="M586.1 624.2h-41.9v41.7h41.9v-41.7z" fill="#F3F6E6"/><path d="M628 624.2h-41.9v41.7H628v-41.7z" fill="#BEBFC3"/><path d="M670 624.2h-41.9v41.7H670v-41.7z" fill="#F3F6E6"/><path d="M711.9 624.2H670v41.7h41.9v-41.7z" fill="#BEBFC3"/><path d="M711.9 665.9h2.7c4.5-14.2 11.3-28.1 21.2-41.7h-24l.1 41.7z" fill="#F3F6E6"/><path d="M250.7 665.9h-6c-4.3 13.7-6.6 27.6-7.6 41.7h13.6v-41.7z" fill="#BEBFC3"/><path d="M292.6 665.9h-41.9v41.7h41.9v-41.7z" fill="#F3F6E6"/><path d="M334.5 665.9h-41.9v41.7h41.9v-41.7z" fill="#BEBFC3"/><path d="M376.5 665.9h-41.9v41.7h41.9v-41.7z" fill="#F3F6E6"/><path d="M418.4 665.9h-41.9v41.7h41.9v-41.7z" fill="#BEBFC3"/><path d="M460.3 665.9h-41.9v41.7h41.9v-41.7z" fill="#F3F6E6"/><path d="M502.2 665.9h-41.9v41.7h41.9v-41.7z" fill="#BEBFC3"/><path d="M544.2 665.9h-41.9v41.7h41.9v-41.7z" fill="#F3F6E6"/><path d="M586.1 665.9h-41.9v41.7h41.9v-41.7z" fill="#BEBFC3"/><path d="M628 665.9h-41.9v41.7H628v-41.7z" fill="#F3F6E6"/><path d="M670 665.9h-41.9v41.7H670v-41.7z" fill="#BEBFC3"/><path d="M670 665.9v41.7h37.1c.8-10.9 2.2-21.6 4.9-32.1v-9.6h-42z" fill="#F3F6E6"/><path d="M711.9 675.5c.8-3.2 1.7-6.4 2.7-9.6h-2.7v9.6z" fill="#BEBFC3"/><path d="M334.6 566.1c-7.4 3.8-14.8 8.3-22.1 13.4-1.3 1-2.7 1.9-4 2.9h26v-16.3h.1z" fill="#F3F6E6"/><path d="M376.5 582.4v-31.7c-14.2 3.4-28.2 8.3-41.9 15.4v16.3h41.9z" fill="#BEBFC3"/><path d="M418.4 582.4v-38.1c-14.1 1.1-28.1 3-41.9 6.4v31.7h41.9z" fill="#F3F6E6"/><path d="M460.3 582.4v-39.6c-13.9.1-27.9.4-41.9 1.5v38.1h41.9z" fill="#BEBFC3"/><path d="M502.3 582.4v-39.7c-13.8.2-27.8 0-41.9.1v39.6h41.9z" fill="#F3F6E6"/><path d="M544.2 582.4v-41.7h-3.6c-12.5 1.4-25.3 1.9-38.4 2.1v39.7l42-.1z" fill="#BEBFC3"/><path d="M586.1 540.6h-41.9v41.7h41.9v-41.7z" fill="#F3F6E6"/><path d="M628 540.6h-41.9v41.7H628v-41.7z" fill="#BEBFC3"/><path d="M670 540.6h-41.9v41.7H670v-41.7z" fill="#F3F6E6"/><path d="M711.9 540.6H670v41.7h41.9v-41.7z" fill="#BEBFC3"/><path d="M753.8 540.6h-41.9v41.7h41.9v-41.7z" fill="#F3F6E6"/><path d="M753.9 540.6v41.7h24.7c1.3-1 2.6-1.9 4-2.9 4.4-3.1 8.8-6 13.3-8.6v-30.2h-42z" fill="#BEBFC3"/><path d="M795.8 540.6v30.2c13.7-8 27.7-13.8 41.9-17.9v-12.3h-41.9z" fill="#F3F6E6"/><path d="M837.7 540.6V553c13.8-4 27.8-6.4 41.9-7.9v-4.4l-41.9-.1z" fill="#BEBFC3"/><path d="M879.7 540.6v4.4c14-1.5 28-2 41.9-2.2v-2.2h-41.9z" fill="#F3F6E6"/><path d="M921.6 540.6v2.2c14.1-.2 28.1 0 41.9-.1v-2.2l-41.9.1z" fill="#BEBFC3"/><path d="M963.5 540.6v2.2c14.2-.1 28.3-.4 41.9-1.6v-.5h-41.9v-.1z" fill="#F3F6E6"/><path d="M1005.5 541.2c1.7-.2 3.4-.3 5.2-.5h-5.2v.5z" fill="#BEBFC3"/><path d="M292.6 595.3c-10.8 9.5-19.5 19.1-26.7 28.9h26.7v-28.9z" fill="#F3F6E6"/><path d="M334.6 624.1v-41.7h-26c-5.7 4.3-11 8.5-15.9 12.9v28.9h41.9v-.1z" fill="#BEBFC3"/><path d="M376.5 582.4h-41.9v41.7h41.9v-41.7z" fill="#F3F6E6"/><path d="M418.4 582.4h-41.9v41.7h41.9v-41.7z" fill="#BEBFC3"/><path d="M460.3 582.4h-41.9v41.7h41.9v-41.7z" fill="#F3F6E6"/><path d="M502.2 582.4h-41.9v41.7h41.9v-41.7z" fill="#BEBFC3"/><path d="M544.2 582.4h-41.9v41.7h41.9v-41.7z" fill="#F3F6E6"/><path d="M586.1 582.4h-41.9v41.7h41.9v-41.7z" fill="#BEBFC3"/><path d="M628 582.4h-41.9v41.7H628v-41.7z" fill="#F3F6E6"/><path d="M670 582.4h-41.9v41.7H670v-41.7z" fill="#BEBFC3"/><path d="M711.9 582.4H670v41.7h41.9v-41.7z" fill="#F3F6E6"/><path d="M711.9 582.4v41.7h24c5.1-7 11-13.9 17.9-20.7v-21h-41.9z" fill="#BEBFC3"/><path d="M753.9 603.4c7.1-7.1 15.3-14.1 24.7-21h-24.7v21zM670 457.1h-4.7c-9.2 17.1-19.4 30.8-30.2 41.7H670v-41.7z" fill="#F3F6E6"/><path d="M711.9 457.1H670v41.7h41.9v-41.7z" fill="#BEBFC3"/><path d="M753.8 457.1h-41.9v41.7h41.9v-41.7z" fill="#F3F6E6"/><path d="M795.8 457.1h-41.9v41.7h41.9v-41.7z" fill="#BEBFC3"/><path d="M837.7 457.1h-41.9v41.7h41.9v-41.7z" fill="#F3F6E6"/><path d="M879.6 457.1h-41.9v41.7h41.9v-41.7z" fill="#BEBFC3"/><path d="M921.6 457.1h-41.9v41.7h41.9v-41.7z" fill="#F3F6E6"/><path d="M963.5 457.1h-41.9v41.7h41.9v-41.7z" fill="#BEBFC3"/><path d="M1005.4 457.1h-41.9v41.7h41.9v-41.7z" fill="#F3F6E6"/><path d="M1047.4 457.1h-41.9v41.7h41.9v-41.7z" fill="#BEBFC3"/><path d="M1089.3 457.1h-41.9v41.7h41.9v-41.7z" fill="#F3F6E6"/><path d="M1089.3 457.1v41.7h15.8c9.3-9.4 18-20.7 26.2-34.5v-7.2h-42z" fill="#BEBFC3"/><path d="M1131.3 464.3c1.4-2.3 2.7-4.7 4.1-7.2h-4.1v7.2zM544.2 540.2l-3 .3h3v-.3z" fill="#F3F6E6"/><path d="M586.1 540.6v-10.1c-13.4 5-27.5 8-41.9 9.8v.3h41.9z" fill="#BEBFC3"/><path d="M628.1 540.6v-35.1C615 517 601 525 586.2 530.5v10.1h41.9z" fill="#F3F6E6"/><path d="M670 540.6v-41.7h-34.9c-2.3 2.3-4.7 4.5-7 6.6v35.1H670z" fill="#BEBFC3"/><path d="M711.9 498.8H670v41.7h41.9v-41.7z" fill="#F3F6E6"/><path d="M753.8 498.8h-41.9v41.7h41.9v-41.7z" fill="#BEBFC3"/><path d="M795.8 498.8h-41.9v41.7h41.9v-41.7z" fill="#F3F6E6"/><path d="M837.7 498.8h-41.9v41.7h41.9v-41.7z" fill="#BEBFC3"/><path d="M879.6 498.8h-41.9v41.7h41.9v-41.7z" fill="#F3F6E6"/><path d="M921.6 498.8h-41.9v41.7h41.9v-41.7z" fill="#BEBFC3"/><path d="M963.5 498.8h-41.9v41.7h41.9v-41.7z" fill="#F3F6E6"/><path d="M1005.4 498.8h-41.9v41.7h41.9v-41.7z" fill="#BEBFC3"/><path d="M1005.5 498.8v41.7h5.8c12.4-1.4 24.5-3.6 36.2-7.2v-34.6l-42 .1z" fill="#F3F6E6"/><path d="M1047.4 498.8v34.6c14.7-4.5 28.8-11.1 41.9-20.9v-13.7h-41.9z" fill="#BEBFC3"/><path d="M1089.3 512.5c5.4-4 10.7-8.6 15.8-13.7h-15.8v13.7z" fill="#F3F6E6"/><path d="M711.9 373.5H696c-.2.7-.3 1.3-.5 2-3.7 14.5-7.6 27.7-11.9 39.8H712l-.1-41.8z" fill="#BEBFC3"/><path d="M753.8 373.5h-41.9v41.7h41.9v-41.7z" fill="#F3F6E6"/><path d="M795.8 373.5h-41.9v41.7h41.9v-41.7z" fill="#BEBFC3"/><path d="M837.7 373.5h-41.9v41.7h41.9v-41.7z" fill="#F3F6E6"/><path d="M879.6 373.5h-41.9v41.7h41.9v-41.7z" fill="#BEBFC3"/><path d="M921.6 373.5h-41.9v41.7h41.9v-41.7z" fill="#F3F6E6"/><path d="M963.5 373.5h-41.9v41.7h41.9v-41.7z" fill="#BEBFC3"/><path d="M1005.4 373.5h-41.9v41.7h41.9v-41.7z" fill="#F3F6E6"/><path d="M1047.4 373.5h-41.9v41.7h41.9v-41.7z" fill="#BEBFC3"/><path d="M1089.3 373.5h-41.9v41.7h41.9v-41.7z" fill="#F3F6E6"/><path d="M1131.2 373.5h-41.9v41.7h41.9v-41.7z" fill="#BEBFC3"/><path d="M1131.3 415.3h22.3c4.3-12.1 8.3-25.3 11.9-39.8.2-.7.3-1.3.5-2h-34.7v41.8z" fill="#F3F6E6"/><path d="M670 448c-1.5 3.1-3.1 6.1-4.6 9h4.6v-9z" fill="#BEBFC3"/><path d="M711.9 457v-41.7h-28.4c-4.2 12-8.8 22.9-13.6 32.7v9h42z" fill="#F3F6E6"/><path d="M753.8 415.3h-41.9V457h41.9v-41.7z" fill="#BEBFC3"/><path d="M795.8 415.3h-41.9V457h41.9v-41.7z" fill="#F3F6E6"/><path d="M837.7 415.3h-41.9V457h41.9v-41.7z" fill="#BEBFC3"/><path d="M879.6 415.3h-41.9V457h41.9v-41.7z" fill="#F3F6E6"/><path d="M921.6 415.3h-41.9V457h41.9v-41.7z" fill="#BEBFC3"/><path d="M963.5 415.3h-41.9V457h41.9v-41.7z" fill="#F3F6E6"/><path d="M1005.4 415.3h-41.9V457h41.9v-41.7z" fill="#BEBFC3"/><path d="M1047.4 415.3h-41.9V457h41.9v-41.7z" fill="#F3F6E6"/><path d="M1089.3 415.3h-41.9V457h41.9v-41.7z" fill="#BEBFC3"/><path d="M1131.2 415.3h-41.9V457h41.9v-41.7z" fill="#F3F6E6"/><path d="M1131.3 457h4.1c6.5-12.1 12.6-26 18.2-41.7h-22.3V457zM711.9 327.2c-.7 1.5-1.3 3-2 4.6h2v-4.6z" fill="#BEBFC3"/><path d="M753.9 331.7V290h-21.4c-7.4 10.9-14.3 23.2-20.5 37.2v4.6h41.9v-.1z" fill="#F3F6E6"/><path d="M795.8 290h-41.9v41.7h41.9V290z" fill="#BEBFC3"/><path d="M837.7 290h-41.9v41.7h41.9V290z" fill="#F3F6E6"/><path d="M879.6 290h-41.9v41.7h41.9V290z" fill="#BEBFC3"/><path d="M921.6 290h-41.9v41.7h41.9V290z" fill="#F3F6E6"/><path d="M963.5 290h-41.9v41.7h41.9V290z" fill="#BEBFC3"/><path d="M1005.4 290h-41.9v41.7h41.9V290z" fill="#F3F6E6"/><path d="M1047.4 290h-41.9v41.7h41.9V290z" fill="#BEBFC3"/><path d="M1089.3 290h-41.9v41.7h41.9V290z" fill="#F3F6E6"/><path d="M1131.2 290h-41.9v41.7h41.9V290z" fill="#BEBFC3"/><path d="M1173.2 290h-41.9v41.7h41.9V290z" fill="#F3F6E6"/><path d="M1173.2 331.7h6.8c6.7-15.9 14.3-29.6 22.5-41.7h-29.3v41.7z" fill="#BEBFC3"/><path d="M711.9 331.7h-2c-5.3 12.5-9.9 26.3-13.9 41.7h15.9v-41.7z" fill="#F3F6E6"/><path d="M753.8 331.7h-41.9v41.7h41.9v-41.7z" fill="#BEBFC3"/><path d="M795.8 331.7h-41.9v41.7h41.9v-41.7z" fill="#F3F6E6"/><path d="M837.7 331.7h-41.9v41.7h41.9v-41.7z" fill="#BEBFC3"/><path d="M879.6 331.7h-41.9v41.7h41.9v-41.7z" fill="#F3F6E6"/><path d="M921.6 331.7h-41.9v41.7h41.9v-41.7z" fill="#BEBFC3"/><path d="M963.5 331.7h-41.9v41.7h41.9v-41.7z" fill="#F3F6E6"/><path d="M1005.4 331.7h-41.9v41.7h41.9v-41.7z" fill="#BEBFC3"/><path d="M1047.4 331.7h-41.9v41.7h41.9v-41.7z" fill="#F3F6E6"/><path d="M1089.3 331.7h-41.9v41.7h41.9v-41.7z" fill="#BEBFC3"/><path d="M1131.2 331.7h-41.9v41.7h41.9v-41.7z" fill="#F3F6E6"/><path d="M1131.3 331.7v41.7h34.8c2.2-8.5 4.6-16.4 7.2-24v-17.8l-42 .1z" fill="#BEBFC3"/><path d="M1173.2 349.5c2.1-6.2 4.4-12.1 6.8-17.8h-6.8v17.8z" fill="#F3F6E6"/><path d="M795.8 224.7c-9.2 7.4-18.3 15.1-27.3 23.5h27.3v-23.5z" fill="#BEBFC3"/><path d="M837.7 248.2v-41.7h-19.1c-7.5 6.1-15.1 12.1-22.8 18.3v23.5l41.9-.1z" fill="#F3F6E6"/><path d="M879.6 206.4h-41.9v41.7h41.9v-41.7z" fill="#BEBFC3"/><path d="M921.6 206.4h-41.9v41.7h41.9v-41.7z" fill="#F3F6E6"/><path d="M963.5 206.4h-41.9v41.7h41.9v-41.7z" fill="#BEBFC3"/><path d="M1005.4 206.4h-41.9v41.7h41.9v-41.7z" fill="#F3F6E6"/><path d="M1047.4 206.4h-41.9v41.7h41.9v-41.7z" fill="#BEBFC3"/><path d="M1089.3 206.4h-41.9v41.7h41.9v-41.7z" fill="#F3F6E6"/><path d="M1131.2 206.4h-41.9v41.7h41.9v-41.7z" fill="#BEBFC3"/><path d="M1173.2 206.4h-41.9v41.7h41.9v-41.7z" fill="#F3F6E6"/><path d="M1215.1 206.4h-41.9v41.7h41.9v-41.7z" fill="#BEBFC3"/><path d="M1215.1 206.4v41.7h23.4c6.1-5.7 12.3-11.1 18.5-16.3v-25.4h-41.9z" fill="#F3F6E6"/><path d="M1257.1 231.9c10.5-8.8 21.2-17 31.5-25.4h-31.5v25.4zM753.9 263c-7.4 8.1-14.6 17-21.4 26.9h21.4V263z" fill="#BEBFC3"/><path d="M795.8 289.9v-41.7h-27.3c-5 4.7-9.9 9.6-14.7 14.8v26.9h42z" fill="#F3F6E6"/><path d="M837.7 248.2h-41.9v41.7h41.9v-41.7z" fill="#BEBFC3"/><path d="M879.6 248.2h-41.9v41.7h41.9v-41.7z" fill="#F3F6E6"/><path d="M921.6 248.2h-41.9v41.7h41.9v-41.7z" fill="#BEBFC3"/><path d="M963.5 248.2h-41.9v41.7h41.9v-41.7z" fill="#F3F6E6"/><path d="M1005.4 248.2h-41.9v41.7h41.9v-41.7z" fill="#BEBFC3"/><path d="M1047.4 248.2h-41.9v41.7h41.9v-41.7z" fill="#F3F6E6"/><path d="M1089.3 248.2h-41.9v41.7h41.9v-41.7z" fill="#BEBFC3"/><path d="M1131.2 248.2h-41.9v41.7h41.9v-41.7z" fill="#F3F6E6"/><path d="M1173.2 248.2h-41.9v41.7h41.9v-41.7z" fill="#BEBFC3"/><path d="M1173.2 248.2v41.7h29.3c4.1-6 8.3-11.6 12.6-16.9v-24.9l-41.9.1z" fill="#F3F6E6"/><path d="M1215.1 273.1c7.5-9.1 15.4-17.3 23.4-24.9h-23.4v24.9zM879.7 139c-5.3 9.4-11.2 17.8-17.5 25.6h17.5V139z" fill="#BEBFC3"/><path d="M921.6 164.6v-41.7h-33.8c-2.5 5.7-5.2 11.1-8.1 16.2v25.6h41.9v-.1z" fill="#F3F6E6"/><path d="M963.5 122.9h-41.9v41.7h41.9v-41.7z" fill="#BEBFC3"/><path d="M1005.4 122.9h-41.9v41.7h41.9v-41.7z" fill="#F3F6E6"/><path d="M1047.4 122.9h-41.9v41.7h41.9v-41.7z" fill="#BEBFC3"/><path d="M1089.3 122.9h-41.9v41.7h41.9v-41.7z" fill="#F3F6E6"/><path d="M1131.2 122.9h-41.9v41.7h41.9v-41.7z" fill="#BEBFC3"/><path d="M1173.2 122.9h-41.9v41.7h41.9v-41.7z" fill="#F3F6E6"/><path d="M1215.1 122.9h-41.9v41.7h41.9v-41.7z" fill="#BEBFC3"/><path d="M1257 122.9h-41.9v41.7h41.9v-41.7z" fill="#F3F6E6"/><path d="M1299 122.9h-41.9v41.7h41.9v-41.7z" fill="#BEBFC3"/><path d="M1299 122.9v41.7h33.2c3-3.7 6-7.6 8.8-11.7v-30.1h-42v.1z" fill="#F3F6E6"/><path d="M1340.9 153c6.2-9 11.9-18.9 16.9-30.1h-16.9V153zM837.7 190.1c-6.2 5.6-12.6 11-19.1 16.3h19.1v-16.3z" fill="#BEBFC3"/><path d="M879.7 206.4v-41.7h-17.5c-7.6 9.3-15.8 17.6-24.4 25.5v16.3h41.9v-.1z" fill="#F3F6E6"/><path d="M921.6 164.6h-41.9v41.7h41.9v-41.7z" fill="#BEBFC3"/><path d="M963.5 164.6h-41.9v41.7h41.9v-41.7z" fill="#F3F6E6"/><path d="M1005.4 164.6h-41.9v41.7h41.9v-41.7z" fill="#BEBFC3"/><path d="M1047.4 164.6h-41.9v41.7h41.9v-41.7z" fill="#F3F6E6"/><path d="M1089.3 164.6h-41.9v41.7h41.9v-41.7z" fill="#BEBFC3"/><path d="M1131.2 164.6h-41.9v41.7h41.9v-41.7z" fill="#F3F6E6"/><path d="M1173.2 164.6h-41.9v41.7h41.9v-41.7z" fill="#BEBFC3"/><path d="M1215.1 164.6h-41.9v41.7h41.9v-41.7z" fill="#F3F6E6"/><path d="M1257 164.6h-41.9v41.7h41.9v-41.7z" fill="#BEBFC3"/><path d="M1257.1 164.6v41.7h31.6c3.5-2.8 6.9-5.7 10.3-8.6v-33.2l-41.9.1z" fill="#F3F6E6"/><path d="M1299 197.8c11.8-10.1 23-20.7 33.2-33.2H1299v33.2z" fill="#BEBFC3"/><path d="M921.6 39.3h-14.1c-1.3 15.3-3.4 29.2-6.2 41.7h20.3V39.3z" fill="#F3F6E6"/><path d="M963.5 39.3h-41.9V81h41.9V39.3z" fill="#BEBFC3"/><path d="M1005.4 39.3h-41.9V81h41.9V39.3z" fill="#F3F6E6"/><path d="M1047.4 39.3h-41.9V81h41.9V39.3z" fill="#BEBFC3"/><path d="M1089.3 39.3h-41.9V81h41.9V39.3z" fill="#F3F6E6"/><path d="M1131.2 39.3h-41.9V81h41.9V39.3z" fill="#BEBFC3"/><path d="M1173.2 39.3h-41.9V81h41.9V39.3z" fill="#F3F6E6"/><path d="M1215.1 39.3h-41.9V81h41.9V39.3z" fill="#BEBFC3"/><path d="M1257 39.3h-41.9V81h41.9V39.3z" fill="#F3F6E6"/><path d="M1299 39.3h-41.9V81h41.9V39.3z" fill="#BEBFC3"/><path d="M1340.9 39.3H1299V81h41.9V39.3z" fill="#F3F6E6"/><path d="M1340.9 81.1h30.4c2.8-12.6 4.9-26.4 6.2-41.7H1341l-.1 41.7zM921.6 81.1h-20.3c-3.5 15.7-8 29.5-13.5 41.7h33.8V81.1z" fill="#BEBFC3"/><path d="M963.5 81.1h-41.9v41.7h41.9V81.1z" fill="#F3F6E6"/><path d="M1005.4 81.1h-41.9v41.7h41.9V81.1z" fill="#BEBFC3"/><path d="M1047.4 81.1h-41.9v41.7h41.9V81.1z" fill="#F3F6E6"/><path d="M1089.3 81.1h-41.9v41.7h41.9V81.1z" fill="#BEBFC3"/><path d="M1131.2 81.1h-41.9v41.7h41.9V81.1z" fill="#F3F6E6"/><path d="M1173.2 81.1h-41.9v41.7h41.9V81.1z" fill="#BEBFC3"/><path d="M1215.1 81.1h-41.9v41.7h41.9V81.1z" fill="#F3F6E6"/><path d="M1257 81.1h-41.9v41.7h41.9V81.1z" fill="#BEBFC3"/><path d="M1299 81.1h-41.9v41.7h41.9V81.1z" fill="#F3F6E6"/><path d="M1340.9 81.1H1299v41.7h41.9V81.1z" fill="#BEBFC3"/><path d="M1340.9 122.8h16.9c5.4-12.2 10-26 13.5-41.7h-30.4v41.7z" fill="#F3F6E6"/><path d="M921.6 0H909c0 14.1-.5 27.1-1.5 39.3h14.1V0z" fill="#BEBFC3"/><path d="M963.5 0h-41.9v39.3h41.9V0z" fill="#F3F6E6"/><path d="M1005.4 0h-41.9v39.3h41.9V0z" fill="#BEBFC3"/><path d="M1047.4 0h-41.9v39.3h41.9V0z" fill="#F3F6E6"/><path d="M1089.3 0h-41.9v39.3h41.9V0z" fill="#BEBFC3"/><path d="M1131.2 0h-41.9v39.3h41.9V0z" fill="#F3F6E6"/><path d="M1173.2 0h-41.9v39.3h41.9V0z" fill="#BEBFC3"/><path d="M1215.1 0h-41.9v39.3h41.9V0z" fill="#F3F6E6"/><path d="M1257 0h-41.9v39.3h41.9V0z" fill="#BEBFC3"/><path d="M1299 0h-41.9v39.3h41.9V0z" fill="#F3F6E6"/><path d="M1340.9 0H1299v39.3h41.9V0z" fill="#BEBFC3"/><path d="M1340.9 39.3h36.5c1-12.1 1.6-25.2 1.5-39.3h-38.1l.1 39.3z" fill="#F3F6E6"/><path d="M222.8 107.3c16.4-16.4 36-29.5 57.4-38.4 21.4-8.9 44.6-13.5 67.7-13.5 23.2 0 46.3 4.6 67.7 13.5 21.4 8.8 41 22 57.4 38.4s29.5 36 38.4 57.4c8.9 21.4 13.5 44.6 13.5 67.7 0 23.2-4.6 46.3-13.5 67.7-8.8 21.4-22 41-38.4 57.4l-7.1-7.1c15.5-15.5 27.9-34 36.2-54.2 8.4-20.2 12.7-42 12.7-63.9s-4.3-43.7-12.7-63.9c-8.3-20.2-20.7-38.7-36.2-54.2-15.5-15.5-34-27.9-54.2-36.2-20.2-8.4-42-12.7-63.9-12.7s-43.7 4.3-63.9 12.7c-20.2 8.3-38.7 20.7-54.2 36.2l-6.9-6.9zM473.1 357.7c-69.1 69.1-181.2 69.1-250.3 0-69.1-69.1-69.1-181.2 0-250.3" fill="#fff"/><path d="M1389 0l-.2 11.8-.1 5.9c0 2-.2 3.9-.3 5.9l-.6 11.8-1.1 11.8c-1.7 15.7-4.2 31.4-8.3 46.9-4.2 15.5-9.8 30.7-17.4 45.1-7.5 14.4-17.1 27.7-27.9 39.7-5.3 6.1-11.1 11.6-16.9 17.1-2.9 2.6-5.9 5.3-8.9 7.9-3 2.5-6 5.1-9 7.6-12 9.9-24.2 19.3-35.8 29-23.2 19.4-44 40.5-58.5 66.4l-8.6-5.2 6-9.9.7-1.2.8-1.2 1.7-2.4 3.3-4.7c2.3-3.1 4.7-6.1 7.1-9.1 2.5-2.9 5-5.9 7.5-8.7 10.3-11.4 21.7-21.8 33.5-31.7 11.8-9.9 24-19.3 35.9-29 3-2.4 5.9-4.9 8.8-7.4 2.9-2.5 5.8-5.1 8.6-7.7 5.6-5.3 11.1-10.6 16.2-16.4 10.3-11.4 19.4-24 26.5-37.7 7.2-13.6 12.6-28.1 16.6-43 4-14.9 6.4-30.1 8-45.4l1.1-11.5.6-11.5c.1-1.9.2-3.8.3-5.8l.1-5.8.3-11.6h10z" fill="#383A48"/><g clip-path="url(#clip0)"><path d="M1556.05 114.962l-17.03.644a56.548 56.548 0 00-10.15-16.16l7.96-15.089c3.1-5.87.85-13.14-5.01-16.24l-13.06-6.907c-5.87-3.1-13.13-.854-16.22 5.016l-7.97 15.095a55.953 55.953 0 00-19.05.707l-9.07-14.438c-3.53-5.619-10.94-7.31-16.55-3.776l-12.51 7.873c-5.61 3.534-7.3 10.953-3.77 16.573l9.07 14.437a56.185 56.185 0 00-8.9 16.888l-17.03.644c-6.63.251-11.8 5.831-11.55 12.464l.56 14.78c.25 6.633 5.82 11.807 12.45 11.557l17.03-.644a56.548 56.548 0 0010.15 16.16l-7.96 15.089c-3.09 5.869-.85 13.141 5.01 16.24l13.07 6.907c5.86 3.099 13.12.854 16.22-5.016l7.96-15.095c6.29.845 12.73.632 19.06-.707l9.06 14.438c3.53 5.619 10.94 7.31 16.56 3.776l12.5-7.873c5.62-3.534 7.31-10.953 3.78-16.573l-9.07-14.437a56.157 56.157 0 008.89-16.888l17.04-.644c6.62-.251 11.79-5.831 11.54-12.464l-.56-14.78c-.25-6.633-5.82-11.807-12.45-11.557zm-55.56 43.29c-11.73 7.382-27.21 3.85-34.58-7.89-7.38-11.739-3.85-27.24 7.88-34.622 11.72-7.382 27.2-3.85 34.58 7.89 7.37 11.739 3.84 27.24-7.88 34.622z" fill="#383A48"/><path d="M1461.11 216c-2.22 0-4.42-.541-6.44-1.608l-13.07-6.907c-6.74-3.563-9.32-11.952-5.77-18.701l7.38-13.98a59.044 59.044 0 01-5.11-6.937 58.767 58.767 0 01-4.03-7.614l-15.78.597a13.71 13.71 0 01-9.92-3.681 13.757 13.757 0 01-4.42-9.627l-.56-14.78c-.28-7.625 5.68-14.064 13.3-14.352l15.78-.597a57.91 57.91 0 018.01-15.209l-8.4-13.375c-4.06-6.46-2.11-15.02 4.34-19.083l12.51-7.873a13.71 13.71 0 0110.43-1.778c3.6.821 6.66 2.997 8.63 6.126l8.4 13.375a57.62 57.62 0 0117.16-.636l7.38-13.984c3.56-6.748 11.94-9.34 18.68-5.776l13.06 6.907c6.74 3.563 9.33 11.953 5.77 18.7l-7.38 13.982a57.97 57.97 0 015.11 6.936 57.513 57.513 0 014.03 7.615l15.79-.597.06 1.82-.06-1.82c7.61-.285 14.04 5.682 14.33 13.308l.56 14.78c.29 7.626-5.68 14.064-13.29 14.352l-15.79.597a57.585 57.585 0 01-8.01 15.209l8.41 13.375a13.786 13.786 0 011.77 10.442 13.734 13.734 0 01-6.12 8.641l-12.5 7.874a13.724 13.724 0 01-10.43 1.778 13.735 13.735 0 01-8.64-6.127l-8.4-13.375a57.583 57.583 0 01-17.16.636l-7.37 13.984a13.755 13.755 0 01-8.15 6.761c-1.35.416-2.72.622-4.09.622zm-25.86-59.435c.74 0 1.4.442 1.68 1.125a54.717 54.717 0 009.83 15.64c.5.568.61 1.392.25 2.066l-7.96 15.089c-2.62 4.973-.72 11.154 4.25 13.78l13.07 6.907c2.4 1.272 5.16 1.53 7.76.725 2.6-.803 4.73-2.573 6-4.981l7.96-15.096a1.827 1.827 0 011.85-.954c6.18.83 12.38.6 18.44-.683a1.83 1.83 0 011.92.812l9.06 14.438a10.13 10.13 0 006.36 4.514c2.66.605 5.39.14 7.69-1.31l12.5-7.873a10.093 10.093 0 004.51-6.367c.61-2.656.14-5.389-1.3-7.695l-9.07-14.437a1.808 1.808 0 01.1-2.081 54.223 54.223 0 008.6-16.339c.24-.726.9-1.228 1.66-1.257l17.04-.644c5.61-.212 10.01-4.956 9.79-10.575l-.55-14.78c-.22-5.619-4.96-10.02-10.57-9.806l-17.03.644a1.82 1.82 0 01-1.75-1.124 55.205 55.205 0 00-4.25-8.238 54.709 54.709 0 00-5.57-7.402 1.83 1.83 0 01-.26-2.066l7.96-15.089c2.63-4.972.72-11.154-4.25-13.78l-13.06-6.906c-4.97-2.626-11.14-.717-13.77 4.256l-7.96 15.093a1.81 1.81 0 01-1.85.955 54.06 54.06 0 00-18.44.683 1.81 1.81 0 01-1.91-.812l-9.07-14.438a10.132 10.132 0 00-6.36-4.514c-2.65-.605-5.38-.14-7.69 1.31l-12.5 7.874c-4.76 2.993-6.19 9.301-3.2 14.061l9.07 14.438c.4.645.36 1.476-.1 2.08a54.266 54.266 0 00-8.61 16.34 1.802 1.802 0 01-1.66 1.256l-17.04.645c-5.61.212-10 4.956-9.79 10.575l.56 14.78c.1 2.722 1.26 5.241 3.25 7.093 2 1.852 4.59 2.816 7.31 2.713l17.03-.645h.07zm51.94 7.371c-2.01 0-4.03-.226-6.03-.683-7-1.598-12.97-5.832-16.79-11.921-7.9-12.571-4.11-29.228 8.45-37.133 12.55-7.905 29.19-4.109 37.09 8.461 3.82 6.09 5.05 13.306 3.45 20.32-1.59 7.013-5.82 12.984-11.9 16.813-4.35 2.734-9.26 4.143-14.27 4.143zm-.09-50.222c-4.23 0-8.51 1.152-12.35 3.568-10.85 6.835-14.13 21.24-7.3 32.111 3.3 5.266 8.46 8.927 14.52 10.309 6.06 1.382 12.29.319 17.55-2.992a23.135 23.135 0 0010.3-14.54c1.38-6.065.32-12.305-2.99-17.571-4.42-7.028-11.99-10.885-19.73-10.885z" fill="#383A48"/><path d="M1547.78 114.962l-17.03.644a56.548 56.548 0 00-10.15-16.16l7.96-15.089c3.09-5.87.85-13.14-5.01-16.24l-13.07-6.907c-5.86-3.1-13.12-.854-16.22 5.016l-7.96 15.095a56.011 56.011 0 00-19.06.707l-9.06-14.438c-3.53-5.619-10.94-7.31-16.56-3.776l-12.5 7.873c-5.62 3.534-7.31 10.953-3.78 16.573l9.07 14.437a56.157 56.157 0 00-8.89 16.888l-17.04.644c-6.62.251-11.79 5.831-11.54 12.464l.56 14.78c.25 6.633 5.82 11.807 12.45 11.557l17.03-.644a56.548 56.548 0 0010.15 16.16l-7.96 15.089c-3.1 5.869-.85 13.141 5.01 16.24l13.06 6.907c5.87 3.099 13.13.854 16.22-5.016l7.97-15.095c6.28.845 12.73.632 19.05-.707l9.07 14.438c3.53 5.619 10.94 7.31 16.55 3.776l12.51-7.873c5.61-3.534 7.3-10.953 3.77-16.573l-9.07-14.437a56.185 56.185 0 008.9-16.888l17.03-.644c6.63-.251 11.8-5.831 11.55-12.464l-.56-14.78c-.25-6.633-5.82-11.807-12.45-11.557zm-55.57 43.29c-11.72 7.382-27.2 3.85-34.58-7.89-7.37-11.739-3.84-27.24 7.88-34.622 11.73-7.382 27.21-3.85 34.58 7.89 7.38 11.739 3.85 27.24-7.88 34.622z" fill="#F3F6E7"/><path d="M1452.83 216c-2.22 0-4.42-.541-6.44-1.608l-13.06-6.907c-6.74-3.563-9.33-11.953-5.77-18.701l7.37-13.98a58.963 58.963 0 01-9.14-14.551l-15.78.597a13.73 13.73 0 01-9.92-3.681 13.788 13.788 0 01-4.41-9.627l-.56-14.78c-.29-7.625 5.68-14.064 13.29-14.352l15.79-.597a57.6 57.6 0 018.01-15.209l-8.41-13.375a13.786 13.786 0 01-1.77-10.442 13.734 13.734 0 016.12-8.642l12.5-7.873c3.13-1.968 6.83-2.6 10.43-1.778 3.6.821 6.67 2.997 8.64 6.127l8.4 13.375a57.6 57.6 0 0117.16-.636l7.37-13.985c3.56-6.748 11.94-9.34 18.68-5.775l13.07 6.906c6.74 3.564 9.32 11.953 5.77 18.701l-7.38 13.98a58.98 58.98 0 015.11 6.938 58.638 58.638 0 014.03 7.614l15.78-.597c7.62-.28 14.05 5.682 14.34 13.308l.55 14.78c.29 7.626-5.67 14.064-13.29 14.352l-15.78.597a57.879 57.879 0 01-8.01 15.209l8.4 13.375c1.97 3.13 2.6 6.838 1.78 10.442-.82 3.605-3 6.673-6.12 8.642l-12.51 7.873a13.712 13.712 0 01-10.43 1.778 13.743 13.743 0 01-8.63-6.126l-8.4-13.375a57.64 57.64 0 01-17.16.635l-7.38 13.985a13.71 13.71 0 01-8.14 6.761c-1.35.416-2.73.622-4.1.622zm-25.85-59.435c.73 0 1.4.442 1.68 1.125a54.327 54.327 0 004.25 8.238 54.584 54.584 0 005.57 7.402c.51.568.61 1.392.26 2.066l-7.96 15.089c-2.63 4.973-.72 11.154 4.25 13.78l13.06 6.907c4.97 2.625 11.14.716 13.77-4.256l7.96-15.096a1.812 1.812 0 011.85-.954c6.17.83 12.37.6 18.44-.683.74-.159 1.51.167 1.91.812l9.07 14.438a10.13 10.13 0 006.36 4.514c2.65.605 5.38.14 7.69-1.31l12.5-7.873a10.13 10.13 0 004.51-6.367c.61-2.656.14-5.389-1.31-7.695l-9.07-14.437c-.4-.646-.36-1.476.1-2.081a54.25 54.25 0 008.61-16.339c.23-.726.89-1.228 1.66-1.257l17.04-.644c5.61-.212 10-4.956 9.79-10.576l-.56-14.78c-.21-5.619-4.95-10.019-10.56-9.805l-17.03.644c-.76.031-1.46-.42-1.75-1.125a54.79 54.79 0 00-9.83-15.64 1.827 1.827 0 01-.25-2.065l7.96-15.09c2.62-4.972.72-11.153-4.25-13.779l-13.07-6.908c-4.96-2.625-11.14-.717-13.76 4.256l-7.96 15.095a1.826 1.826 0 01-1.85.955 54.05 54.05 0 00-18.44.683 1.824 1.824 0 01-1.92-.812l-9.06-14.438a10.132 10.132 0 00-6.36-4.514c-2.66-.606-5.39-.14-7.69 1.31l-12.51 7.874c-2.3 1.45-3.9 3.71-4.5 6.367a10.15 10.15 0 001.3 7.694l9.07 14.437c.41.646.37 1.477-.1 2.081a54.24 54.24 0 00-8.6 16.34c-.24.726-.9 1.227-1.66 1.256l-17.04.644c-5.61.213-10.01 4.957-9.79 10.576l.55 14.78a10.153 10.153 0 003.26 7.093 10.093 10.093 0 007.31 2.712l17.03-.644h.07zm120.8-41.603zm-68.87 48.974c-2 0-4.02-.226-6.02-.683-7.01-1.598-12.97-5.832-16.8-11.921-7.89-12.571-4.1-29.228 8.45-37.133 12.56-7.905 29.2-4.109 37.09 8.461 3.83 6.09 5.06 13.306 3.46 20.32-1.6 7.013-5.83 12.984-11.91 16.813-4.34 2.734-9.26 4.143-14.27 4.143zm-.08-50.222c-4.23 0-8.51 1.152-12.35 3.568-10.86 6.836-14.14 21.24-7.31 32.111 3.31 5.266 8.47 8.927 14.52 10.309a23.11 23.11 0 0017.56-2.992c5.26-3.311 8.91-8.475 10.29-14.54 1.38-6.065.32-12.305-2.99-17.571-4.41-7.028-11.99-10.885-19.72-10.885z" fill="#383A48"/></g><path d="M1286.8 543a5.001 5.001 0 000-10 5.001 5.001 0 000 10zM1331.8 543a5.001 5.001 0 000-10 5.001 5.001 0 000 10zM1376.8 543a5.001 5.001 0 000-10 5.001 5.001 0 000 10zM1421.8 543a5.001 5.001 0 000-10 5.001 5.001 0 000 10zM1286.8 586.5a5.001 5.001 0 000-10 5.001 5.001 0 000 10zM1331.8 586.5a5.001 5.001 0 000-10 5.001 5.001 0 000 10zM1376.8 586.5a5.001 5.001 0 000-10 5.001 5.001 0 000 10zM1421.8 586.5a5.001 5.001 0 000-10 5.001 5.001 0 000 10zM1286.8 630a5.001 5.001 0 000-10 5.001 5.001 0 000 10zM1331.8 630a5.001 5.001 0 000-10 5.001 5.001 0 000 10zM1376.8 630a5.001 5.001 0 000-10 5.001 5.001 0 000 10zM1421.8 630a5.001 5.001 0 000-10 5.001 5.001 0 000 10zM1286.8 673.5a5.001 5.001 0 000-10 5.001 5.001 0 000 10zM1331.8 673.5a5.001 5.001 0 000-10 5.001 5.001 0 000 10zM1376.8 673.5a5.001 5.001 0 000-10 5.001 5.001 0 000 10zM1421.8 673.5a5.001 5.001 0 000-10 5.001 5.001 0 000 10z" fill="#383A48"/><path d="M694.8 55.5l282.3 282.3" stroke="#fff" stroke-width="10" stroke-miterlimit="10" stroke-linecap="round"/><path d="M99.5 310.5H.5v99l99-99z" fill="#E5EDFF"/><path d="M38 646.3l11-51.6L63.3 583h34.2l9.2 11.7-11 51.6L81.5 658H47.2L38 646.3zm17.8-5.3l2.7 3.4H75l5.3-4.4 5.9-27.6L55.8 641zm33-41l-2.6-3.4H69.7l-5.4 4.4-5.8 27.5L88.8 600zM107.3 657.5l2.9-13.6h10.5l9.9-46.7h-10.7l2.9-13.6h27.4l-12.8 60.3h10.7l-2.9 13.6h-37.9zM154.9 657.5l2.9-13.6h10.5l9.9-46.7h-10.7l2.9-13.6h27.4L185 643.9h10.5l-2.9 13.6h-37.7zM202.4 657.5l2.9-13.6h10.5l9.9-46.7H215l2.9-13.6h27.4l-12.8 60.3h10.6l-2.9 13.6h-37.8zM253.2 646.3l11-51.6 14.3-11.7h34.2l9.2 11.7-11 51.6-14.2 11.7h-34.3l-9.2-11.7zm17.9-5.3l2.7 3.4h16.5l5.3-4.4 5.9-27.6-30.4 28.6zm33-41l-2.6-3.4H285l-5.4 4.4-5.8 27.5 30.3-28.5zM325.8 646.3l11-51.6 14.3-11.7h34.2l9.2 11.7-11 51.6-14.2 11.7h-34.2l-9.3-11.7zm17.9-5.3l2.7 3.4h16.5l5.3-4.4 5.9-27.6-30.4 28.6zm33-41l-2.6-3.4h-16.5l-5.4 4.4-5.8 27.5 30.3-28.5zM395.2 657.5l2.9-13.6h10.5l9.9-46.7h-10.7l2.9-13.6h27.4l-12.8 60.3h10.5l-2.9 13.6h-37.7zM442.7 657.5l2.9-13.6h10.5l9.9-46.7h-10.7l2.9-13.6h27.4l-12.8 60.3h10.5l-2.9 13.6h-37.7zM493.5 646.3l11-51.6 14.3-11.7H553l9.2 11.7-11 51.6-14.1 11.7h-34.3l-9.3-11.7zm17.9-5.3l2.7 3.4h16.5l5.3-4.4 5.9-27.6-30.4 28.6zm33-41l-2.6-3.4h-16.5l-5.4 4.4-5.8 27.5 30.3-28.5zM38 785.5l2.9-13.6h10.5l9.9-46.7H50.6l2.9-13.6h27.4l-12.8 60.3h10.5l-2.9 13.6H38zM88.8 774.3l11-51.6 14.3-11.7h34.2l9.2 11.7-11 51.6-14.2 11.7H98l-9.2-11.7zm17.9-5.3l2.7 3.4h16.5l5.3-4.4 5.9-27.6-30.4 28.6zm33-41l-2.6-3.4h-16.5l-5.4 4.4-5.8 27.5 30.3-28.5zM158.2 785.5l2.9-13.6h10.5l9.9-46.7h-10.7l2.9-13.6h27.4l-12.8 60.3h10.5l-2.9 13.6h-37.7zM209 774.3l11-51.6 14.3-11.7h34.2l9.2 11.7-11 51.6-14.2 11.7h-34.3l-9.2-11.7zm17.8-5.3l2.7 3.4H246l5.3-4.4 5.9-27.6-30.4 28.6zm33-41l-2.6-3.4h-16.5l-5.4 4.4-5.8 27.5 30.3-28.5zM281.6 774.3l11-51.6 14.3-11.7h34.2l9.2 11.7-11 51.6-14.2 11.7h-34.3l-9.2-11.7zm17.9-5.3l2.7 3.4h16.5l5.3-4.4 5.9-27.6-30.4 28.6zm33-41l-2.6-3.4h-16.5L308 729l-5.8 27.5 30.3-28.5zM38 879.3l11-51.6L63.3 816h34.2l9.2 11.7-11 51.6L81.5 891H47.2L38 879.3zm17.8-5.3l2.7 3.4H75l5.3-4.4 5.9-27.6L55.8 874zm33-41l-2.6-3.4H69.7l-5.4 4.4-5.8 27.5L88.8 833zM107.3 890.4l2.9-13.6h10.5l9.9-46.7h-10.7l2.9-13.6h27.4l-12.8 60.3h10.7l-2.9 13.6h-37.9zM154.9 890.4l2.9-13.6h10.5l9.8-46.7h-10.7l2.9-13.6h27.4l-12.8 60.3h10.5l-2.9 13.6h-37.6z" fill="#AAC6FC"/><defs><clipPath id="clip0"><path fill="#fff" transform="translate(1395 58)" d="M0 0h176v158H0z"/></clipPath></defs></svg>