<svg width="1589" height="922" viewBox="0 0 1589 922" fill="none" xmlns="http://www.w3.org/2000/svg">
<path d="M502.3 544H0.5V916.5H502.3V544Z" fill="#FFCC00"/>
<path d="M1588.5 0H1173V471H1588.5V0Z" fill="#FFCC00"/>
<path d="M1266 450.5H800V916.5H1266V450.5Z" fill="#F3F6E6"/>
<path d="M1271 921.5H795V445.5H1271V921.5ZM805 911.5H1261V455.5H805V911.5Z" fill="#383A48"/>
<path d="M1266 450.5H800V569.5H1266V450.5Z" fill="#383A48"/>
<path d="M1209.9 450.5C1197.2 471.1 1186.2 496.1 1178.2 527.9C1111 793.8 936.3 637.7 800 728.6V450.5H1209.9Z" fill="#383A48"/>
<path d="M1318.9 425H852.9V891H1318.9V425Z" fill="#F3F6E6"/>
<path d="M1323.9 896H847.9V420H1323.9V896ZM857.9 886H1313.9V430H857.9V886Z" fill="#383A48"/>
<path d="M1318.9 425H852.9V544H1318.9V425Z" fill="#383A48"/>
<path d="M1216.1 425C1200.7 447.3 1187.5 475.1 1178.2 511.9C1119.4 744.3 978.6 654.2 853 688.7V425H1216.1Z" fill="#383A48"/>
<path d="M1371.8 399.5H905.8V865.5H1371.8V399.5Z" fill="#F3F6E6"/>
<path d="M1376.8 870.5H900.8V394.5H1376.8V870.5ZM910.8 860.5H1366.8V404.5H910.8V860.5Z" fill="#383A48"/>
<path d="M1371.8 399.5H905.8V518.5H1371.8V399.5Z" fill="#383A48"/>
<path d="M1229.4 399.5C1208.4 424.5 1190.1 456.8 1178.2 503.9C1127.6 704.1 1016 665 905.8 672.3V399.5H1229.4Z" fill="#383A48"/>
<path d="M1424.8 374H958.8V840H1424.8V374Z" fill="#F3F6E6"/>
<path d="M1429.8 845H953.8V369H1429.8V845ZM963.8 835H1419.8V379H963.8V835Z" fill="#383A48"/>
<path d="M1424.8 374H958.8V493H1424.8V374Z" fill="#383A48"/>
<path d="M1240 374C1214.6 400.6 1192 435.3 1178.1 490.3C1135.6 658.3 1050.2 657.8 958.7 657.6V374H1240Z" fill="#383A48"/>
<path d="M1477.7 348.5H1011.7V814.5H1477.7V348.5Z" fill="#F3F6E6"/>
<path d="M1482.7 819.5H1006.7V343.5H1482.7V819.5ZM1016.7 809.5H1472.7V353.5H1016.7V809.5Z" fill="#383A48"/>
<path d="M1477.7 348.5H1011.7V467.5H1477.7V348.5Z" fill="#383A48"/>
<path d="M1248.5 348.5C1219.7 376.2 1193.6 412.3 1178.2 473.3C1144.1 608.3 1082.2 634.5 1011.7 639.5V348.5H1248.5Z" fill="#383A48"/>
<path d="M1530.6 323H1064.6V789H1530.6V323Z" fill="#F3F6E6"/>
<path d="M1535.6 794H1059.6V318H1535.6V794ZM1069.6 784H1525.6V328H1069.6V784Z" fill="#383A48"/>
<path d="M1530.6 323H1064.6V442H1530.6V323Z" fill="#383A48"/>
<path d="M1263.4 323C1228.9 352.7 1196.2 389.9 1178.2 461.3C1152.9 561.2 1112.5 601.5 1064.6 617.8V323H1263.4Z" fill="#383A48"/>
<path d="M1583.5 297.5H1117.5V763.5H1583.5V297.5Z" fill="#F3F6E6"/>
<path d="M1286.8 297.5C1247.3 329.5 1223.4 368 1203 449C1185.8 516.8 1159 558 1117.5 579.7V297.5H1286.8Z" fill="#383A48"/>
<path d="M1588.5 768.5H1112.5V292.5H1588.5V768.5ZM1122.5 758.5H1578.5V302.5H1122.5V758.5Z" fill="#383A48"/>
<path d="M1583.5 297.5H1117.5V416.5H1583.5V297.5Z" fill="#383A48"/>
<path d="M234.5 874.9C231.6 888.6 227.3 902.5 221 916.5H250.7V874.9H234.5Z" fill="#F3F6E6"/>
<path d="M292.6 874.9H250.7V916.5H292.6V874.9Z" fill="#BEBFC3"/>
<path d="M334.5 874.9H292.6V916.5H334.5V874.9Z" fill="#F3F6E6"/>
<path d="M376.5 874.9H334.6V916.5H376.5V874.9Z" fill="#BEBFC3"/>
<path d="M418.4 874.9H376.5V916.5H418.4V874.9Z" fill="#F3F6E6"/>
<path d="M460.3 874.9H418.4V916.5H460.3V874.9Z" fill="#BEBFC3"/>
<path d="M502.2 874.9H460.3V916.5H502.2V874.9Z" fill="#F3F6E6"/>
<path d="M544.2 874.9H502.3V916.5H544.2V874.9Z" fill="#BEBFC3"/>
<path d="M586.1 874.9H544.2V916.5H586.1V874.9Z" fill="#F3F6E6"/>
<path d="M628 874.9H586.1V916.5H628V874.9Z" fill="#BEBFC3"/>
<path d="M670 874.9H628.1V916.5H670V874.9Z" fill="#F3F6E6"/>
<path d="M670 916.5H691C697.3 902.4 701.6 888.6 704.5 874.9H670V916.5Z" fill="#BEBFC3"/>
<path d="M250.7 791.3H239.3C239.9 805 240.3 818.9 239.6 833H250.7V791.3Z" fill="#F3F6E6"/>
<path d="M292.6 791.3H250.7V833H292.6V791.3Z" fill="#BEBFC3"/>
<path d="M334.5 791.3H292.6V833H334.5V791.3Z" fill="#F3F6E6"/>
<path d="M376.5 791.3H334.6V833H376.5V791.3Z" fill="#BEBFC3"/>
<path d="M418.4 791.3H376.5V833H418.4V791.3Z" fill="#F3F6E6"/>
<path d="M460.3 791.3H418.4V833H460.3V791.3Z" fill="#BEBFC3"/>
<path d="M502.2 791.3H460.3V833H502.2V791.3Z" fill="#F3F6E6"/>
<path d="M544.2 791.3H502.3V833H544.2V791.3Z" fill="#BEBFC3"/>
<path d="M586.1 791.3H544.2V833H586.1V791.3Z" fill="#F3F6E6"/>
<path d="M628 791.3H586.1V833H628V791.3Z" fill="#BEBFC3"/>
<path d="M670 791.3H628.1V833H670V791.3Z" fill="#F3F6E6"/>
<path d="M670 833.1H709.6C710.2 819 709.9 805.1 709.3 791.4H670V833.1Z" fill="#BEBFC3"/>
<path d="M250.7 833.1H239.6C239 846.8 237.5 860.7 234.5 874.8H250.7V833.1Z" fill="#BEBFC3"/>
<path d="M292.6 833.1H250.7V874.8H292.6V833.1Z" fill="#F3F6E6"/>
<path d="M334.5 833.1H292.6V874.8H334.5V833.1Z" fill="#BEBFC3"/>
<path d="M376.5 833.1H334.6V874.8H376.5V833.1Z" fill="#F3F6E6"/>
<path d="M418.4 833.1H376.5V874.8H418.4V833.1Z" fill="#BEBFC3"/>
<path d="M460.3 833.1H418.4V874.8H460.3V833.1Z" fill="#F3F6E6"/>
<path d="M502.2 833.1H460.3V874.8H502.2V833.1Z" fill="#BEBFC3"/>
<path d="M544.2 833.1H502.3V874.8H544.2V833.1Z" fill="#F3F6E6"/>
<path d="M586.1 833.1H544.2V874.8H586.1V833.1Z" fill="#BEBFC3"/>
<path d="M628 833.1H586.1V874.8H628V833.1Z" fill="#F3F6E6"/>
<path d="M670 833.1H628.1V874.8H670V833.1Z" fill="#BEBFC3"/>
<path d="M670 874.8H704.5C707.5 860.7 709 846.8 709.6 833.1H670V874.8Z" fill="#F3F6E6"/>
<path d="M250.7 707.8H237.1C236.2 721.5 236.4 735.4 237 749.5H250.7V707.8Z" fill="#F3F6E6"/>
<path d="M292.6 707.8H250.7V749.5H292.6V707.8Z" fill="#BEBFC3"/>
<path d="M334.5 707.8H292.6V749.5H334.5V707.8Z" fill="#F3F6E6"/>
<path d="M376.5 707.8H334.6V749.5H376.5V707.8Z" fill="#BEBFC3"/>
<path d="M418.4 707.8H376.5V749.5H418.4V707.8Z" fill="#F3F6E6"/>
<path d="M460.3 707.8H418.4V749.5H460.3V707.8Z" fill="#BEBFC3"/>
<path d="M502.2 707.8H460.3V749.5H502.2V707.8Z" fill="#F3F6E6"/>
<path d="M544.2 707.8H502.3V749.5H544.2V707.8Z" fill="#BEBFC3"/>
<path d="M586.1 707.8H544.2V749.5H586.1V707.8Z" fill="#F3F6E6"/>
<path d="M628 707.8H586.1V749.5H628V707.8Z" fill="#BEBFC3"/>
<path d="M670 707.8H628.1V749.5H670V707.8Z" fill="#F3F6E6"/>
<path d="M670 749.5H707C706.4 735.4 706.1 721.4 707.1 707.8H670V749.5Z" fill="#BEBFC3"/>
<path d="M250.7 749.5H237C237.6 763.2 238.6 777.1 239.3 791.2H250.7V749.5Z" fill="#BEBFC3"/>
<path d="M292.6 749.5H250.7V791.2H292.6V749.5Z" fill="#F3F6E6"/>
<path d="M334.5 749.5H292.6V791.2H334.5V749.5Z" fill="#BEBFC3"/>
<path d="M376.5 749.5H334.6V791.2H376.5V749.5Z" fill="#F3F6E6"/>
<path d="M418.4 749.5H376.5V791.2H418.4V749.5Z" fill="#BEBFC3"/>
<path d="M460.3 749.5H418.4V791.2H460.3V749.5Z" fill="#F3F6E6"/>
<path d="M502.2 749.5H460.3V791.2H502.2V749.5Z" fill="#BEBFC3"/>
<path d="M544.2 749.5H502.3V791.2H544.2V749.5Z" fill="#F3F6E6"/>
<path d="M586.1 749.5H544.2V791.2H586.1V749.5Z" fill="#BEBFC3"/>
<path d="M628 749.5H586.1V791.2H628V749.5Z" fill="#F3F6E6"/>
<path d="M670 749.5H628.1V791.2H670V749.5Z" fill="#BEBFC3"/>
<path d="M670 791.2H709.2C708.5 777.1 707.6 763.2 706.9 749.5H669.9L670 791.2Z" fill="#F3F6E6"/>
<path d="M250.7 650.2C248.3 655.4 246.3 660.7 244.7 666H250.7V650.2Z" fill="#F3F6E6"/>
<path d="M292.6 665.9V624.2H265.9C259.6 632.8 254.7 641.4 250.7 650.2V666L292.6 665.9Z" fill="#BEBFC3"/>
<path d="M334.5 624.2H292.6V665.9H334.5V624.2Z" fill="#F3F6E6"/>
<path d="M376.5 624.2H334.6V665.9H376.5V624.2Z" fill="#BEBFC3"/>
<path d="M418.4 624.2H376.5V665.9H418.4V624.2Z" fill="#F3F6E6"/>
<path d="M460.3 624.2H418.4V665.9H460.3V624.2Z" fill="#BEBFC3"/>
<path d="M502.2 624.2H460.3V665.9H502.2V624.2Z" fill="#F3F6E6"/>
<path d="M544.2 624.2H502.3V665.9H544.2V624.2Z" fill="#BEBFC3"/>
<path d="M586.1 624.2H544.2V665.9H586.1V624.2Z" fill="#F3F6E6"/>
<path d="M628 624.2H586.1V665.9H628V624.2Z" fill="#BEBFC3"/>
<path d="M670 624.2H628.1V665.9H670V624.2Z" fill="#F3F6E6"/>
<path d="M711.9 624.2H670V665.9H711.9V624.2Z" fill="#BEBFC3"/>
<path d="M711.9 665.9H714.6C719.1 651.7 725.9 637.8 735.8 624.2H711.8L711.9 665.9Z" fill="#F3F6E6"/>
<path d="M250.7 665.9H244.7C240.4 679.6 238.1 693.5 237.1 707.6H250.7V665.9Z" fill="#BEBFC3"/>
<path d="M292.6 665.9H250.7V707.6H292.6V665.9Z" fill="#F3F6E6"/>
<path d="M334.5 665.9H292.6V707.6H334.5V665.9Z" fill="#BEBFC3"/>
<path d="M376.5 665.9H334.6V707.6H376.5V665.9Z" fill="#F3F6E6"/>
<path d="M418.4 665.9H376.5V707.6H418.4V665.9Z" fill="#BEBFC3"/>
<path d="M460.3 665.9H418.4V707.6H460.3V665.9Z" fill="#F3F6E6"/>
<path d="M502.2 665.9H460.3V707.6H502.2V665.9Z" fill="#BEBFC3"/>
<path d="M544.2 665.9H502.3V707.6H544.2V665.9Z" fill="#F3F6E6"/>
<path d="M586.1 665.9H544.2V707.6H586.1V665.9Z" fill="#BEBFC3"/>
<path d="M628 665.9H586.1V707.6H628V665.9Z" fill="#F3F6E6"/>
<path d="M670 665.9H628.1V707.6H670V665.9Z" fill="#BEBFC3"/>
<path d="M670 665.9V707.6H707.1C707.9 696.7 709.3 686 712 675.5V665.9H670Z" fill="#F3F6E6"/>
<path d="M711.9 675.5C712.7 672.3 713.6 669.1 714.6 665.9H711.9V675.5Z" fill="#BEBFC3"/>
<path d="M334.6 566.1C327.2 569.9 319.8 574.4 312.5 579.5C311.2 580.5 309.8 581.4 308.5 582.4H334.5V566.1H334.6Z" fill="#F3F6E6"/>
<path d="M376.5 582.4V550.7C362.3 554.1 348.3 559 334.6 566.1V582.4H376.5Z" fill="#BEBFC3"/>
<path d="M418.4 582.4V544.3C404.3 545.4 390.3 547.3 376.5 550.7V582.4H418.4Z" fill="#F3F6E6"/>
<path d="M460.3 582.4V542.8C446.4 542.9 432.4 543.2 418.4 544.3V582.4H460.3Z" fill="#BEBFC3"/>
<path d="M502.3 582.4V542.7C488.5 542.9 474.5 542.7 460.4 542.8V582.4H502.3Z" fill="#F3F6E6"/>
<path d="M544.2 582.4V540.7H540.6C528.1 542.1 515.3 542.6 502.2 542.8V582.5L544.2 582.4Z" fill="#BEBFC3"/>
<path d="M586.1 540.6H544.2V582.3H586.1V540.6Z" fill="#F3F6E6"/>
<path d="M628 540.6H586.1V582.3H628V540.6Z" fill="#BEBFC3"/>
<path d="M670 540.6H628.1V582.3H670V540.6Z" fill="#F3F6E6"/>
<path d="M711.9 540.6H670V582.3H711.9V540.6Z" fill="#BEBFC3"/>
<path d="M753.8 540.6H711.9V582.3H753.8V540.6Z" fill="#F3F6E6"/>
<path d="M753.9 540.6V582.3H778.6C779.9 581.3 781.2 580.4 782.6 579.4C787 576.3 791.4 573.4 795.9 570.8V540.6H753.9Z" fill="#BEBFC3"/>
<path d="M795.8 540.6V570.8C809.5 562.8 823.5 557 837.7 552.9V540.6H795.8Z" fill="#F3F6E6"/>
<path d="M837.7 540.6V553C851.5 549 865.5 546.6 879.6 545.1V540.7L837.7 540.6Z" fill="#BEBFC3"/>
<path d="M879.7 540.6V545C893.7 543.5 907.7 543 921.6 542.8V540.6H879.7Z" fill="#F3F6E6"/>
<path d="M921.6 540.6V542.8C935.7 542.6 949.7 542.8 963.5 542.7V540.5L921.6 540.6Z" fill="#BEBFC3"/>
<path d="M963.5 540.6V542.8C977.7 542.7 991.8 542.4 1005.4 541.2V540.7H963.5V540.6Z" fill="#F3F6E6"/>
<path d="M1005.5 541.2C1007.2 541 1008.9 540.9 1010.7 540.7H1005.5V541.2Z" fill="#BEBFC3"/>
<path d="M292.6 595.3C281.8 604.8 273.1 614.4 265.9 624.2H292.6V595.3Z" fill="#F3F6E6"/>
<path d="M334.6 624.1V582.4H308.6C302.9 586.7 297.6 590.9 292.7 595.3V624.2H334.6V624.1Z" fill="#BEBFC3"/>
<path d="M376.5 582.4H334.6V624.1H376.5V582.4Z" fill="#F3F6E6"/>
<path d="M418.4 582.4H376.5V624.1H418.4V582.4Z" fill="#BEBFC3"/>
<path d="M460.3 582.4H418.4V624.1H460.3V582.4Z" fill="#F3F6E6"/>
<path d="M502.2 582.4H460.3V624.1H502.2V582.4Z" fill="#BEBFC3"/>
<path d="M544.2 582.4H502.3V624.1H544.2V582.4Z" fill="#F3F6E6"/>
<path d="M586.1 582.4H544.2V624.1H586.1V582.4Z" fill="#BEBFC3"/>
<path d="M628 582.4H586.1V624.1H628V582.4Z" fill="#F3F6E6"/>
<path d="M670 582.4H628.1V624.1H670V582.4Z" fill="#BEBFC3"/>
<path d="M711.9 582.4H670V624.1H711.9V582.4Z" fill="#F3F6E6"/>
<path d="M711.9 582.4V624.1H735.9C741 617.1 746.9 610.2 753.8 603.4V582.4H711.9Z" fill="#BEBFC3"/>
<path d="M753.9 603.4C761 596.3 769.2 589.3 778.6 582.4H753.9V603.4Z" fill="#F3F6E6"/>
<path d="M670 457.1H665.3C656.1 474.2 645.9 487.9 635.1 498.8H670V457.1Z" fill="#F3F6E6"/>
<path d="M711.9 457.1H670V498.8H711.9V457.1Z" fill="#BEBFC3"/>
<path d="M753.8 457.1H711.9V498.8H753.8V457.1Z" fill="#F3F6E6"/>
<path d="M795.8 457.1H753.9V498.8H795.8V457.1Z" fill="#BEBFC3"/>
<path d="M837.7 457.1H795.8V498.8H837.7V457.1Z" fill="#F3F6E6"/>
<path d="M879.6 457.1H837.7V498.8H879.6V457.1Z" fill="#BEBFC3"/>
<path d="M921.6 457.1H879.7V498.8H921.6V457.1Z" fill="#F3F6E6"/>
<path d="M963.5 457.1H921.6V498.8H963.5V457.1Z" fill="#BEBFC3"/>
<path d="M1005.4 457.1H963.5V498.8H1005.4V457.1Z" fill="#F3F6E6"/>
<path d="M1047.4 457.1H1005.5V498.8H1047.4V457.1Z" fill="#BEBFC3"/>
<path d="M1089.3 457.1H1047.4V498.8H1089.3V457.1Z" fill="#F3F6E6"/>
<path d="M1089.3 457.1V498.8H1105.1C1114.4 489.4 1123.1 478.1 1131.3 464.3V457.1H1089.3Z" fill="#BEBFC3"/>
<path d="M1131.3 464.3C1132.7 462 1134 459.6 1135.4 457.1H1131.3V464.3Z" fill="#F3F6E6"/>
<path d="M544.2 540.2C543.2 540.3 542.2 540.4 541.2 540.5H544.2V540.2Z" fill="#F3F6E6"/>
<path d="M586.1 540.6V530.5C572.7 535.5 558.6 538.5 544.2 540.3V540.6H586.1Z" fill="#BEBFC3"/>
<path d="M628.1 540.6V505.5C615 517 601 525 586.2 530.5V540.6H628.1Z" fill="#F3F6E6"/>
<path d="M670 540.6V498.9H635.1C632.8 501.2 630.4 503.4 628.1 505.5V540.6H670Z" fill="#BEBFC3"/>
<path d="M711.9 498.8H670V540.5H711.9V498.8Z" fill="#F3F6E6"/>
<path d="M753.8 498.8H711.9V540.5H753.8V498.8Z" fill="#BEBFC3"/>
<path d="M795.8 498.8H753.9V540.5H795.8V498.8Z" fill="#F3F6E6"/>
<path d="M837.7 498.8H795.8V540.5H837.7V498.8Z" fill="#BEBFC3"/>
<path d="M879.6 498.8H837.7V540.5H879.6V498.8Z" fill="#F3F6E6"/>
<path d="M921.6 498.8H879.7V540.5H921.6V498.8Z" fill="#BEBFC3"/>
<path d="M963.5 498.8H921.6V540.5H963.5V498.8Z" fill="#F3F6E6"/>
<path d="M1005.4 498.8H963.5V540.5H1005.4V498.8Z" fill="#BEBFC3"/>
<path d="M1005.5 498.8V540.5H1011.3C1023.7 539.1 1035.8 536.9 1047.5 533.3V498.7L1005.5 498.8Z" fill="#F3F6E6"/>
<path d="M1047.4 498.8V533.4C1062.1 528.9 1076.2 522.3 1089.3 512.5V498.8H1047.4Z" fill="#BEBFC3"/>
<path d="M1089.3 512.5C1094.7 508.5 1100 503.9 1105.1 498.8H1089.3V512.5Z" fill="#F3F6E6"/>
<path d="M711.9 373.5H696C695.8 374.2 695.7 374.8 695.5 375.5C691.8 390 687.9 403.2 683.6 415.3H712L711.9 373.5Z" fill="#BEBFC3"/>
<path d="M753.8 373.5H711.9V415.2H753.8V373.5Z" fill="#F3F6E6"/>
<path d="M795.8 373.5H753.9V415.2H795.8V373.5Z" fill="#BEBFC3"/>
<path d="M837.7 373.5H795.8V415.2H837.7V373.5Z" fill="#F3F6E6"/>
<path d="M879.6 373.5H837.7V415.2H879.6V373.5Z" fill="#BEBFC3"/>
<path d="M921.6 373.5H879.7V415.2H921.6V373.5Z" fill="#F3F6E6"/>
<path d="M963.5 373.5H921.6V415.2H963.5V373.5Z" fill="#BEBFC3"/>
<path d="M1005.4 373.5H963.5V415.2H1005.4V373.5Z" fill="#F3F6E6"/>
<path d="M1047.4 373.5H1005.5V415.2H1047.4V373.5Z" fill="#BEBFC3"/>
<path d="M1089.3 373.5H1047.4V415.2H1089.3V373.5Z" fill="#F3F6E6"/>
<path d="M1131.2 373.5H1089.3V415.2H1131.2V373.5Z" fill="#BEBFC3"/>
<path d="M1131.3 415.3H1153.6C1157.9 403.2 1161.9 390 1165.5 375.5C1165.7 374.8 1165.8 374.2 1166 373.5H1131.3V415.3Z" fill="#F3F6E6"/>
<path d="M670 448C668.5 451.1 666.9 454.1 665.4 457H670V448Z" fill="#BEBFC3"/>
<path d="M711.9 457V415.3H683.5C679.3 427.3 674.7 438.2 669.9 448V457H711.9Z" fill="#F3F6E6"/>
<path d="M753.8 415.3H711.9V457H753.8V415.3Z" fill="#BEBFC3"/>
<path d="M795.8 415.3H753.9V457H795.8V415.3Z" fill="#F3F6E6"/>
<path d="M837.7 415.3H795.8V457H837.7V415.3Z" fill="#BEBFC3"/>
<path d="M879.6 415.3H837.7V457H879.6V415.3Z" fill="#F3F6E6"/>
<path d="M921.6 415.3H879.7V457H921.6V415.3Z" fill="#BEBFC3"/>
<path d="M963.5 415.3H921.6V457H963.5V415.3Z" fill="#F3F6E6"/>
<path d="M1005.4 415.3H963.5V457H1005.4V415.3Z" fill="#BEBFC3"/>
<path d="M1047.4 415.3H1005.5V457H1047.4V415.3Z" fill="#F3F6E6"/>
<path d="M1089.3 415.3H1047.4V457H1089.3V415.3Z" fill="#BEBFC3"/>
<path d="M1131.2 415.3H1089.3V457H1131.2V415.3Z" fill="#F3F6E6"/>
<path d="M1131.3 457H1135.4C1141.9 444.9 1148 431 1153.6 415.3H1131.3V457Z" fill="#BEBFC3"/>
<path d="M711.9 327.2C711.2 328.7 710.6 330.2 709.9 331.8H711.9V327.2Z" fill="#BEBFC3"/>
<path d="M753.9 331.7V290H732.5C725.1 300.9 718.2 313.2 712 327.2V331.8H753.9V331.7Z" fill="#F3F6E6"/>
<path d="M795.8 290H753.9V331.7H795.8V290Z" fill="#BEBFC3"/>
<path d="M837.7 290H795.8V331.7H837.7V290Z" fill="#F3F6E6"/>
<path d="M879.6 290H837.7V331.7H879.6V290Z" fill="#BEBFC3"/>
<path d="M921.6 290H879.7V331.7H921.6V290Z" fill="#F3F6E6"/>
<path d="M963.5 290H921.6V331.7H963.5V290Z" fill="#BEBFC3"/>
<path d="M1005.4 290H963.5V331.7H1005.4V290Z" fill="#F3F6E6"/>
<path d="M1047.4 290H1005.5V331.7H1047.4V290Z" fill="#BEBFC3"/>
<path d="M1089.3 290H1047.4V331.7H1089.3V290Z" fill="#F3F6E6"/>
<path d="M1131.2 290H1089.3V331.7H1131.2V290Z" fill="#BEBFC3"/>
<path d="M1173.2 290H1131.3V331.7H1173.2V290Z" fill="#F3F6E6"/>
<path d="M1173.2 331.7H1180C1186.7 315.8 1194.3 302.1 1202.5 290H1173.2V331.7Z" fill="#BEBFC3"/>
<path d="M711.9 331.7H709.9C704.6 344.2 700 358 696 373.4H711.9V331.7Z" fill="#F3F6E6"/>
<path d="M753.8 331.7H711.9V373.4H753.8V331.7Z" fill="#BEBFC3"/>
<path d="M795.8 331.7H753.9V373.4H795.8V331.7Z" fill="#F3F6E6"/>
<path d="M837.7 331.7H795.8V373.4H837.7V331.7Z" fill="#BEBFC3"/>
<path d="M879.6 331.7H837.7V373.4H879.6V331.7Z" fill="#F3F6E6"/>
<path d="M921.6 331.7H879.7V373.4H921.6V331.7Z" fill="#BEBFC3"/>
<path d="M963.5 331.7H921.6V373.4H963.5V331.7Z" fill="#F3F6E6"/>
<path d="M1005.4 331.7H963.5V373.4H1005.4V331.7Z" fill="#BEBFC3"/>
<path d="M1047.4 331.7H1005.5V373.4H1047.4V331.7Z" fill="#F3F6E6"/>
<path d="M1089.3 331.7H1047.4V373.4H1089.3V331.7Z" fill="#BEBFC3"/>
<path d="M1131.2 331.7H1089.3V373.4H1131.2V331.7Z" fill="#F3F6E6"/>
<path d="M1131.3 331.7V373.4H1166.1C1168.3 364.9 1170.7 357 1173.3 349.4V331.6L1131.3 331.7Z" fill="#BEBFC3"/>
<path d="M1173.2 349.5C1175.3 343.3 1177.6 337.4 1180 331.7H1173.2V349.5Z" fill="#F3F6E6"/>
<path d="M795.8 224.7C786.6 232.1 777.5 239.8 768.5 248.2H795.8V224.7Z" fill="#BEBFC3"/>
<path d="M837.7 248.2V206.5H818.6C811.1 212.6 803.5 218.6 795.8 224.8V248.3L837.7 248.2Z" fill="#F3F6E6"/>
<path d="M879.6 206.4H837.7V248.1H879.6V206.4Z" fill="#BEBFC3"/>
<path d="M921.6 206.4H879.7V248.1H921.6V206.4Z" fill="#F3F6E6"/>
<path d="M963.5 206.4H921.6V248.1H963.5V206.4Z" fill="#BEBFC3"/>
<path d="M1005.4 206.4H963.5V248.1H1005.4V206.4Z" fill="#F3F6E6"/>
<path d="M1047.4 206.4H1005.5V248.1H1047.4V206.4Z" fill="#BEBFC3"/>
<path d="M1089.3 206.4H1047.4V248.1H1089.3V206.4Z" fill="#F3F6E6"/>
<path d="M1131.2 206.4H1089.3V248.1H1131.2V206.4Z" fill="#BEBFC3"/>
<path d="M1173.2 206.4H1131.3V248.1H1173.2V206.4Z" fill="#F3F6E6"/>
<path d="M1215.1 206.4H1173.2V248.1H1215.1V206.4Z" fill="#BEBFC3"/>
<path d="M1215.1 206.4V248.1H1238.5C1244.6 242.4 1250.8 237 1257 231.8V206.4H1215.1Z" fill="#F3F6E6"/>
<path d="M1257.1 231.9C1267.6 223.1 1278.3 214.9 1288.6 206.5H1257.1V231.9Z" fill="#BEBFC3"/>
<path d="M753.9 263C746.5 271.1 739.3 280 732.5 289.9H753.9V263Z" fill="#BEBFC3"/>
<path d="M795.8 289.9V248.2H768.5C763.5 252.9 758.6 257.8 753.8 263V289.9H795.8Z" fill="#F3F6E6"/>
<path d="M837.7 248.2H795.8V289.9H837.7V248.2Z" fill="#BEBFC3"/>
<path d="M879.6 248.2H837.7V289.9H879.6V248.2Z" fill="#F3F6E6"/>
<path d="M921.6 248.2H879.7V289.9H921.6V248.2Z" fill="#BEBFC3"/>
<path d="M963.5 248.2H921.6V289.9H963.5V248.2Z" fill="#F3F6E6"/>
<path d="M1005.4 248.2H963.5V289.9H1005.4V248.2Z" fill="#BEBFC3"/>
<path d="M1047.4 248.2H1005.5V289.9H1047.4V248.2Z" fill="#F3F6E6"/>
<path d="M1089.3 248.2H1047.4V289.9H1089.3V248.2Z" fill="#BEBFC3"/>
<path d="M1131.2 248.2H1089.3V289.9H1131.2V248.2Z" fill="#F3F6E6"/>
<path d="M1173.2 248.2H1131.3V289.9H1173.2V248.2Z" fill="#BEBFC3"/>
<path d="M1173.2 248.2V289.9H1202.5C1206.6 283.9 1210.8 278.3 1215.1 273V248.1L1173.2 248.2Z" fill="#F3F6E6"/>
<path d="M1215.1 273.1C1222.6 264 1230.5 255.8 1238.5 248.2H1215.1V273.1Z" fill="#BEBFC3"/>
<path d="M879.7 139C874.4 148.4 868.5 156.8 862.2 164.6H879.7V139Z" fill="#BEBFC3"/>
<path d="M921.6 164.6V122.9H887.8C885.3 128.6 882.6 134 879.7 139.1V164.7H921.6V164.6Z" fill="#F3F6E6"/>
<path d="M963.5 122.9H921.6V164.6H963.5V122.9Z" fill="#BEBFC3"/>
<path d="M1005.4 122.9H963.5V164.6H1005.4V122.9Z" fill="#F3F6E6"/>
<path d="M1047.4 122.9H1005.5V164.6H1047.4V122.9Z" fill="#BEBFC3"/>
<path d="M1089.3 122.9H1047.4V164.6H1089.3V122.9Z" fill="#F3F6E6"/>
<path d="M1131.2 122.9H1089.3V164.6H1131.2V122.9Z" fill="#BEBFC3"/>
<path d="M1173.2 122.9H1131.3V164.6H1173.2V122.9Z" fill="#F3F6E6"/>
<path d="M1215.1 122.9H1173.2V164.6H1215.1V122.9Z" fill="#BEBFC3"/>
<path d="M1257 122.9H1215.1V164.6H1257V122.9Z" fill="#F3F6E6"/>
<path d="M1299 122.9H1257.1V164.6H1299V122.9Z" fill="#BEBFC3"/>
<path d="M1299 122.9V164.6H1332.2C1335.2 160.9 1338.2 157 1341 152.9V122.8H1299V122.9Z" fill="#F3F6E6"/>
<path d="M1340.9 153C1347.1 144 1352.8 134.1 1357.8 122.9H1340.9V153Z" fill="#BEBFC3"/>
<path d="M837.7 190.1C831.5 195.7 825.1 201.1 818.6 206.4H837.7V190.1Z" fill="#BEBFC3"/>
<path d="M879.7 206.4V164.7H862.2C854.6 174 846.4 182.3 837.8 190.2V206.5H879.7V206.4Z" fill="#F3F6E6"/>
<path d="M921.6 164.6H879.7V206.3H921.6V164.6Z" fill="#BEBFC3"/>
<path d="M963.5 164.6H921.6V206.3H963.5V164.6Z" fill="#F3F6E6"/>
<path d="M1005.4 164.6H963.5V206.3H1005.4V164.6Z" fill="#BEBFC3"/>
<path d="M1047.4 164.6H1005.5V206.3H1047.4V164.6Z" fill="#F3F6E6"/>
<path d="M1089.3 164.6H1047.4V206.3H1089.3V164.6Z" fill="#BEBFC3"/>
<path d="M1131.2 164.6H1089.3V206.3H1131.2V164.6Z" fill="#F3F6E6"/>
<path d="M1173.2 164.6H1131.3V206.3H1173.2V164.6Z" fill="#BEBFC3"/>
<path d="M1215.1 164.6H1173.2V206.3H1215.1V164.6Z" fill="#F3F6E6"/>
<path d="M1257 164.6H1215.1V206.3H1257V164.6Z" fill="#BEBFC3"/>
<path d="M1257.1 164.6V206.3H1288.7C1292.2 203.5 1295.6 200.6 1299 197.7V164.5L1257.1 164.6Z" fill="#F3F6E6"/>
<path d="M1299 197.8C1310.8 187.7 1322 177.1 1332.2 164.6H1299V197.8Z" fill="#BEBFC3"/>
<path d="M921.6 39.3H907.5C906.2 54.6 904.1 68.5 901.3 81H921.6V39.3Z" fill="#F3F6E6"/>
<path d="M963.5 39.3H921.6V81H963.5V39.3Z" fill="#BEBFC3"/>
<path d="M1005.4 39.3H963.5V81H1005.4V39.3Z" fill="#F3F6E6"/>
<path d="M1047.4 39.3H1005.5V81H1047.4V39.3Z" fill="#BEBFC3"/>
<path d="M1089.3 39.3H1047.4V81H1089.3V39.3Z" fill="#F3F6E6"/>
<path d="M1131.2 39.3H1089.3V81H1131.2V39.3Z" fill="#BEBFC3"/>
<path d="M1173.2 39.3H1131.3V81H1173.2V39.3Z" fill="#F3F6E6"/>
<path d="M1215.1 39.3H1173.2V81H1215.1V39.3Z" fill="#BEBFC3"/>
<path d="M1257 39.3H1215.1V81H1257V39.3Z" fill="#F3F6E6"/>
<path d="M1299 39.3H1257.1V81H1299V39.3Z" fill="#BEBFC3"/>
<path d="M1340.9 39.3H1299V81H1340.9V39.3Z" fill="#F3F6E6"/>
<path d="M1340.9 81.0999H1371.3C1374.1 68.4999 1376.2 54.6999 1377.5 39.3999H1341L1340.9 81.0999Z" fill="#BEBFC3"/>
<path d="M921.6 81.1001H901.3C897.8 96.8001 893.3 110.6 887.8 122.8H921.6V81.1001Z" fill="#BEBFC3"/>
<path d="M963.5 81.1001H921.6V122.8H963.5V81.1001Z" fill="#F3F6E6"/>
<path d="M1005.4 81.1001H963.5V122.8H1005.4V81.1001Z" fill="#BEBFC3"/>
<path d="M1047.4 81.1001H1005.5V122.8H1047.4V81.1001Z" fill="#F3F6E6"/>
<path d="M1089.3 81.1001H1047.4V122.8H1089.3V81.1001Z" fill="#BEBFC3"/>
<path d="M1131.2 81.1001H1089.3V122.8H1131.2V81.1001Z" fill="#F3F6E6"/>
<path d="M1173.2 81.1001H1131.3V122.8H1173.2V81.1001Z" fill="#BEBFC3"/>
<path d="M1215.1 81.1001H1173.2V122.8H1215.1V81.1001Z" fill="#F3F6E6"/>
<path d="M1257 81.1001H1215.1V122.8H1257V81.1001Z" fill="#BEBFC3"/>
<path d="M1299 81.1001H1257.1V122.8H1299V81.1001Z" fill="#F3F6E6"/>
<path d="M1340.9 81.1001H1299V122.8H1340.9V81.1001Z" fill="#BEBFC3"/>
<path d="M1340.9 122.8H1357.8C1363.2 110.6 1367.8 96.8001 1371.3 81.1001H1340.9V122.8Z" fill="#F3F6E6"/>
<path d="M921.6 0H909C909 14.1 908.5 27.1 907.5 39.3H921.6V0Z" fill="#BEBFC3"/>
<path d="M963.5 0H921.6V39.3H963.5V0Z" fill="#F3F6E6"/>
<path d="M1005.4 0H963.5V39.3H1005.4V0Z" fill="#BEBFC3"/>
<path d="M1047.4 0H1005.5V39.3H1047.4V0Z" fill="#F3F6E6"/>
<path d="M1089.3 0H1047.4V39.3H1089.3V0Z" fill="#BEBFC3"/>
<path d="M1131.2 0H1089.3V39.3H1131.2V0Z" fill="#F3F6E6"/>
<path d="M1173.2 0H1131.3V39.3H1173.2V0Z" fill="#BEBFC3"/>
<path d="M1215.1 0H1173.2V39.3H1215.1V0Z" fill="#F3F6E6"/>
<path d="M1257 0H1215.1V39.3H1257V0Z" fill="#BEBFC3"/>
<path d="M1299 0H1257.1V39.3H1299V0Z" fill="#F3F6E6"/>
<path d="M1340.9 0H1299V39.3H1340.9V0Z" fill="#BEBFC3"/>
<path d="M1340.9 39.3H1377.4C1378.4 27.2 1379 14.1 1378.9 0H1340.8L1340.9 39.3Z" fill="#F3F6E6"/>
<path d="M222.8 107.3C239.2 90.8999 258.8 77.7999 280.2 68.8999C301.6 59.9999 324.8 55.3999 347.9 55.3999C371.1 55.3999 394.2 59.9999 415.6 68.8999C437 77.6999 456.6 90.8999 473 107.3C489.4 123.7 502.5 143.3 511.4 164.7C520.3 186.1 524.9 209.3 524.9 232.4C524.9 255.6 520.3 278.7 511.4 300.1C502.6 321.5 489.4 341.1 473 357.5L465.9 350.4C481.4 334.9 493.8 316.4 502.1 296.2C510.5 276 514.8 254.2 514.8 232.3C514.8 210.4 510.5 188.6 502.1 168.4C493.8 148.2 481.4 129.7 465.9 114.2C450.4 98.6999 431.9 86.2999 411.7 77.9999C391.5 69.5999 369.7 65.2999 347.8 65.2999C325.9 65.2999 304.1 69.5999 283.9 77.9999C263.7 86.2999 245.2 98.6999 229.7 114.2L222.8 107.3Z" fill="white"/>
<path d="M473.1 357.7C404 426.8 291.9 426.8 222.8 357.7C153.7 288.6 153.7 176.5 222.8 107.4" fill="white"/>
<path d="M1389 0L1388.8 11.8L1388.7 17.7C1388.7 19.7 1388.5 21.6 1388.4 23.6L1387.8 35.4L1386.7 47.2C1385 62.9 1382.5 78.6 1378.4 94.1C1374.2 109.6 1368.6 124.8 1361 139.2C1353.5 153.6 1343.9 166.9 1333.1 178.9C1327.8 185 1322 190.5 1316.2 196C1313.3 198.6 1310.3 201.3 1307.3 203.9C1304.3 206.4 1301.3 209 1298.3 211.5C1286.3 221.4 1274.1 230.8 1262.5 240.5C1239.3 259.9 1218.5 281 1204 306.9L1195.4 301.7L1201.4 291.8L1202.1 290.6L1202.9 289.4L1204.6 287L1207.9 282.3C1210.2 279.2 1212.6 276.2 1215 273.2C1217.5 270.3 1220 267.3 1222.5 264.5C1232.8 253.1 1244.2 242.7 1256 232.8C1267.8 222.9 1280 213.5 1291.9 203.8C1294.9 201.4 1297.8 198.9 1300.7 196.4C1303.6 193.9 1306.5 191.3 1309.3 188.7C1314.9 183.4 1320.4 178.1 1325.5 172.3C1335.8 160.9 1344.9 148.3 1352 134.6C1359.2 121 1364.6 106.5 1368.6 91.6C1372.6 76.7 1375 61.5 1376.6 46.2L1377.7 34.7L1378.3 23.2C1378.4 21.3 1378.5 19.4 1378.6 17.4L1378.7 11.6L1379 0H1389Z" fill="#383A48"/>
<g clip-path="url(#clip0)">
<path d="M1556.05 114.962L1539.02 115.606C1537.82 112.697 1536.36 109.849 1534.63 107.094C1532.9 104.339 1530.97 101.79 1528.87 99.4462L1536.83 84.3572C1539.93 78.4875 1537.68 71.2164 1531.82 68.1167L1518.76 61.2102C1512.89 58.1105 1505.63 60.3561 1502.54 66.2259L1494.57 81.321C1488.29 80.476 1481.84 80.6887 1475.52 82.0275L1466.45 67.5901C1462.92 61.971 1455.51 60.28 1449.9 63.8138L1437.39 71.6873C1431.78 75.2207 1430.09 82.6404 1433.62 88.2596L1442.69 102.697C1438.74 107.822 1435.76 113.546 1433.79 119.585L1416.76 120.229C1410.13 120.48 1404.96 126.06 1405.21 132.693L1405.77 147.473C1406.02 154.106 1411.59 159.28 1418.22 159.03L1435.25 158.386C1436.45 161.295 1437.91 164.143 1439.64 166.898C1441.37 169.653 1443.3 172.202 1445.4 174.546L1437.44 189.635C1434.35 195.504 1436.59 202.776 1442.45 205.875L1455.52 212.782C1461.38 215.881 1468.64 213.636 1471.74 207.766L1479.7 192.671C1485.99 193.516 1492.43 193.303 1498.76 191.964L1507.82 206.402C1511.35 212.021 1518.76 213.712 1524.38 210.178L1536.88 202.305C1542.5 198.771 1544.19 191.352 1540.66 185.732L1531.59 171.295C1535.53 166.17 1538.52 160.446 1540.48 154.407L1557.52 153.763C1564.14 153.512 1569.31 147.932 1569.06 141.299L1568.5 126.519C1568.25 119.886 1562.68 114.712 1556.05 114.962ZM1500.49 158.252C1488.76 165.634 1473.28 162.102 1465.91 150.362C1458.53 138.623 1462.06 123.122 1473.79 115.74C1485.51 108.358 1500.99 111.89 1508.37 123.63C1515.74 135.369 1512.21 150.87 1500.49 158.252Z" fill="#383A48"/>
<path d="M1461.11 216C1458.89 216 1456.69 215.459 1454.67 214.392L1441.6 207.485C1434.86 203.922 1432.28 195.533 1435.83 188.784L1443.21 174.804C1441.34 172.623 1439.63 170.294 1438.1 167.867C1436.58 165.439 1435.22 162.883 1434.07 160.253L1418.29 160.85C1414.6 160.99 1411.07 159.682 1408.37 157.169C1405.66 154.655 1404.09 151.236 1403.95 147.542L1403.39 132.762C1403.11 125.137 1409.07 118.698 1416.69 118.41L1432.47 117.813C1434.38 112.35 1437.07 107.245 1440.48 102.604L1432.08 89.2293C1428.02 82.7689 1429.97 74.2081 1436.42 70.1459L1448.93 62.2728C1452.05 60.3043 1455.76 59.6728 1459.36 60.4948C1462.96 61.316 1466.02 63.4917 1467.99 66.6212L1476.39 79.9963C1482.05 78.9281 1487.81 78.715 1493.55 79.3604L1500.93 65.3757C1504.49 58.6276 1512.87 56.0367 1519.61 59.6003L1532.67 66.5069C1539.41 70.0705 1542 78.4597 1538.44 85.2079L1531.06 99.1885C1532.93 101.37 1534.65 103.698 1536.17 106.125C1537.7 108.553 1539.05 111.109 1540.2 113.74L1555.99 113.143L1556.05 114.963L1555.99 113.143C1563.6 112.858 1570.03 118.825 1570.32 126.451L1570.88 141.231C1571.17 148.857 1565.2 155.295 1557.59 155.583L1541.8 156.18C1539.89 161.644 1537.21 166.749 1533.79 171.389L1542.2 184.764C1544.16 187.893 1544.79 191.602 1543.97 195.206C1543.15 198.81 1540.98 201.879 1537.85 203.847L1525.35 211.721C1522.22 213.689 1518.52 214.32 1514.92 213.499C1511.31 212.678 1508.25 210.502 1506.28 207.372L1497.88 193.997C1492.23 195.065 1486.47 195.279 1480.72 194.633L1473.35 208.617C1471.62 211.886 1468.73 214.288 1465.2 215.378C1463.85 215.794 1462.48 216 1461.11 216ZM1435.25 156.565C1435.99 156.565 1436.65 157.007 1436.93 157.69C1438.11 160.544 1439.54 163.315 1441.18 165.928C1442.82 168.541 1444.7 171.031 1446.76 173.33C1447.26 173.898 1447.37 174.722 1447.01 175.396L1439.05 190.485C1436.43 195.458 1438.33 201.639 1443.3 204.265L1456.37 211.172C1458.77 212.444 1461.53 212.702 1464.13 211.897C1466.73 211.094 1468.86 209.324 1470.13 206.916L1478.09 191.82C1478.45 191.146 1479.19 190.765 1479.94 190.866C1486.12 191.696 1492.32 191.466 1498.38 190.183C1499.12 190.024 1499.89 190.35 1500.3 190.995L1509.36 205.433C1510.81 207.739 1513.07 209.342 1515.72 209.947C1518.38 210.552 1521.11 210.087 1523.41 208.637L1535.91 200.764C1538.22 199.314 1539.82 197.052 1540.42 194.397C1541.03 191.741 1540.56 189.008 1539.12 186.702L1530.05 172.265C1529.64 171.619 1529.68 170.789 1530.15 170.184C1533.93 165.272 1536.82 159.775 1538.75 153.845C1538.99 153.119 1539.65 152.617 1540.41 152.588L1557.45 151.944C1563.06 151.732 1567.46 146.988 1567.24 141.369L1566.69 126.589C1566.47 120.97 1561.73 116.569 1556.12 116.783L1539.09 117.427C1538.33 117.456 1537.63 117.007 1537.34 116.303C1536.16 113.449 1534.73 110.677 1533.09 108.065C1531.45 105.453 1529.58 102.962 1527.52 100.663C1527.01 100.095 1526.91 99.2708 1527.26 98.5971L1535.22 83.5082C1537.85 78.5358 1535.94 72.3544 1530.97 69.7285L1517.91 62.822C1512.94 60.1965 1506.77 62.1052 1504.14 67.0779L1496.18 82.1712C1495.83 82.8464 1495.09 83.227 1494.33 83.1258C1488.16 82.2961 1481.95 82.5263 1475.89 83.809C1475.15 83.9667 1474.38 83.6426 1473.98 82.9968L1464.91 68.5595C1463.46 66.2534 1461.2 64.6502 1458.55 64.0449C1455.9 63.44 1453.17 63.9051 1450.86 65.3553L1438.36 73.2288C1433.6 76.2221 1432.17 82.53 1435.16 87.2903L1444.23 101.728C1444.63 102.373 1444.59 103.204 1444.13 103.808C1440.35 108.721 1437.45 114.218 1435.52 120.148C1435.29 120.874 1434.63 121.376 1433.86 121.404L1416.82 122.049C1411.21 122.261 1406.82 127.005 1407.03 132.624L1407.59 147.404C1407.69 150.126 1408.85 152.645 1410.84 154.497C1412.84 156.349 1415.43 157.313 1418.15 157.21L1435.18 156.565C1435.21 156.565 1435.23 156.565 1435.25 156.565ZM1487.19 163.936C1485.18 163.936 1483.16 163.71 1481.16 163.253C1474.16 161.655 1468.19 157.421 1464.37 151.332C1456.47 138.761 1460.26 122.104 1472.82 114.199C1485.37 106.294 1502.01 110.09 1509.91 122.66C1513.73 128.75 1514.96 135.966 1513.36 142.98C1511.77 149.993 1507.54 155.964 1501.46 159.793C1497.11 162.527 1492.2 163.936 1487.19 163.936ZM1487.1 113.714C1482.87 113.714 1478.59 114.866 1474.75 117.282C1463.9 124.117 1460.62 138.522 1467.45 149.393C1470.75 154.659 1475.91 158.32 1481.97 159.702C1488.03 161.084 1494.26 160.021 1499.52 156.71C1504.78 153.399 1508.44 148.235 1509.82 142.17C1511.2 136.105 1510.14 129.865 1506.83 124.599C1502.41 117.571 1494.84 113.714 1487.1 113.714Z" fill="#383A48"/>
<path d="M1547.78 114.962L1530.75 115.606C1529.55 112.697 1528.09 109.849 1526.36 107.094C1524.63 104.339 1522.7 101.79 1520.6 99.4462L1528.56 84.3572C1531.65 78.4875 1529.41 71.2164 1523.55 68.1167L1510.48 61.2102C1504.62 58.1105 1497.36 60.3561 1494.26 66.2259L1486.3 81.321C1480.01 80.476 1473.57 80.6887 1467.24 82.0275L1458.18 67.5901C1454.65 61.971 1447.24 60.28 1441.62 63.8138L1429.12 71.6873C1423.5 75.2207 1421.81 82.6404 1425.34 88.2596L1434.41 102.697C1430.47 107.822 1427.48 113.546 1425.52 119.585L1408.48 120.229C1401.86 120.48 1396.69 126.06 1396.94 132.693L1397.5 147.473C1397.75 154.106 1403.32 159.28 1409.95 159.03L1426.98 158.386C1428.18 161.295 1429.64 164.143 1431.37 166.898C1433.1 169.653 1435.03 172.202 1437.13 174.546L1429.17 189.635C1426.07 195.504 1428.32 202.776 1434.18 205.875L1447.24 212.782C1453.11 215.881 1460.37 213.636 1463.46 207.766L1471.43 192.671C1477.71 193.516 1484.16 193.303 1490.48 191.964L1499.55 206.402C1503.08 212.021 1510.49 213.712 1516.1 210.178L1528.61 202.305C1534.22 198.771 1535.91 191.352 1532.38 185.732L1523.31 171.295C1527.26 166.17 1530.24 160.446 1532.21 154.407L1549.24 153.763C1555.87 153.512 1561.04 147.932 1560.79 141.299L1560.23 126.519C1559.98 119.886 1554.41 114.712 1547.78 114.962ZM1492.21 158.252C1480.49 165.634 1465.01 162.102 1457.63 150.362C1450.26 138.623 1453.79 123.122 1465.51 115.74C1477.24 108.358 1492.72 111.89 1500.09 123.63C1507.47 135.369 1503.94 150.87 1492.21 158.252Z" fill="#F3F6E7"/>
<path d="M1452.83 216C1450.61 216 1448.41 215.459 1446.39 214.392L1433.33 207.485C1426.59 203.922 1424 195.532 1427.56 188.784L1434.93 174.804C1433.07 172.623 1431.35 170.294 1429.83 167.867C1428.3 165.439 1426.95 162.883 1425.79 160.253L1410.01 160.85C1406.32 160.989 1402.8 159.682 1400.09 157.169C1397.39 154.655 1395.82 151.236 1395.68 147.542L1395.12 132.762C1394.83 125.137 1400.8 118.698 1408.41 118.41L1424.2 117.813C1426.11 112.35 1428.79 107.244 1432.21 102.604L1423.8 89.2289C1421.84 86.0994 1421.21 82.3912 1422.03 78.7868C1422.85 75.1823 1425.02 72.1136 1428.15 70.1455L1440.65 62.272C1443.78 60.3043 1447.48 59.6721 1451.08 60.494C1454.68 61.3153 1457.75 63.491 1459.72 66.6205L1468.12 79.9955C1473.77 78.9273 1479.53 78.7143 1485.28 79.3596L1492.65 65.375C1496.21 58.6268 1504.59 56.0359 1511.33 59.5996L1524.4 66.5062C1531.14 70.0698 1533.72 78.459 1530.17 85.2071L1522.79 99.1878C1524.66 101.369 1526.37 103.697 1527.9 106.125C1529.42 108.552 1530.78 111.108 1531.93 113.739L1547.71 113.142C1555.33 112.862 1561.76 118.824 1562.05 126.45L1562.6 141.23C1562.89 148.856 1556.93 155.294 1549.31 155.582L1533.53 156.179C1531.62 161.643 1528.93 166.748 1525.52 171.388L1533.92 184.763C1535.89 187.893 1536.52 191.601 1535.7 195.205C1534.88 198.81 1532.7 201.878 1529.58 203.847L1517.07 211.72C1513.95 213.688 1510.24 214.32 1506.64 213.498C1503.04 212.677 1499.98 210.501 1498.01 207.372L1489.61 193.997C1483.95 195.064 1478.19 195.278 1472.45 194.632L1465.07 208.617C1463.35 211.886 1460.46 214.287 1456.93 215.378C1455.58 215.794 1454.2 216 1452.83 216ZM1426.98 156.565C1427.71 156.565 1428.38 157.007 1428.66 157.69C1429.84 160.544 1431.26 163.315 1432.91 165.928C1434.55 168.541 1436.42 171.032 1438.48 173.33C1438.99 173.898 1439.09 174.722 1438.74 175.396L1430.78 190.485C1428.15 195.458 1430.06 201.639 1435.03 204.265L1448.09 211.172C1453.06 213.797 1459.23 211.888 1461.86 206.916L1469.82 191.82C1470.17 191.146 1470.91 190.765 1471.67 190.866C1477.84 191.696 1484.04 191.466 1490.11 190.183C1490.85 190.024 1491.62 190.35 1492.02 190.995L1501.09 205.433C1502.54 207.739 1504.8 209.342 1507.45 209.947C1510.1 210.552 1512.83 210.087 1515.14 208.637L1527.64 200.764C1529.94 199.314 1531.55 197.052 1532.15 194.397C1532.76 191.741 1532.29 189.008 1530.84 186.702L1521.77 172.265C1521.37 171.619 1521.41 170.789 1521.87 170.184C1525.65 165.272 1528.55 159.775 1530.48 153.845C1530.71 153.119 1531.37 152.617 1532.14 152.588L1549.18 151.944C1554.79 151.732 1559.18 146.988 1558.97 141.368L1558.41 126.588C1558.2 120.969 1553.46 116.569 1547.85 116.783L1530.82 117.427C1530.06 117.458 1529.36 117.007 1529.07 116.302C1527.89 113.449 1526.46 110.677 1524.82 108.065C1523.18 105.452 1521.3 102.962 1519.24 100.662C1518.74 100.095 1518.63 99.2705 1518.99 98.5967L1526.95 83.5078C1529.57 78.5355 1527.67 72.354 1522.7 69.7282L1509.63 62.8201C1504.67 60.1947 1498.49 62.1034 1495.87 67.0761L1487.91 82.1712C1487.55 82.8461 1486.81 83.227 1486.06 83.1258C1479.88 82.2961 1473.68 82.5263 1467.62 83.809C1466.87 83.9667 1466.11 83.6426 1465.7 82.9968L1456.64 68.5595C1455.19 66.2534 1452.93 64.6502 1450.28 64.0449C1447.62 63.4393 1444.89 63.9047 1442.59 65.3553L1430.08 73.2288C1427.78 74.6787 1426.18 76.9399 1425.58 79.5956C1424.97 82.2513 1425.44 84.9843 1426.88 87.29L1435.95 101.727C1436.36 102.373 1436.32 103.204 1435.85 103.808C1432.07 108.721 1429.18 114.218 1427.25 120.148C1427.01 120.874 1426.35 121.375 1425.59 121.404L1408.55 122.048C1402.94 122.261 1398.54 127.005 1398.76 132.624L1399.31 147.404C1399.42 150.126 1400.57 152.645 1402.57 154.497C1404.56 156.349 1407.16 157.314 1409.88 157.209L1426.91 156.565C1426.93 156.565 1426.95 156.565 1426.98 156.565ZM1547.78 114.962H1547.78H1547.78ZM1478.91 163.936C1476.91 163.936 1474.89 163.71 1472.89 163.253C1465.88 161.655 1459.92 157.421 1456.09 151.332C1448.2 138.761 1451.99 122.104 1464.54 114.199C1477.1 106.294 1493.74 110.09 1501.63 122.66C1505.46 128.75 1506.69 135.966 1505.09 142.98C1503.49 149.993 1499.26 155.964 1493.18 159.793C1488.84 162.527 1483.92 163.936 1478.91 163.936ZM1478.83 113.714C1474.6 113.714 1470.32 114.866 1466.48 117.282C1455.62 124.118 1452.34 138.522 1459.17 149.393C1462.48 154.659 1467.64 158.32 1473.69 159.702C1479.75 161.084 1485.99 160.021 1491.25 156.71C1496.51 153.399 1500.16 148.235 1501.54 142.17C1502.92 136.105 1501.86 129.865 1498.55 124.599C1494.14 117.571 1486.56 113.714 1478.83 113.714Z" fill="#383A48"/>
</g>
<path d="M1286.8 543C1289.56 543 1291.8 540.761 1291.8 538C1291.8 535.239 1289.56 533 1286.8 533C1284.04 533 1281.8 535.239 1281.8 538C1281.8 540.761 1284.04 543 1286.8 543Z" fill="#383A48"/>
<path d="M1331.8 543C1334.56 543 1336.8 540.761 1336.8 538C1336.8 535.239 1334.56 533 1331.8 533C1329.04 533 1326.8 535.239 1326.8 538C1326.8 540.761 1329.04 543 1331.8 543Z" fill="#383A48"/>
<path d="M1376.8 543C1379.56 543 1381.8 540.761 1381.8 538C1381.8 535.239 1379.56 533 1376.8 533C1374.04 533 1371.8 535.239 1371.8 538C1371.8 540.761 1374.04 543 1376.8 543Z" fill="#383A48"/>
<path d="M1421.8 543C1424.56 543 1426.8 540.761 1426.8 538C1426.8 535.239 1424.56 533 1421.8 533C1419.04 533 1416.8 535.239 1416.8 538C1416.8 540.761 1419.04 543 1421.8 543Z" fill="#383A48"/>
<path d="M1286.8 586.5C1289.56 586.5 1291.8 584.261 1291.8 581.5C1291.8 578.739 1289.56 576.5 1286.8 576.5C1284.04 576.5 1281.8 578.739 1281.8 581.5C1281.8 584.261 1284.04 586.5 1286.8 586.5Z" fill="#383A48"/>
<path d="M1331.8 586.5C1334.56 586.5 1336.8 584.261 1336.8 581.5C1336.8 578.739 1334.56 576.5 1331.8 576.5C1329.04 576.5 1326.8 578.739 1326.8 581.5C1326.8 584.261 1329.04 586.5 1331.8 586.5Z" fill="#383A48"/>
<path d="M1376.8 586.5C1379.56 586.5 1381.8 584.261 1381.8 581.5C1381.8 578.739 1379.56 576.5 1376.8 576.5C1374.04 576.5 1371.8 578.739 1371.8 581.5C1371.8 584.261 1374.04 586.5 1376.8 586.5Z" fill="#383A48"/>
<path d="M1421.8 586.5C1424.56 586.5 1426.8 584.261 1426.8 581.5C1426.8 578.739 1424.56 576.5 1421.8 576.5C1419.04 576.5 1416.8 578.739 1416.8 581.5C1416.8 584.261 1419.04 586.5 1421.8 586.5Z" fill="#383A48"/>
<path d="M1286.8 630C1289.56 630 1291.8 627.761 1291.8 625C1291.8 622.239 1289.56 620 1286.8 620C1284.04 620 1281.8 622.239 1281.8 625C1281.8 627.761 1284.04 630 1286.8 630Z" fill="#383A48"/>
<path d="M1331.8 630C1334.56 630 1336.8 627.761 1336.8 625C1336.8 622.239 1334.56 620 1331.8 620C1329.04 620 1326.8 622.239 1326.8 625C1326.8 627.761 1329.04 630 1331.8 630Z" fill="#383A48"/>
<path d="M1376.8 630C1379.56 630 1381.8 627.761 1381.8 625C1381.8 622.239 1379.56 620 1376.8 620C1374.04 620 1371.8 622.239 1371.8 625C1371.8 627.761 1374.04 630 1376.8 630Z" fill="#383A48"/>
<path d="M1421.8 630C1424.56 630 1426.8 627.761 1426.8 625C1426.8 622.239 1424.56 620 1421.8 620C1419.04 620 1416.8 622.239 1416.8 625C1416.8 627.761 1419.04 630 1421.8 630Z" fill="#383A48"/>
<path d="M1286.8 673.5C1289.56 673.5 1291.8 671.261 1291.8 668.5C1291.8 665.739 1289.56 663.5 1286.8 663.5C1284.04 663.5 1281.8 665.739 1281.8 668.5C1281.8 671.261 1284.04 673.5 1286.8 673.5Z" fill="#383A48"/>
<path d="M1331.8 673.5C1334.56 673.5 1336.8 671.261 1336.8 668.5C1336.8 665.739 1334.56 663.5 1331.8 663.5C1329.04 663.5 1326.8 665.739 1326.8 668.5C1326.8 671.261 1329.04 673.5 1331.8 673.5Z" fill="#383A48"/>
<path d="M1376.8 673.5C1379.56 673.5 1381.8 671.261 1381.8 668.5C1381.8 665.739 1379.56 663.5 1376.8 663.5C1374.04 663.5 1371.8 665.739 1371.8 668.5C1371.8 671.261 1374.04 673.5 1376.8 673.5Z" fill="#383A48"/>
<path d="M1421.8 673.5C1424.56 673.5 1426.8 671.261 1426.8 668.5C1426.8 665.739 1424.56 663.5 1421.8 663.5C1419.04 663.5 1416.8 665.739 1416.8 668.5C1416.8 671.261 1419.04 673.5 1421.8 673.5Z" fill="#383A48"/>
<path d="M694.8 55.5L977.1 337.8" stroke="white" stroke-width="10" stroke-miterlimit="10" stroke-linecap="round"/>
<path d="M99.5 310.5H0.5V409.5L99.5 310.5Z" fill="#E5EDFF"/>
<path d="M38 646.3L49 594.7L63.3 583H97.5L106.7 594.7L95.7 646.3L81.5 658H47.2L38 646.3ZM55.8 641L58.5 644.4H75L80.3 640L86.2 612.4L55.8 641ZM88.8 600L86.2 596.6H69.7L64.3 601L58.5 628.5L88.8 600Z" fill="#AAC6FC"/>
<path d="M107.3 657.5L110.2 643.9H120.7L130.6 597.2H119.9L122.8 583.6H150.2L137.4 643.9H148.1L145.2 657.5H107.3Z" fill="#AAC6FC"/>
<path d="M154.9 657.5L157.8 643.9H168.3L178.2 597.2H167.5L170.4 583.6H197.8L185 643.9H195.5L192.6 657.5H154.9Z" fill="#AAC6FC"/>
<path d="M202.4 657.5L205.3 643.9H215.8L225.7 597.2H215L217.9 583.6H245.3L232.5 643.9H243.1L240.2 657.5H202.4Z" fill="#AAC6FC"/>
<path d="M253.2 646.3L264.2 594.7L278.5 583H312.7L321.9 594.7L310.9 646.3L296.7 658H262.4L253.2 646.3ZM271.1 641L273.8 644.4H290.3L295.6 640L301.5 612.4L271.1 641ZM304.1 600L301.5 596.6H285L279.6 601L273.8 628.5L304.1 600Z" fill="#AAC6FC"/>
<path d="M325.8 646.3L336.8 594.7L351.1 583H385.3L394.5 594.7L383.5 646.3L369.3 658H335.1L325.8 646.3ZM343.7 641L346.4 644.4H362.9L368.2 640L374.1 612.4L343.7 641ZM376.7 600L374.1 596.6H357.6L352.2 601L346.4 628.5L376.7 600Z" fill="#AAC6FC"/>
<path d="M395.2 657.5L398.1 643.9H408.6L418.5 597.2H407.8L410.7 583.6H438.1L425.3 643.9H435.8L432.9 657.5H395.2Z" fill="#AAC6FC"/>
<path d="M442.7 657.5L445.6 643.9H456.1L466 597.2H455.3L458.2 583.6H485.6L472.8 643.9H483.3L480.4 657.5H442.7Z" fill="#AAC6FC"/>
<path d="M493.5 646.3L504.5 594.7L518.8 583H553L562.2 594.7L551.2 646.3L537.1 658H502.8L493.5 646.3ZM511.4 641L514.1 644.4H530.6L535.9 640L541.8 612.4L511.4 641ZM544.4 600L541.8 596.6H525.3L519.9 601L514.1 628.5L544.4 600Z" fill="#AAC6FC"/>
<path d="M38 785.5L40.9 771.9H51.4L61.3 725.2H50.6L53.5 711.6H80.9L68.1 771.9H78.6L75.7 785.5H38Z" fill="#AAC6FC"/>
<path d="M88.8 774.3L99.8 722.7L114.1 711H148.3L157.5 722.7L146.5 774.3L132.3 786H98.0001L88.8 774.3ZM106.7 769L109.4 772.4H125.9L131.2 768L137.1 740.4L106.7 769ZM139.7 728L137.1 724.6H120.6L115.2 729L109.4 756.5L139.7 728Z" fill="#AAC6FC"/>
<path d="M158.2 785.5L161.1 771.9H171.6L181.5 725.2H170.8L173.7 711.6H201.1L188.3 771.9H198.8L195.9 785.5H158.2Z" fill="#AAC6FC"/>
<path d="M209 774.3L220 722.7L234.3 711H268.5L277.7 722.7L266.7 774.3L252.5 786H218.2L209 774.3ZM226.8 769L229.5 772.4H246L251.3 768L257.2 740.4L226.8 769ZM259.8 728L257.2 724.6H240.7L235.3 729L229.5 756.5L259.8 728Z" fill="#AAC6FC"/>
<path d="M281.6 774.3L292.6 722.7L306.9 711H341.1L350.3 722.7L339.3 774.3L325.1 786H290.8L281.6 774.3ZM299.5 769L302.2 772.4H318.7L324 768L329.9 740.4L299.5 769ZM332.5 728L329.9 724.6H313.4L308 729L302.2 756.5L332.5 728Z" fill="#AAC6FC"/>
<path d="M38 879.3L49 827.7L63.3 816H97.5L106.7 827.7L95.7 879.3L81.5 891H47.2L38 879.3ZM55.8 874L58.5 877.4H75L80.3 873L86.2 845.4L55.8 874ZM88.8 833L86.2 829.6H69.7L64.3 834L58.5 861.5L88.8 833Z" fill="#AAC6FC"/>
<path d="M107.3 890.4L110.2 876.8H120.7L130.6 830.1H119.9L122.8 816.5H150.2L137.4 876.8H148.1L145.2 890.4H107.3Z" fill="#AAC6FC"/>
<path d="M154.9 890.4L157.8 876.8H168.3L178.1 830.1H167.4L170.3 816.5H197.7L184.9 876.8H195.4L192.5 890.4H154.9Z" fill="#AAC6FC"/>
<defs>
<clipPath id="clip0">
<rect width="176" height="158" fill="white" transform="translate(1395 58)"/>
</clipPath>
</defs>
</svg>
