<svg width="1524" height="869" fill="none" xmlns="http://www.w3.org/2000/svg"><path d="M1123.5 12.9c-.5-2.3-2.5-4-4.9-4H900.5c-2.8 0-5 2.2-5 5v352.2c0 1.8 1 3.5 2.5 4.4.8.4 1.6.6 2.5.6.9 0 1.8-.2 2.6-.7 1-.6 26-16 51.3-46.9 23.4-28.6 51.3-76.3 51.6-141.6.2-50.9 14.1-91 41.4-119.3 23-23.8 50.4-34.9 70.4-42.9l2.7-1.1c2.1-1 3.4-3.3 3-5.7z" fill="#E5EDFF"/><path d="M900.5 8.9H159.8c-2.8 0-5 2.2-5 5V540c0 2.8 2.2 5 5 5h740.6c2.8 0 5-2.2 5-5V13.9c.1-2.8-2.2-5-4.9-5z" fill="#383A48"/><path d="M850.1 56.1H109.5v526.1h740.6V56.1z" fill="#AAC6FC"/><path d="M850.2 587.2H109.5c-2.8 0-5-2.2-5-5V56.1c0-2.8 2.2-5 5-5h740.6c2.8 0 5 2.2 5 5v526.1c.1 2.7-2.2 5-4.9 5zm-735.7-10h730.6V61.1H114.5v516.1z" fill="#383A48"/><path d="M830.8 76a5 5 0 100-10 5 5 0 000 10zM830.8 100.7a5 5 0 100-10 5 5 0 000 10zM830.8 125.3a5 5 0 10-.001-10.001 5 5 0 00.001 10.001zM830.8 150a5 5 0 10-.001-10.001A5 5 0 00830.8 150zM830.8 174.7a5 5 0 10-.001-10.001 5 5 0 00.001 10.001zM830.8 199.3a5 5 0 10-.001-10.001 5 5 0 00.001 10.001zM830.8 224a5 5 0 10-.001-10.001A5 5 0 00830.8 224zM830.8 248.7a5 5 0 10-.001-10.001 5 5 0 00.001 10.001zM830.8 273.3a5 5 0 10-.001-10.001 5 5 0 00.001 10.001zM830.8 298a5 5 0 10-.001-10.001A5 5 0 00830.8 298zM830.8 322.7a5 5 0 10-.001-10.001 5 5 0 00.001 10.001zM830.8 347.3a5 5 0 10-.001-10.001 5 5 0 00.001 10.001zM830.8 372a5 5 0 10-.001-10.001A5 5 0 00830.8 372zM830.8 396.7a5 5 0 10-.001-10.001 5 5 0 00.001 10.001zM830.8 421.3a5 5 0 10-.001-10.001 5 5 0 00.001 10.001zM830.8 446a5 5 0 10-.001-10.001A5 5 0 00830.8 446zM830.8 470.7a5 5 0 10-.001-10.001 5 5 0 00.001 10.001zM830.8 495.3a5 5 0 10-.001-10.001 5 5 0 00.001 10.001zM830.8 520a5 5 0 10-.001-10.001A5 5 0 00830.8 520zM830.8 544.7a5 5 0 10-.001-10.001 5 5 0 00.001 10.001zM830.8 569.3a5 5 0 10-.001-10.001 5 5 0 00.001 10.001zM806.1 76a5 5 0 100-10 5 5 0 000 10zM806.1 100.7a5 5 0 100-10 5 5 0 000 10zM806.1 125.3a5 5 0 10-.001-10.001 5 5 0 00.001 10.001zM806.1 150a5 5 0 10-.001-10.001A5 5 0 00806.1 150zM806.1 174.7a5 5 0 10-.001-10.001 5 5 0 00.001 10.001zM806.1 199.3a5 5 0 10-.001-10.001 5 5 0 00.001 10.001zM806.1 224a5 5 0 10-.001-10.001A5 5 0 00806.1 224zM806.1 248.7a5 5 0 10-.001-10.001 5 5 0 00.001 10.001zM806.1 273.3a5 5 0 10-.001-10.001 5 5 0 00.001 10.001zM806.1 298a5 5 0 10-.001-10.001A5 5 0 00806.1 298zM806.1 322.7a5 5 0 10-.001-10.001 5 5 0 00.001 10.001zM806.1 347.3a5 5 0 10-.001-10.001 5 5 0 00.001 10.001zM806.1 372a5 5 0 10-.001-10.001A5 5 0 00806.1 372zM806.1 396.7a5 5 0 10-.001-10.001 5 5 0 00.001 10.001zM806.1 421.3a5 5 0 10-.001-10.001 5 5 0 00.001 10.001zM806.1 446a5 5 0 10-.001-10.001A5 5 0 00806.1 446zM806.1 470.7a5 5 0 10-.001-10.001 5 5 0 00.001 10.001zM806.1 495.3a5 5 0 10-.001-10.001 5 5 0 00.001 10.001zM806.1 520a5 5 0 10-.001-10.001A5 5 0 00806.1 520zM806.1 544.7a5 5 0 10-.001-10.001 5 5 0 00.001 10.001zM806.1 569.3a5 5 0 10-.001-10.001 5 5 0 00.001 10.001zM781.5 76a5 5 0 100-10 5 5 0 000 10zM781.5 100.7a5 5 0 100-10 5 5 0 000 10zM781.5 125.3a5 5 0 10-.001-10.001 5 5 0 00.001 10.001zM781.5 150a5 5 0 10-.001-10.001A5 5 0 00781.5 150zM781.5 174.7a5 5 0 10-.001-10.001 5 5 0 00.001 10.001zM781.5 199.3a5 5 0 10-.001-10.001 5 5 0 00.001 10.001zM781.5 224a5 5 0 10-.001-10.001A5 5 0 00781.5 224zM781.5 248.7a5 5 0 10-.001-10.001 5 5 0 00.001 10.001zM781.5 273.3a5 5 0 10-.001-10.001 5 5 0 00.001 10.001zM781.5 298a5 5 0 10-.001-10.001A5 5 0 00781.5 298zM781.5 322.7a5 5 0 10-.001-10.001 5 5 0 00.001 10.001zM781.5 347.3a5 5 0 10-.001-10.001 5 5 0 00.001 10.001zM781.5 372a5 5 0 10-.001-10.001A5 5 0 00781.5 372zM781.5 396.7a5 5 0 10-.001-10.001 5 5 0 00.001 10.001zM781.5 421.3a5 5 0 10-.001-10.001 5 5 0 00.001 10.001zM781.5 446a5 5 0 10-.001-10.001A5 5 0 00781.5 446zM781.5 470.7a5 5 0 10-.001-10.001 5 5 0 00.001 10.001zM781.5 495.3a5 5 0 10-.001-10.001 5 5 0 00.001 10.001zM781.5 520a5 5 0 10-.001-10.001A5 5 0 00781.5 520zM781.5 544.7a5 5 0 10-.001-10.001 5 5 0 00.001 10.001zM781.5 569.3a5 5 0 10-.001-10.001 5 5 0 00.001 10.001zM756.8 76a5 5 0 100-10 5 5 0 000 10zM756.8 100.7a5 5 0 100-10 5 5 0 000 10zM756.8 125.3a5 5 0 10-.001-10.001 5 5 0 00.001 10.001zM756.8 150a5 5 0 10-.001-10.001A5 5 0 00756.8 150zM756.8 174.7a5 5 0 10-.001-10.001 5 5 0 00.001 10.001zM756.8 199.3a5 5 0 10-.001-10.001 5 5 0 00.001 10.001zM756.8 224a5 5 0 10-.001-10.001A5 5 0 00756.8 224zM756.8 248.7a5 5 0 10-.001-10.001 5 5 0 00.001 10.001zM756.8 273.3a5 5 0 10-.001-10.001 5 5 0 00.001 10.001zM756.8 298a5 5 0 10-.001-10.001A5 5 0 00756.8 298zM756.8 322.7a5 5 0 10-.001-10.001 5 5 0 00.001 10.001zM756.8 347.3a5 5 0 10-.001-10.001 5 5 0 00.001 10.001zM756.8 372a5 5 0 10-.001-10.001A5 5 0 00756.8 372zM756.8 396.7a5 5 0 10-.001-10.001 5 5 0 00.001 10.001zM756.8 421.3a5 5 0 10-.001-10.001 5 5 0 00.001 10.001zM756.8 446a5 5 0 10-.001-10.001A5 5 0 00756.8 446zM756.8 470.7a5 5 0 10-.001-10.001 5 5 0 00.001 10.001zM756.8 495.3a5 5 0 10-.001-10.001 5 5 0 00.001 10.001zM756.8 520a5 5 0 10-.001-10.001A5 5 0 00756.8 520zM756.8 544.7a5 5 0 10-.001-10.001 5 5 0 00.001 10.001zM756.8 569.3a5 5 0 10-.001-10.001 5 5 0 00.001 10.001zM732.1 76a5 5 0 100-10 5 5 0 000 10zM732.1 100.7a5 5 0 100-10 5 5 0 000 10zM732.1 125.3a5 5 0 10-.001-10.001 5 5 0 00.001 10.001zM732.1 150a5 5 0 10-.001-10.001A5 5 0 00732.1 150zM732.1 174.7a5 5 0 10-.001-10.001 5 5 0 00.001 10.001zM732.1 199.3a5 5 0 10-.001-10.001 5 5 0 00.001 10.001zM732.1 224a5 5 0 10-.001-10.001A5 5 0 00732.1 224zM732.1 248.7a5 5 0 10-.001-10.001 5 5 0 00.001 10.001zM732.1 273.3a5 5 0 10-.001-10.001 5 5 0 00.001 10.001zM732.1 298a5 5 0 10-.001-10.001A5 5 0 00732.1 298zM732.1 322.7a5 5 0 10-.001-10.001 5 5 0 00.001 10.001zM732.1 347.3a5 5 0 10-.001-10.001 5 5 0 00.001 10.001zM732.1 372a5 5 0 10-.001-10.001A5 5 0 00732.1 372zM732.1 396.7a5 5 0 10-.001-10.001 5 5 0 00.001 10.001zM732.1 421.3a5 5 0 10-.001-10.001 5 5 0 00.001 10.001zM732.1 446a5 5 0 10-.001-10.001A5 5 0 00732.1 446zM732.1 470.7a5 5 0 10-.001-10.001 5 5 0 00.001 10.001zM732.1 495.3a5 5 0 10-.001-10.001 5 5 0 00.001 10.001zM732.1 520a5 5 0 10-.001-10.001A5 5 0 00732.1 520zM732.1 544.7a5 5 0 10-.001-10.001 5 5 0 00.001 10.001zM732.1 569.3a5 5 0 10-.001-10.001 5 5 0 00.001 10.001zM707.5 76a5 5 0 100-10 5 5 0 000 10zM707.5 100.7a5 5 0 100-10 5 5 0 000 10zM707.5 125.3a5 5 0 10-.001-10.001 5 5 0 00.001 10.001zM707.5 150a5 5 0 10-.001-10.001A5 5 0 00707.5 150zM707.5 174.7a5 5 0 10-.001-10.001 5 5 0 00.001 10.001zM707.5 199.3a5 5 0 10-.001-10.001 5 5 0 00.001 10.001zM707.5 224a5 5 0 10-.001-10.001A5 5 0 00707.5 224zM707.5 248.7a5 5 0 10-.001-10.001 5 5 0 00.001 10.001zM707.5 273.3a5 5 0 10-.001-10.001 5 5 0 00.001 10.001zM707.5 298a5 5 0 10-.001-10.001A5 5 0 00707.5 298zM707.5 322.7a5 5 0 10-.001-10.001 5 5 0 00.001 10.001zM707.5 347.3a5 5 0 10-.001-10.001 5 5 0 00.001 10.001zM707.5 372a5 5 0 10-.001-10.001A5 5 0 00707.5 372zM707.5 396.7a5 5 0 10-.001-10.001 5 5 0 00.001 10.001zM707.5 421.3a5 5 0 10-.001-10.001 5 5 0 00.001 10.001zM707.5 446a5 5 0 10-.001-10.001A5 5 0 00707.5 446zM707.5 470.7a5 5 0 10-.001-10.001 5 5 0 00.001 10.001zM707.5 495.3a5 5 0 10-.001-10.001 5 5 0 00.001 10.001zM707.5 520a5 5 0 10-.001-10.001A5 5 0 00707.5 520zM707.5 544.7a5 5 0 10-.001-10.001 5 5 0 00.001 10.001zM707.5 569.3a5 5 0 10-.001-10.001 5 5 0 00.001 10.001zM682.8 76a5 5 0 100-10 5 5 0 000 10zM682.8 100.7a5 5 0 100-10 5 5 0 000 10zM682.8 125.3a5 5 0 10-.001-10.001 5 5 0 00.001 10.001zM682.8 150a5 5 0 10-.001-10.001A5 5 0 00682.8 150zM682.8 174.7a5 5 0 10-.001-10.001 5 5 0 00.001 10.001zM682.8 199.3a5 5 0 10-.001-10.001 5 5 0 00.001 10.001zM682.8 224a5 5 0 10-.001-10.001A5 5 0 00682.8 224zM682.8 248.7a5 5 0 10-.001-10.001 5 5 0 00.001 10.001zM682.8 273.3a5 5 0 10-.001-10.001 5 5 0 00.001 10.001zM682.8 298a5 5 0 10-.001-10.001A5 5 0 00682.8 298zM682.8 322.7a5 5 0 10-.001-10.001 5 5 0 00.001 10.001zM682.8 347.3a5 5 0 10-.001-10.001 5 5 0 00.001 10.001zM682.8 372a5 5 0 10-.001-10.001A5 5 0 00682.8 372zM682.8 396.7a5 5 0 10-.001-10.001 5 5 0 00.001 10.001zM682.8 421.3a5 5 0 10-.001-10.001 5 5 0 00.001 10.001zM682.8 446a5 5 0 10-.001-10.001A5 5 0 00682.8 446zM682.8 470.7a5 5 0 10-.001-10.001 5 5 0 00.001 10.001zM682.8 495.3a5 5 0 10-.001-10.001 5 5 0 00.001 10.001zM682.8 520a5 5 0 10-.001-10.001A5 5 0 00682.8 520zM682.8 544.7a5 5 0 10-.001-10.001 5 5 0 00.001 10.001zM682.8 569.3a5 5 0 10-.001-10.001 5 5 0 00.001 10.001zM658.1 76a5 5 0 100-10 5 5 0 000 10zM658.1 100.7a5 5 0 100-10 5 5 0 000 10zM658.1 125.3a5 5 0 10-.001-10.001 5 5 0 00.001 10.001zM658.1 150a5 5 0 10-.001-10.001A5 5 0 00658.1 150zM658.1 174.7a5 5 0 10-.001-10.001 5 5 0 00.001 10.001zM658.1 199.3a5 5 0 10-.001-10.001 5 5 0 00.001 10.001zM658.1 224a5 5 0 10-.001-10.001A5 5 0 00658.1 224zM658.1 248.7a5 5 0 10-.001-10.001 5 5 0 00.001 10.001zM658.1 273.3a5 5 0 10-.001-10.001 5 5 0 00.001 10.001zM658.1 298a5 5 0 10-.001-10.001A5 5 0 00658.1 298zM658.1 322.7a5 5 0 10-.001-10.001 5 5 0 00.001 10.001zM658.1 347.3a5 5 0 10-.001-10.001 5 5 0 00.001 10.001zM658.1 372a5 5 0 10-.001-10.001A5 5 0 00658.1 372zM658.1 396.7a5 5 0 10-.001-10.001 5 5 0 00.001 10.001zM658.1 421.3a5 5 0 10-.001-10.001 5 5 0 00.001 10.001zM658.1 446a5 5 0 10-.001-10.001A5 5 0 00658.1 446zM658.1 470.7a5 5 0 10-.001-10.001 5 5 0 00.001 10.001zM658.1 495.3a5 5 0 10-.001-10.001 5 5 0 00.001 10.001zM658.1 520a5 5 0 10-.001-10.001A5 5 0 00658.1 520zM658.1 544.7a5 5 0 10-.001-10.001 5 5 0 00.001 10.001zM658.1 569.3a5 5 0 10-.001-10.001 5 5 0 00.001 10.001zM633.5 76a5 5 0 100-10 5 5 0 000 10zM633.5 100.7a5 5 0 100-10 5 5 0 000 10zM633.5 125.3a5 5 0 10-.001-10.001 5 5 0 00.001 10.001zM633.5 150a5 5 0 10-.001-10.001A5 5 0 00633.5 150zM633.5 174.7a5 5 0 10-.001-10.001 5 5 0 00.001 10.001zM633.5 199.3a5 5 0 10-.001-10.001 5 5 0 00.001 10.001zM633.5 224a5 5 0 10-.001-10.001A5 5 0 00633.5 224zM633.5 248.7a5 5 0 10-.001-10.001 5 5 0 00.001 10.001zM633.5 273.3a5 5 0 10-.001-10.001 5 5 0 00.001 10.001zM633.5 298a5 5 0 10-.001-10.001A5 5 0 00633.5 298zM633.5 322.7a5 5 0 10-.001-10.001 5 5 0 00.001 10.001zM633.5 347.3a5 5 0 10-.001-10.001 5 5 0 00.001 10.001zM633.5 372a5 5 0 10-.001-10.001A5 5 0 00633.5 372zM633.5 396.7a5 5 0 10-.001-10.001 5 5 0 00.001 10.001zM633.5 421.3a5 5 0 10-.001-10.001 5 5 0 00.001 10.001zM633.5 446a5 5 0 10-.001-10.001A5 5 0 00633.5 446zM633.5 470.7a5 5 0 10-.001-10.001 5 5 0 00.001 10.001zM633.5 495.3a5 5 0 10-.001-10.001 5 5 0 00.001 10.001zM633.5 520a5 5 0 10-.001-10.001A5 5 0 00633.5 520zM633.5 544.7a5 5 0 10-.001-10.001 5 5 0 00.001 10.001zM633.5 569.3a5 5 0 10-.001-10.001 5 5 0 00.001 10.001zM608.8 76a5 5 0 100-10 5 5 0 000 10zM608.8 100.7a5 5 0 100-10 5 5 0 000 10zM608.8 125.3a5 5 0 10-.001-10.001 5 5 0 00.001 10.001zM608.8 150a5 5 0 10-.001-10.001A5 5 0 00608.8 150zM608.8 174.7a5 5 0 10-.001-10.001 5 5 0 00.001 10.001zM608.8 199.3a5 5 0 10-.001-10.001 5 5 0 00.001 10.001zM608.8 224a5 5 0 10-.001-10.001A5 5 0 00608.8 224zM608.8 248.7a5 5 0 10-.001-10.001 5 5 0 00.001 10.001zM608.8 273.3a5 5 0 10-.001-10.001 5 5 0 00.001 10.001zM608.8 298a5 5 0 10-.001-10.001A5 5 0 00608.8 298zM608.8 322.7a5 5 0 10-.001-10.001 5 5 0 00.001 10.001zM608.8 347.3a5 5 0 10-.001-10.001 5 5 0 00.001 10.001zM608.8 372a5 5 0 10-.001-10.001A5 5 0 00608.8 372zM608.8 396.7a5 5 0 10-.001-10.001 5 5 0 00.001 10.001zM608.8 421.3a5 5 0 10-.001-10.001 5 5 0 00.001 10.001zM608.8 446a5 5 0 10-.001-10.001A5 5 0 00608.8 446zM608.8 470.7a5 5 0 10-.001-10.001 5 5 0 00.001 10.001zM608.8 495.3a5 5 0 10-.001-10.001 5 5 0 00.001 10.001zM608.8 520a5 5 0 10-.001-10.001A5 5 0 00608.8 520zM608.8 544.7a5 5 0 10-.001-10.001 5 5 0 00.001 10.001zM608.8 569.3a5 5 0 10-.001-10.001 5 5 0 00.001 10.001zM584.1 76a5 5 0 100-10 5 5 0 000 10zM584.1 100.7a5 5 0 100-10 5 5 0 000 10zM584.1 125.3a5 5 0 10-.001-10.001 5 5 0 00.001 10.001zM584.1 150a5 5 0 10-.001-10.001A5 5 0 00584.1 150zM584.1 174.7a5 5 0 10-.001-10.001 5 5 0 00.001 10.001zM584.1 199.3a5 5 0 10-.001-10.001 5 5 0 00.001 10.001zM584.1 224a5 5 0 10-.001-10.001A5 5 0 00584.1 224zM584.1 248.7a5 5 0 10-.001-10.001 5 5 0 00.001 10.001zM584.1 273.3a5 5 0 10-.001-10.001 5 5 0 00.001 10.001zM584.1 298a5 5 0 10-.001-10.001A5 5 0 00584.1 298zM584.1 322.7a5 5 0 10-.001-10.001 5 5 0 00.001 10.001zM584.1 347.3a5 5 0 10-.001-10.001 5 5 0 00.001 10.001zM584.1 372a5 5 0 10-.001-10.001A5 5 0 00584.1 372zM584.1 396.7a5 5 0 10-.001-10.001 5 5 0 00.001 10.001zM584.1 421.3a5 5 0 10-.001-10.001 5 5 0 00.001 10.001zM584.1 446a5 5 0 10-.001-10.001A5 5 0 00584.1 446zM584.1 470.7a5 5 0 10-.001-10.001 5 5 0 00.001 10.001zM584.1 495.3a5 5 0 10-.001-10.001 5 5 0 00.001 10.001zM584.1 520a5 5 0 10-.001-10.001A5 5 0 00584.1 520zM584.1 544.7a5 5 0 10-.001-10.001 5 5 0 00.001 10.001zM584.1 569.3a5 5 0 10-.001-10.001 5 5 0 00.001 10.001zM559.5 76a5 5 0 100-10 5 5 0 000 10zM559.5 100.7a5 5 0 100-10 5 5 0 000 10zM559.5 125.3a5 5 0 10-.001-10.001 5 5 0 00.001 10.001zM559.5 150a5 5 0 10-.001-10.001A5 5 0 00559.5 150zM559.5 174.7a5 5 0 10-.001-10.001 5 5 0 00.001 10.001zM559.5 199.3a5 5 0 10-.001-10.001 5 5 0 00.001 10.001zM559.5 224a5 5 0 10-.001-10.001A5 5 0 00559.5 224zM559.5 248.7a5 5 0 10-.001-10.001 5 5 0 00.001 10.001zM559.5 273.3a5 5 0 10-.001-10.001 5 5 0 00.001 10.001zM559.5 298a5 5 0 10-.001-10.001A5 5 0 00559.5 298zM559.5 322.7a5 5 0 10-.001-10.001 5 5 0 00.001 10.001zM559.5 347.3a5 5 0 10-.001-10.001 5 5 0 00.001 10.001zM559.5 372a5 5 0 10-.001-10.001A5 5 0 00559.5 372zM559.5 396.7a5 5 0 10-.001-10.001 5 5 0 00.001 10.001zM559.5 421.3a5 5 0 10-.001-10.001 5 5 0 00.001 10.001zM559.5 446a5 5 0 10-.001-10.001A5 5 0 00559.5 446zM559.5 470.7a5 5 0 10-.001-10.001 5 5 0 00.001 10.001zM559.5 495.3a5 5 0 10-.001-10.001 5 5 0 00.001 10.001zM559.5 520a5 5 0 10-.001-10.001A5 5 0 00559.5 520zM559.5 544.7a5 5 0 10-.001-10.001 5 5 0 00.001 10.001zM559.5 569.3a5 5 0 10-.001-10.001 5 5 0 00.001 10.001zM534.8 76a5 5 0 100-10 5 5 0 000 10zM534.8 100.7a5 5 0 100-10 5 5 0 000 10zM534.8 125.3a5 5 0 10-.001-10.001 5 5 0 00.001 10.001zM534.8 150a5 5 0 10-.001-10.001A5 5 0 00534.8 150zM534.8 174.7a5 5 0 10-.001-10.001 5 5 0 00.001 10.001zM534.8 199.3a5 5 0 10-.001-10.001 5 5 0 00.001 10.001zM534.8 224a5 5 0 10-.001-10.001A5 5 0 00534.8 224zM534.8 248.7a5 5 0 10-.001-10.001 5 5 0 00.001 10.001zM534.8 273.3a5 5 0 10-.001-10.001 5 5 0 00.001 10.001zM534.8 298a5 5 0 10-.001-10.001A5 5 0 00534.8 298zM534.8 322.7a5 5 0 10-.001-10.001 5 5 0 00.001 10.001zM534.8 347.3a5 5 0 10-.001-10.001 5 5 0 00.001 10.001zM534.8 372a5 5 0 10-.001-10.001A5 5 0 00534.8 372zM534.8 396.7a5 5 0 10-.001-10.001 5 5 0 00.001 10.001zM534.8 421.3a5 5 0 10-.001-10.001 5 5 0 00.001 10.001zM534.8 446a5 5 0 10-.001-10.001A5 5 0 00534.8 446zM534.8 470.7a5 5 0 10-.001-10.001 5 5 0 00.001 10.001zM534.8 495.3a5 5 0 10-.001-10.001 5 5 0 00.001 10.001zM534.8 520a5 5 0 10-.001-10.001A5 5 0 00534.8 520zM534.8 544.7a5 5 0 10-.001-10.001 5 5 0 00.001 10.001zM534.8 569.3a5 5 0 10-.001-10.001 5 5 0 00.001 10.001zM510.1 76a5 5 0 100-10 5 5 0 000 10zM510.1 100.7a5 5 0 100-10 5 5 0 000 10zM510.1 125.3a5 5 0 10-.001-10.001 5 5 0 00.001 10.001zM510.1 150a5 5 0 10-.001-10.001A5 5 0 00510.1 150zM510.1 174.7a5 5 0 10-.001-10.001 5 5 0 00.001 10.001zM510.1 199.3a5 5 0 10-.001-10.001 5 5 0 00.001 10.001zM510.1 224a5 5 0 10-.001-10.001A5 5 0 00510.1 224zM510.1 248.7a5 5 0 10-.001-10.001 5 5 0 00.001 10.001zM510.1 273.3a5 5 0 10-.001-10.001 5 5 0 00.001 10.001zM510.1 298a5 5 0 10-.001-10.001A5 5 0 00510.1 298zM510.1 322.7a5 5 0 10-.001-10.001 5 5 0 00.001 10.001zM510.1 347.3a5 5 0 10-.001-10.001 5 5 0 00.001 10.001zM510.1 372a5 5 0 10-.001-10.001A5 5 0 00510.1 372zM510.1 396.7a5 5 0 10-.001-10.001 5 5 0 00.001 10.001zM510.1 421.3a5 5 0 10-.001-10.001 5 5 0 00.001 10.001zM510.1 446a5 5 0 10-.001-10.001A5 5 0 00510.1 446zM510.1 470.7a5 5 0 10-.001-10.001 5 5 0 00.001 10.001zM510.1 495.3a5 5 0 10-.001-10.001 5 5 0 00.001 10.001zM510.1 520a5 5 0 10-.001-10.001A5 5 0 00510.1 520zM510.1 544.7a5 5 0 10-.001-10.001 5 5 0 00.001 10.001zM510.1 569.3a5 5 0 10-.001-10.001 5 5 0 00.001 10.001zM485.5 76a5 5 0 100-10 5 5 0 000 10zM485.5 100.7a5 5 0 100-10 5 5 0 000 10zM485.5 125.3a5 5 0 10-.001-10.001 5 5 0 00.001 10.001zM485.5 150a5 5 0 10-.001-10.001A5 5 0 00485.5 150zM485.5 174.7a5 5 0 10-.001-10.001 5 5 0 00.001 10.001zM485.5 199.3a5 5 0 10-.001-10.001 5 5 0 00.001 10.001zM485.5 224a5 5 0 10-.001-10.001A5 5 0 00485.5 224zM485.5 248.7a5 5 0 10-.001-10.001 5 5 0 00.001 10.001zM485.5 273.3a5 5 0 10-.001-10.001 5 5 0 00.001 10.001zM485.5 298a5 5 0 10-.001-10.001A5 5 0 00485.5 298zM485.5 322.7a5 5 0 10-.001-10.001 5 5 0 00.001 10.001zM485.5 347.3a5 5 0 10-.001-10.001 5 5 0 00.001 10.001zM485.5 372a5 5 0 10-.001-10.001A5 5 0 00485.5 372zM485.5 396.7a5 5 0 10-.001-10.001 5 5 0 00.001 10.001zM485.5 421.3a5 5 0 10-.001-10.001 5 5 0 00.001 10.001zM485.5 446a5 5 0 10-.001-10.001A5 5 0 00485.5 446zM485.5 470.7a5 5 0 10-.001-10.001 5 5 0 00.001 10.001zM485.5 495.3a5 5 0 10-.001-10.001 5 5 0 00.001 10.001zM485.5 520a5 5 0 10-.001-10.001A5 5 0 00485.5 520zM485.5 544.7a5 5 0 10-.001-10.001 5 5 0 00.001 10.001zM485.5 569.3a5 5 0 10-.001-10.001 5 5 0 00.001 10.001zM460.8 76a5 5 0 100-10 5 5 0 000 10zM460.8 100.7a5 5 0 100-10 5 5 0 000 10zM460.8 125.3a5 5 0 10-.001-10.001 5 5 0 00.001 10.001zM460.8 150a5 5 0 10-.001-10.001A5 5 0 00460.8 150zM460.8 174.7a5 5 0 10-.001-10.001 5 5 0 00.001 10.001zM460.8 199.3a5 5 0 10-.001-10.001 5 5 0 00.001 10.001zM460.8 224a5 5 0 10-.001-10.001A5 5 0 00460.8 224zM460.8 248.7a5 5 0 10-.001-10.001 5 5 0 00.001 10.001zM460.8 273.3a5 5 0 10-.001-10.001 5 5 0 00.001 10.001zM460.8 298a5 5 0 10-.001-10.001A5 5 0 00460.8 298zM460.8 322.7a5 5 0 10-.001-10.001 5 5 0 00.001 10.001zM460.8 347.3a5 5 0 10-.001-10.001 5 5 0 00.001 10.001zM460.8 372a5 5 0 10-.001-10.001A5 5 0 00460.8 372zM460.8 396.7a5 5 0 10-.001-10.001 5 5 0 00.001 10.001zM460.8 421.3a5 5 0 10-.001-10.001 5 5 0 00.001 10.001zM460.8 446a5 5 0 10-.001-10.001A5 5 0 00460.8 446zM460.8 470.7a5 5 0 10-.001-10.001 5 5 0 00.001 10.001zM460.8 495.3a5 5 0 10-.001-10.001 5 5 0 00.001 10.001zM460.8 520a5 5 0 10-.001-10.001A5 5 0 00460.8 520zM460.8 544.7a5 5 0 10-.001-10.001 5 5 0 00.001 10.001zM460.8 569.3a5 5 0 10-.001-10.001 5 5 0 00.001 10.001zM436.1 76a5 5 0 100-10 5 5 0 000 10zM436.1 100.7a5 5 0 100-10 5 5 0 000 10zM436.1 125.3a5 5 0 10-.001-10.001 5 5 0 00.001 10.001zM436.1 150a5 5 0 10-.001-10.001A5 5 0 00436.1 150zM436.1 174.7a5 5 0 10-.001-10.001 5 5 0 00.001 10.001zM436.1 199.3a5 5 0 10-.001-10.001 5 5 0 00.001 10.001zM436.1 224a5 5 0 10-.001-10.001A5 5 0 00436.1 224zM436.1 248.7a5 5 0 10-.001-10.001 5 5 0 00.001 10.001zM436.1 273.3a5 5 0 10-.001-10.001 5 5 0 00.001 10.001zM436.1 298a5 5 0 10-.001-10.001A5 5 0 00436.1 298zM436.1 322.7a5 5 0 10-.001-10.001 5 5 0 00.001 10.001zM436.1 347.3a5 5 0 10-.001-10.001 5 5 0 00.001 10.001zM436.1 372a5 5 0 10-.001-10.001A5 5 0 00436.1 372zM436.1 396.7a5 5 0 10-.001-10.001 5 5 0 00.001 10.001zM436.1 421.3a5 5 0 10-.001-10.001 5 5 0 00.001 10.001zM436.1 446a5 5 0 10-.001-10.001A5 5 0 00436.1 446zM436.1 470.7a5 5 0 10-.001-10.001 5 5 0 00.001 10.001zM436.1 495.3a5 5 0 10-.001-10.001 5 5 0 00.001 10.001zM436.1 520a5 5 0 10-.001-10.001A5 5 0 00436.1 520zM436.1 544.7a5 5 0 10-.001-10.001 5 5 0 00.001 10.001zM436.1 569.3a5 5 0 10-.001-10.001 5 5 0 00.001 10.001zM411.5 76a5 5 0 100-10 5 5 0 000 10zM411.5 100.7a5 5 0 100-10 5 5 0 000 10zM411.5 125.3a5 5 0 10-.001-10.001 5 5 0 00.001 10.001zM411.5 150a5 5 0 10-.001-10.001A5 5 0 00411.5 150zM411.5 174.7a5 5 0 10-.001-10.001 5 5 0 00.001 10.001zM411.5 199.3a5 5 0 10-.001-10.001 5 5 0 00.001 10.001zM411.5 224a5 5 0 10-.001-10.001A5 5 0 00411.5 224zM411.5 248.7a5 5 0 10-.001-10.001 5 5 0 00.001 10.001zM411.5 273.3a5 5 0 10-.001-10.001 5 5 0 00.001 10.001zM411.5 298a5 5 0 10-.001-10.001A5 5 0 00411.5 298zM411.5 322.7a5 5 0 10-.001-10.001 5 5 0 00.001 10.001zM411.5 347.3a5 5 0 10-.001-10.001 5 5 0 00.001 10.001zM411.5 372a5 5 0 10-.001-10.001A5 5 0 00411.5 372zM411.5 396.7a5 5 0 10-.001-10.001 5 5 0 00.001 10.001zM411.5 421.3a5 5 0 10-.001-10.001 5 5 0 00.001 10.001zM411.5 446a5 5 0 10-.001-10.001A5 5 0 00411.5 446zM411.5 470.7a5 5 0 10-.001-10.001 5 5 0 00.001 10.001zM411.5 495.3a5 5 0 10-.001-10.001 5 5 0 00.001 10.001zM411.5 520a5 5 0 10-.001-10.001A5 5 0 00411.5 520zM411.5 544.7a5 5 0 10-.001-10.001 5 5 0 00.001 10.001zM411.5 569.3a5 5 0 10-.001-10.001 5 5 0 00.001 10.001zM386.8 76a5 5 0 100-10 5 5 0 000 10zM386.8 100.7a5 5 0 100-10 5 5 0 000 10zM386.8 125.3a5 5 0 10-.001-10.001 5 5 0 00.001 10.001zM386.8 150a5 5 0 10-.001-10.001A5 5 0 00386.8 150zM386.8 174.7a5 5 0 10-.001-10.001 5 5 0 00.001 10.001zM386.8 199.3a5 5 0 10-.001-10.001 5 5 0 00.001 10.001zM386.8 224a5 5 0 10-.001-10.001A5 5 0 00386.8 224zM386.8 248.7a5 5 0 10-.001-10.001 5 5 0 00.001 10.001zM386.8 273.3a5 5 0 10-.001-10.001 5 5 0 00.001 10.001zM386.8 298a5 5 0 10-.001-10.001A5 5 0 00386.8 298zM386.8 322.7a5 5 0 10-.001-10.001 5 5 0 00.001 10.001zM386.8 347.3a5 5 0 10-.001-10.001 5 5 0 00.001 10.001zM386.8 372a5 5 0 10-.001-10.001A5 5 0 00386.8 372zM386.8 396.7a5 5 0 10-.001-10.001 5 5 0 00.001 10.001zM386.8 421.3a5 5 0 10-.001-10.001 5 5 0 00.001 10.001zM386.8 446a5 5 0 10-.001-10.001A5 5 0 00386.8 446zM386.8 470.7a5 5 0 10-.001-10.001 5 5 0 00.001 10.001zM386.8 495.3a5 5 0 10-.001-10.001 5 5 0 00.001 10.001zM386.8 520a5 5 0 10-.001-10.001A5 5 0 00386.8 520zM386.8 544.7a5 5 0 10-.001-10.001 5 5 0 00.001 10.001zM386.8 569.3a5 5 0 10-.001-10.001 5 5 0 00.001 10.001zM362.1 76a5 5 0 100-10 5 5 0 000 10zM362.1 100.7a5 5 0 100-10 5 5 0 000 10zM362.1 125.3a5 5 0 10-.001-10.001 5 5 0 00.001 10.001zM362.1 150a5 5 0 10-.001-10.001A5 5 0 00362.1 150zM362.1 174.7a5 5 0 10-.001-10.001 5 5 0 00.001 10.001zM362.1 199.3a5 5 0 10-.001-10.001 5 5 0 00.001 10.001zM362.1 224a5 5 0 10-.001-10.001A5 5 0 00362.1 224zM362.1 248.7a5 5 0 10-.001-10.001 5 5 0 00.001 10.001zM362.1 273.3a5 5 0 10-.001-10.001 5 5 0 00.001 10.001zM362.1 298a5 5 0 10-.001-10.001A5 5 0 00362.1 298zM362.1 322.7a5 5 0 10-.001-10.001 5 5 0 00.001 10.001zM362.1 347.3a5 5 0 10-.001-10.001 5 5 0 00.001 10.001zM362.1 372a5 5 0 10-.001-10.001A5 5 0 00362.1 372zM362.1 396.7a5 5 0 10-.001-10.001 5 5 0 00.001 10.001zM362.1 421.3a5 5 0 10-.001-10.001 5 5 0 00.001 10.001zM362.1 446a5 5 0 10-.001-10.001A5 5 0 00362.1 446zM362.1 470.7a5 5 0 10-.001-10.001 5 5 0 00.001 10.001zM362.1 495.3a5 5 0 10-.001-10.001 5 5 0 00.001 10.001zM362.1 520a5 5 0 10-.001-10.001A5 5 0 00362.1 520zM362.1 544.7a5 5 0 10-.001-10.001 5 5 0 00.001 10.001zM362.1 569.3a5 5 0 10-.001-10.001 5 5 0 00.001 10.001zM337.5 76a5 5 0 100-10 5 5 0 000 10zM337.5 100.7a5 5 0 100-10 5 5 0 000 10zM337.5 125.3a5 5 0 10-.001-10.001 5 5 0 00.001 10.001zM337.5 150a5 5 0 10-.001-10.001A5 5 0 00337.5 150zM337.5 174.7a5 5 0 10-.001-10.001 5 5 0 00.001 10.001zM337.5 199.3a5 5 0 10-.001-10.001 5 5 0 00.001 10.001zM337.5 224a5 5 0 10-.001-10.001A5 5 0 00337.5 224zM337.5 248.7a5 5 0 10-.001-10.001 5 5 0 00.001 10.001zM337.5 273.3a5 5 0 10-.001-10.001 5 5 0 00.001 10.001zM337.5 298a5 5 0 10-.001-10.001A5 5 0 00337.5 298zM337.5 322.7a5 5 0 10-.001-10.001 5 5 0 00.001 10.001zM337.5 347.3a5 5 0 10-.001-10.001 5 5 0 00.001 10.001zM337.5 372a5 5 0 10-.001-10.001A5 5 0 00337.5 372zM337.5 396.7a5 5 0 10-.001-10.001 5 5 0 00.001 10.001zM337.5 421.3a5 5 0 10-.001-10.001 5 5 0 00.001 10.001zM337.5 446a5 5 0 10-.001-10.001A5 5 0 00337.5 446zM337.5 470.7a5 5 0 10-.001-10.001 5 5 0 00.001 10.001zM337.5 495.3a5 5 0 10-.001-10.001 5 5 0 00.001 10.001zM337.5 520a5 5 0 10-.001-10.001A5 5 0 00337.5 520zM337.5 544.7a5 5 0 10-.001-10.001 5 5 0 00.001 10.001zM337.5 569.3a5 5 0 10-.001-10.001 5 5 0 00.001 10.001zM312.8 76a5 5 0 100-10 5 5 0 000 10zM312.8 100.7a5 5 0 100-10 5 5 0 000 10zM312.8 125.3a5 5 0 10-.001-10.001 5 5 0 00.001 10.001zM312.8 150a5 5 0 10-.001-10.001A5 5 0 00312.8 150zM312.8 174.7a5 5 0 10-.001-10.001 5 5 0 00.001 10.001zM312.8 199.3a5 5 0 10-.001-10.001 5 5 0 00.001 10.001zM312.8 224a5 5 0 10-.001-10.001A5 5 0 00312.8 224zM312.8 248.7a5 5 0 10-.001-10.001 5 5 0 00.001 10.001zM312.8 273.3a5 5 0 10-.001-10.001 5 5 0 00.001 10.001zM312.8 298a5 5 0 10-.001-10.001A5 5 0 00312.8 298zM312.8 322.7a5 5 0 10-.001-10.001 5 5 0 00.001 10.001zM312.8 347.3a5 5 0 10-.001-10.001 5 5 0 00.001 10.001zM312.8 372a5 5 0 10-.001-10.001A5 5 0 00312.8 372zM312.8 396.7a5 5 0 10-.001-10.001 5 5 0 00.001 10.001zM312.8 421.3a5 5 0 10-.001-10.001 5 5 0 00.001 10.001zM312.8 446a5 5 0 10-.001-10.001A5 5 0 00312.8 446zM312.8 470.7a5 5 0 10-.001-10.001 5 5 0 00.001 10.001zM312.8 495.3a5 5 0 10-.001-10.001 5 5 0 00.001 10.001zM312.8 520a5 5 0 10-.001-10.001A5 5 0 00312.8 520zM312.8 544.7a5 5 0 10-.001-10.001 5 5 0 00.001 10.001zM312.8 569.3a5 5 0 10-.001-10.001 5 5 0 00.001 10.001zM288.1 76a5 5 0 100-10 5 5 0 000 10zM288.1 100.7a5 5 0 100-10 5 5 0 000 10zM288.1 125.3a5 5 0 10-.001-10.001 5 5 0 00.001 10.001zM288.1 150a5 5 0 10-.001-10.001A5 5 0 00288.1 150zM288.1 174.7a5 5 0 10-.001-10.001 5 5 0 00.001 10.001zM288.1 199.3a5 5 0 10-.001-10.001 5 5 0 00.001 10.001zM288.1 224a5 5 0 10-.001-10.001A5 5 0 00288.1 224zM288.1 248.7a5 5 0 10-.001-10.001 5 5 0 00.001 10.001zM288.1 273.3a5 5 0 10-.001-10.001 5 5 0 00.001 10.001zM288.1 298a5 5 0 10-.001-10.001A5 5 0 00288.1 298zM288.1 322.7a5 5 0 10-.001-10.001 5 5 0 00.001 10.001zM288.1 347.3a5 5 0 10-.001-10.001 5 5 0 00.001 10.001zM288.1 372a5 5 0 10-.001-10.001A5 5 0 00288.1 372zM288.1 396.7a5 5 0 10-.001-10.001 5 5 0 00.001 10.001zM288.1 421.3a5 5 0 10-.001-10.001 5 5 0 00.001 10.001zM288.1 446a5 5 0 10-.001-10.001A5 5 0 00288.1 446zM288.1 470.7a5 5 0 10-.001-10.001 5 5 0 00.001 10.001zM288.1 495.3a5 5 0 10-.001-10.001 5 5 0 00.001 10.001zM288.1 520a5 5 0 10-.001-10.001A5 5 0 00288.1 520zM288.1 544.7a5 5 0 10-.001-10.001 5 5 0 00.001 10.001zM288.1 569.3a5 5 0 10-.001-10.001 5 5 0 00.001 10.001zM263.5 76a5 5 0 100-10 5 5 0 000 10zM263.5 100.7a5 5 0 100-10 5 5 0 000 10zM263.5 125.3a5 5 0 10-.001-10.001 5 5 0 00.001 10.001zM263.5 150a5 5 0 10-.001-10.001A5 5 0 00263.5 150zM263.5 174.7a5 5 0 10-.001-10.001 5 5 0 00.001 10.001zM263.5 199.3a5 5 0 10-.001-10.001 5 5 0 00.001 10.001zM263.5 224a5 5 0 10-.001-10.001A5 5 0 00263.5 224zM263.5 248.7a5 5 0 10-.001-10.001 5 5 0 00.001 10.001zM263.5 273.3a5 5 0 10-.001-10.001 5 5 0 00.001 10.001zM263.5 298a5 5 0 10-.001-10.001A5 5 0 00263.5 298zM263.5 322.7a5 5 0 10-.001-10.001 5 5 0 00.001 10.001zM263.5 347.3a5 5 0 10-.001-10.001 5 5 0 00.001 10.001zM263.5 372a5 5 0 10-.001-10.001A5 5 0 00263.5 372zM263.5 396.7a5 5 0 10-.001-10.001 5 5 0 00.001 10.001zM263.5 421.3a5 5 0 10-.001-10.001 5 5 0 00.001 10.001zM263.5 446a5 5 0 10-.001-10.001A5 5 0 00263.5 446zM263.5 470.7a5 5 0 10-.001-10.001 5 5 0 00.001 10.001zM263.5 495.3a5 5 0 10-.001-10.001 5 5 0 00.001 10.001zM263.5 520a5 5 0 10-.001-10.001A5 5 0 00263.5 520zM263.5 544.7a5 5 0 10-.001-10.001 5 5 0 00.001 10.001zM263.5 569.3a5 5 0 10-.001-10.001 5 5 0 00.001 10.001zM238.8 76a5 5 0 100-10 5 5 0 000 10zM238.8 100.7a5 5 0 100-10 5 5 0 000 10zM238.8 125.3a5 5 0 10-.001-10.001 5 5 0 00.001 10.001zM238.8 150a5 5 0 10-.001-10.001A5 5 0 00238.8 150zM238.8 174.7a5 5 0 10-.001-10.001 5 5 0 00.001 10.001zM238.8 199.3a5 5 0 10-.001-10.001 5 5 0 00.001 10.001zM238.8 224a5 5 0 10-.001-10.001A5 5 0 00238.8 224zM238.8 248.7a5 5 0 10-.001-10.001 5 5 0 00.001 10.001zM238.8 273.3a5 5 0 10-.001-10.001 5 5 0 00.001 10.001zM238.8 298a5 5 0 10-.001-10.001A5 5 0 00238.8 298zM238.8 322.7a5 5 0 10-.001-10.001 5 5 0 00.001 10.001zM238.8 347.3a5 5 0 10-.001-10.001 5 5 0 00.001 10.001zM238.8 372a5 5 0 10-.001-10.001A5 5 0 00238.8 372zM238.8 396.7a5 5 0 10-.001-10.001 5 5 0 00.001 10.001zM238.8 421.3a5 5 0 10-.001-10.001 5 5 0 00.001 10.001zM238.8 446a5 5 0 10-.001-10.001A5 5 0 00238.8 446zM238.8 470.7a5 5 0 10-.001-10.001 5 5 0 00.001 10.001zM238.8 495.3a5 5 0 10-.001-10.001 5 5 0 00.001 10.001zM238.8 520a5 5 0 10-.001-10.001A5 5 0 00238.8 520zM238.8 544.7a5 5 0 10-.001-10.001 5 5 0 00.001 10.001zM238.8 569.3a5 5 0 10-.001-10.001 5 5 0 00.001 10.001zM214.1 76a5 5 0 100-10 5 5 0 000 10zM214.1 100.7a5 5 0 100-10 5 5 0 000 10zM214.1 125.3a5 5 0 10-.001-10.001 5 5 0 00.001 10.001zM214.1 150a5 5 0 10-.001-10.001A5 5 0 00214.1 150zM214.1 174.7a5 5 0 10-.001-10.001 5 5 0 00.001 10.001zM214.1 199.3a5 5 0 10-.001-10.001 5 5 0 00.001 10.001zM214.1 224a5 5 0 10-.001-10.001A5 5 0 00214.1 224zM214.1 248.7a5 5 0 10-.001-10.001 5 5 0 00.001 10.001zM214.1 273.3a5 5 0 10-.001-10.001 5 5 0 00.001 10.001zM214.1 298a5 5 0 10-.001-10.001A5 5 0 00214.1 298zM214.1 322.7a5 5 0 10-.001-10.001 5 5 0 00.001 10.001zM214.1 347.3a5 5 0 10-.001-10.001 5 5 0 00.001 10.001zM214.1 372a5 5 0 10-.001-10.001A5 5 0 00214.1 372zM214.1 396.7a5 5 0 10-.001-10.001 5 5 0 00.001 10.001zM214.1 421.3a5 5 0 10-.001-10.001 5 5 0 00.001 10.001zM214.1 446a5 5 0 10-.001-10.001A5 5 0 00214.1 446zM214.1 470.7a5 5 0 10-.001-10.001 5 5 0 00.001 10.001zM214.1 495.3a5 5 0 10-.001-10.001 5 5 0 00.001 10.001zM214.1 520a5 5 0 10-.001-10.001A5 5 0 00214.1 520zM214.1 544.7a5 5 0 10-.001-10.001 5 5 0 00.001 10.001zM214.1 569.3a5 5 0 10-.001-10.001 5 5 0 00.001 10.001zM189.5 76a5 5 0 100-10 5 5 0 000 10zM189.5 100.7a5 5 0 100-10 5 5 0 000 10zM189.5 125.3a5 5 0 10-.001-10.001 5 5 0 00.001 10.001zM189.5 150a5 5 0 10-.001-10.001A5 5 0 00189.5 150zM189.5 174.7a5 5 0 10-.001-10.001 5 5 0 00.001 10.001zM189.5 199.3a5 5 0 10-.001-10.001 5 5 0 00.001 10.001zM189.5 224a5 5 0 10-.001-10.001A5 5 0 00189.5 224zM189.5 248.7a5 5 0 10-.001-10.001 5 5 0 00.001 10.001zM189.5 273.3a5 5 0 10-.001-10.001 5 5 0 00.001 10.001zM189.5 298a5 5 0 10-.001-10.001A5 5 0 00189.5 298zM189.5 322.7a5 5 0 10-.001-10.001 5 5 0 00.001 10.001zM189.5 347.3a5 5 0 10-.001-10.001 5 5 0 00.001 10.001zM189.5 372a5 5 0 10-.001-10.001A5 5 0 00189.5 372zM189.5 396.7a5 5 0 10-.001-10.001 5 5 0 00.001 10.001zM189.5 421.3a5 5 0 10-.001-10.001 5 5 0 00.001 10.001zM189.5 446a5 5 0 10-.001-10.001A5 5 0 00189.5 446zM189.5 470.7a5 5 0 10-.001-10.001 5 5 0 00.001 10.001zM189.5 495.3a5 5 0 10-.001-10.001 5 5 0 00.001 10.001zM189.5 520a5 5 0 10-.001-10.001A5 5 0 00189.5 520zM189.5 544.7a5 5 0 10-.001-10.001 5 5 0 00.001 10.001zM189.5 569.3a5 5 0 10-.001-10.001 5 5 0 00.001 10.001zM164.8 76a5 5 0 100-10 5 5 0 000 10zM164.8 100.7a5 5 0 100-10 5 5 0 000 10zM164.8 125.3a5 5 0 10-.001-10.001 5 5 0 00.001 10.001zM164.8 150a5 5 0 10-.001-10.001A5 5 0 00164.8 150zM164.8 174.7a5 5 0 10-.001-10.001 5 5 0 00.001 10.001zM164.8 199.3a5 5 0 10-.001-10.001 5 5 0 00.001 10.001zM164.8 224a5 5 0 10-.001-10.001A5 5 0 00164.8 224zM164.8 248.7a5 5 0 10-.001-10.001 5 5 0 00.001 10.001zM164.8 273.3a5 5 0 10-.001-10.001 5 5 0 00.001 10.001zM164.8 298a5 5 0 10-.001-10.001A5 5 0 00164.8 298zM164.8 322.7a5 5 0 10-.001-10.001 5 5 0 00.001 10.001zM164.8 347.3a5 5 0 10-.001-10.001 5 5 0 00.001 10.001zM164.8 372a5 5 0 10-.001-10.001A5 5 0 00164.8 372zM164.8 396.7a5 5 0 10-.001-10.001 5 5 0 00.001 10.001zM164.8 421.3a5 5 0 10-.001-10.001 5 5 0 00.001 10.001zM164.8 446a5 5 0 10-.001-10.001A5 5 0 00164.8 446zM164.8 470.7a5 5 0 10-.001-10.001 5 5 0 00.001 10.001zM164.8 495.3a5 5 0 10-.001-10.001 5 5 0 00.001 10.001zM164.8 520a5 5 0 10-.001-10.001A5 5 0 00164.8 520zM164.8 544.7a5 5 0 10-.001-10.001 5 5 0 00.001 10.001zM164.8 569.3a5 5 0 10-.001-10.001 5 5 0 00.001 10.001zM140.1 76a5 5 0 100-10 5 5 0 000 10zM140.1 100.7a5 5 0 100-10 5 5 0 000 10zM140.1 125.3a5 5 0 10-.001-10.001 5 5 0 00.001 10.001zM140.1 150a5 5 0 10-.001-10.001A5 5 0 00140.1 150zM140.1 174.7a5 5 0 10-.001-10.001 5 5 0 00.001 10.001zM140.1 199.3a5 5 0 10-.001-10.001 5 5 0 00.001 10.001zM140.1 224a5 5 0 10-.001-10.001A5 5 0 00140.1 224zM140.1 248.7a5 5 0 10-.001-10.001 5 5 0 00.001 10.001zM140.1 273.3a5 5 0 10-.001-10.001 5 5 0 00.001 10.001zM140.1 298a5 5 0 10-.001-10.001A5 5 0 00140.1 298zM140.1 322.7a5 5 0 10-.001-10.001 5 5 0 00.001 10.001zM140.1 347.3a5 5 0 10-.001-10.001 5 5 0 00.001 10.001zM140.1 372a5 5 0 10-.001-10.001A5 5 0 00140.1 372zM140.1 396.7a5 5 0 10-.001-10.001 5 5 0 00.001 10.001zM140.1 421.3a5 5 0 10-.001-10.001 5 5 0 00.001 10.001zM140.1 446a5 5 0 10-.001-10.001A5 5 0 00140.1 446zM140.1 470.7a5 5 0 10-.001-10.001 5 5 0 00.001 10.001zM140.1 495.3a5 5 0 10-.001-10.001 5 5 0 00.001 10.001zM140.1 520a5 5 0 10-.001-10.001A5 5 0 00140.1 520zM140.1 544.7a5 5 0 10-.001-10.001 5 5 0 00.001 10.001zM140.1 569.3a5 5 0 10-.001-10.001 5 5 0 00.001 10.001zM115.5 76a5 5 0 100-10 5 5 0 000 10zM115.5 100.7a5 5 0 100-10 5 5 0 000 10zM115.5 125.3a5 5 0 10-.001-10.001 5 5 0 00.001 10.001zM115.5 150a5 5 0 10-.001-10.001A5 5 0 00115.5 150zM115.5 174.7a5 5 0 10-.001-10.001 5 5 0 00.001 10.001zM115.5 199.3a5 5 0 10-.001-10.001 5 5 0 00.001 10.001zM115.5 224a5 5 0 10-.001-10.001A5 5 0 00115.5 224zM115.5 248.7a5 5 0 10-.001-10.001 5 5 0 00.001 10.001zM115.5 273.3a5 5 0 10-.001-10.001 5 5 0 00.001 10.001zM115.5 298a5 5 0 10-.001-10.001A5 5 0 00115.5 298zM115.5 322.7a5 5 0 10-.001-10.001 5 5 0 00.001 10.001zM115.5 347.3a5 5 0 10-.001-10.001 5 5 0 00.001 10.001zM115.5 372a5 5 0 10-.001-10.001A5 5 0 00115.5 372zM115.5 396.7a5 5 0 10-.001-10.001 5 5 0 00.001 10.001zM115.5 421.3a5 5 0 10-.001-10.001 5 5 0 00.001 10.001zM115.5 446a5 5 0 10-.001-10.001A5 5 0 00115.5 446zM115.5 470.7a5 5 0 10-.001-10.001 5 5 0 00.001 10.001zM115.5 495.3a5 5 0 10-.001-10.001 5 5 0 00.001 10.001zM115.5 520a5 5 0 10-.001-10.001A5 5 0 00115.5 520zM115.5 544.7a5 5 0 10-.001-10.001 5 5 0 00.001 10.001zM115.5 569.3a5 5 0 10-.001-10.001 5 5 0 00.001 10.001z" fill="#383A48"/><path d="M1516.1 8.9c-2.8 0-5 2.2-5 5 0 92.6-52.5 154.2-108 219.5-28.2 33.1-57.4 67.4-81.7 107.6-27.7 45.7-44.8 92.4-52.4 143-17.2 114.1-82.3 143.9-164.8 181.7-37.1 17-79.2 36.3-120.1 65.7-46.8 33.7-85.4 75.9-117.9 129.1-.9 1.5-1 3.5-.1 5.1.9 1.6 2.6 2.6 4.4 2.6h645.6c2.8 0 5-2.2 5-5V13.9c0-2.8-2.2-5-5-5z" fill="#E5EDFF"/><path d="M793.2 103.1H52.6v526.1h740.6V103.1z" fill="#AC94FA"/><path d="M793.2 634.2H52.6c-2.8 0-5-2.2-5-5V103.1c0-2.8 2.2-5 5-5h740.6c2.8 0 5 2.2 5 5v526.1c0 2.7-2.2 5-5 5zm-735.6-10h730.6V108.1H57.6v516.1z" fill="#383A48"/><path d="M754.9 138.5H91v455.3h663.9V138.5z" fill="#F3F6E6"/><path d="M754.8 598.7H91c-2.8 0-5-2.2-5-5V138.5c0-2.8 2.2-5 5-5h663.9c2.8 0 5 2.2 5 5v455.3c-.1 2.7-2.3 4.9-5.1 4.9zM96 588.7h653.9V143.5H96v445.2z" fill="#383A48"/><path d="M603.9 421.9c-1.4 0-2.7-.2-4.1-.6-41-11.6-73.9-29.5-97.5-53.2-6.5-6.5-11.9-13-16.3-19.4-26.3 23.8-57 43.9-85.7 55.9-22.2 9.3-40.6 12.9-55.7 12.9-22.7 0-38.2-8-48.2-16.8-12.7-11.1-21-24.2-26.1-37.9-10.6 5.1-21.7 9.2-32.6 11.9-32.1 8-59.9 3.9-80.5-11.7-6.6-5-7.9-14.4-2.9-21s14.4-7.9 21-2.9c9.2 7 26.2 13.7 55.2 6.5 11.2-2.8 22.8-7.5 33.7-13.4-.8-14.6 1.3-28.7 4.9-40.4 7.6-24.5 21.6-40.2 37.4-42 16.1-1.8 25.4 11 28.7 16.6 11.5 19.8 2.2 46.1-25.1 70.2-4.2 3.7-8.7 7.3-13.4 10.6 3 10.6 8.7 21.6 19.4 30.9 19.8 17.2 54 6.7 72.7-1.1 27.6-11.6 57.6-31.7 82.6-55.5-3.1-8.1-4.9-15.5-6-21.8-5-29.5 3.2-56.6 20.9-68.9 11.7-8.1 25.8-8.6 38.8-1.2 12.2 7 18.5 18.9 17.6 33.5-1.4 22.2-19 46.5-34.9 64.1 4 6.4 9.2 13.1 15.9 19.8 20 20 48.4 35.3 84.5 45.5 8 2.3 12.6 10.5 10.4 18.5-2.1 6.6-8.1 10.9-14.7 10.9zM308.6 280.5c-3.6 3.2-9.9 12.8-13 28.3 12.1-12.3 16.2-23 13.6-27.4l-.6-.9zm197.5-26.1c-1.2 0-2 .5-2.8 1-5.2 3.6-12.1 17.5-8.5 39.3 0 .3.1.6.1.8 12-15.5 17.1-27.5 17.5-34.3.2-4-1-4.8-2.5-5.6-1.5-.9-2.8-1.2-3.8-1.2z" fill="#F98080"/><path d="M654.5 282.8c-2.8 0-5-2.2-5-5 0-39.3-27.2-42.3-35.6-42.3-2.8 0-5-2.2-5-5s2.2-5 5-5c8.3 0 35.6-3.1 35.6-42.3 0-2.8 2.2-5 5-5s5 2.2 5 5c0 39.3 27.2 42.3 35.6 42.3 2.8 0 5 2.2 5 5s-2.2 5-5 5c-8.3 0-35.6 3.1-35.6 42.3 0 2.7-2.3 5-5 5zM208.3 510.2c-2.8 0-5-2.2-5-5 0-4.7-1.2-15.5-12.6-15.5-2.8 0-5-2.2-5-5s2.2-5 5-5c11.4 0 12.6-10.9 12.6-15.5 0-2.8 2.2-5 5-5s5 2.2 5 5c0 4.7 1.2 15.5 12.6 15.5 2.8 0 5 2.2 5 5s-2.2 5-5 5c-11.4 0-12.6 10.9-12.6 15.5 0 2.8-2.3 5-5 5z" fill="#F6E049"/><path d="M586 520.2l-31.9 109h-97.4l129.3-109z" fill="#383A48"/><path d="M554.1 634.2h-97.4c-2.1 0-4-1.3-4.7-3.3-.7-2-.1-4.2 1.5-5.5l129.2-109c1.7-1.4 4.1-1.6 6-.4 1.8 1.2 2.7 3.5 2.1 5.6l-31.8 109c-.7 2.1-2.7 3.6-4.9 3.6zm-83.7-10h80l26.1-89.4-106.1 89.4z" fill="#383A48"/><path d="M453.419 462.659L167.75 748.327l95.035 95.034 285.668-285.668-95.034-95.034z" fill="#FC0"/><path d="M262.8 848.4c-1.3 0-2.6-.5-3.5-1.5l-95-95c-.9-.9-1.5-2.2-1.5-3.5 0-1.3.5-2.6 1.5-3.5L450 459.2c2-2 5.1-2 7.1 0l95 95c.9.9 1.5 2.2 1.5 3.5 0 1.3-.5 2.6-1.5 3.5L266.3 846.9c-1 1-2.2 1.5-3.5 1.5zm-88-100.1l88 88 278.6-278.6-88-88-278.6 278.6z" fill="#383A48"/><path d="M215.3 863.1c37.114 0 67.2-30.086 67.2-67.2 0-37.114-30.086-67.2-67.2-67.2-37.114 0-67.2 30.086-67.2 67.2 0 37.114 30.086 67.2 67.2 67.2z" fill="#F98080"/><path d="M215.3 868.1c-19.3 0-37.4-7.5-51.1-21.1-13.6-13.6-21.1-31.8-21.1-51.1s7.5-37.4 21.1-51.1c28.2-28.1 74-28.2 102.1 0 13.6 13.6 21.1 31.8 21.1 51.1s-7.5 37.4-21.1 51.1c-13.6 13.6-31.8 21.1-51 21.1zm0-134.4c-15.9 0-31.9 6.1-44 18.2-24.3 24.3-24.3 63.7 0 88 24.3 24.3 63.7 24.3 88 0 24.3-24.3 24.3-63.7 0-88-12.2-12.1-28.1-18.2-44-18.2z" fill="#383A48"/><path d="M490.916 425.162l-37.477 37.476 95.035 95.034 37.476-37.476-95.034-95.034z" fill="#F98080"/><path d="M548.5 562.7c-1.3 0-2.6-.5-3.5-1.5l-95-95c-2-2-2-5.1 0-7.1l37.5-37.5c.9-.9 2.2-1.5 3.5-1.5 1.3 0 2.6.5 3.5 1.5l95 95c2 2 2 5.1 0 7.1L552 561.2c-1 1-2.3 1.5-3.5 1.5zm-88-100l88 88 30.4-30.4-88-88-30.4 30.4z" fill="#383A48"/><path d="M578.6 512.9l-80.3-80.4 106.1-43.3 17.6 17.5-43.4 106.2z" fill="#F98080"/><path d="M578.6 517.9c-1.3 0-2.6-.5-3.5-1.5L494.7 436c-1.2-1.2-1.7-2.9-1.4-4.5.3-1.6 1.5-3 3-3.6l106.1-43.3c1.9-.8 4-.3 5.4 1.1l17.6 17.6c1.4 1.4 1.9 3.6 1.1 5.4l-43.3 106.1c-.6 1.5-2 2.7-3.6 3-.3 0-.7.1-1 .1zm-71.5-83.6l69.7 69.7 39.2-96.1-12.9-12.9-96 39.3z" fill="#383A48"/><path d="M427.55 488.435l-36.698 36.699 95.034 95.034 36.699-36.698-95.035-95.035z" fill="#FC0"/><path d="M485.9 625.3c-1.3 0-2.6-.5-3.5-1.5l-95-95c-2-2-2-5.1 0-7.1L424 485c2-2 5.1-2 7.1 0l95 95c.9.9 1.5 2.2 1.5 3.5 0 1.3-.5 2.6-1.5 3.5l-36.7 36.7c-.9 1.1-2.2 1.6-3.5 1.6zm-88-100.1l88 88 29.7-29.7-88-88-29.7 29.7z" fill="#383A48"/><path d="M394.6 657.5l-57.3 57.3c-12.1 12.1-31.8 12.1-44 0-12.1-12.1-12.1-31.8 0-44l57.3-57.3c12.1-12.1 31.8-12.1 44 0 12.2 12.2 12.2 31.9 0 44z" fill="#F98080"/><path d="M1115.6 267.5c20.1 18.5 46.2 26.6 71.4 24.6l-143.4 290.2c-11.2 23.1-1.9 50.9 20.9 62.6l200-405.9c.2-.3.3-.7.5-1l.1-.1c17-36.3 9.4-80.9-21.7-109.5-38.4-35.3-98.2-32.7-133.4 5.7-35.2 38.4-32.8 98.1 5.6 133.4zm97.6-106.3c20.3 18.7 21.7 50.2 3 70.5-18.7 20.3-50.2 21.6-70.5 3-20.3-18.6-21.6-50.2-3-70.5 18.6-20.3 50.2-21.7 70.5-3z" fill="#AC94FA"/><path d="M1064.5 649.9c-.8 0-1.6-.2-2.3-.6-12.2-6.3-21.3-16.9-25.6-29.9-4.3-13-3.4-27 2.5-39.3l139.7-282.7c-24.6-.2-48.4-9.5-66.6-26.2-19.6-18-31-42.5-32.1-69-1.1-26.5 8.2-51.9 26.1-71.5 37.1-40.4 100.1-43.1 140.5-6 32 29.4 41.3 75.7 23 115.1 0 .1-.1.2-.1.2l-.1.1c-.1.2-.2.4-.3.7l-.2.3-200.1 406c-.6 1.2-1.6 2.1-2.9 2.5-.4.2-1 .3-1.5.3zM1187 287.1c1.6 0 3.2.8 4.1 2.2 1 1.5 1.1 3.4.3 5L1048 584.5c-9.3 19.2-3 41.7 14.3 53.4l197.8-401.5c.1-.2.2-.3.3-.5 0 0 0-.1.1-.2 16.6-35.5 8.3-77.2-20.6-103.7-36.3-33.4-93-30.9-126.4 5.4-16.2 17.6-24.5 40.4-23.5 64.3s11.3 45.9 28.9 62.1c18.3 16.8 42.9 25.2 67.6 23.3h.5zm-7.6-34.2c-13.8 0-26.9-5.1-37.1-14.5-22.3-20.5-23.8-55.3-3.3-77.6 20.5-22.3 55.3-23.8 77.6-3.3 22.3 20.5 23.8 55.3 3.3 77.6-9.9 10.8-23.5 17.1-38.1 17.7-.8 0-1.6.1-2.4.1zm.1-99.9h-2c-12 .5-23.1 5.7-31.2 14.5-16.8 18.2-15.5 46.7 2.7 63.5 8.8 8.1 20.3 12.3 32.3 11.8 12-.5 23.1-5.7 31.2-14.5 16.8-18.2 15.5-46.7-2.7-63.5-8.3-7.6-19-11.8-30.3-11.8z" fill="#383A48"/><path d="M1116.9 434l68.1-33.7-21.2 43-67.8 33 20.9-42.3z" fill="#383A48"/><path d="M1096 481.3c-1.3 0-2.6-.5-3.5-1.5-1.5-1.5-1.9-3.8-.9-5.7l20.9-42.3c.5-1 1.3-1.8 2.3-2.3l68.2-33.7c1.9-.9 4.2-.6 5.7.9s1.9 3.8 1 5.7l-21.2 43c-.5 1-1.3 1.8-2.3 2.3l-67.9 32.9c-.8.5-1.6.7-2.3.7zm24.6-43.6l-13.7 27.7 53.2-25.8 13.9-28.3-53.4 26.4z" fill="#383A48"/><path d="M1416.8 441c38.4-35.3 41-95 5.7-133.4-28.6-31.1-73.2-38.7-109.5-21.7l-.1.1c-.3.2-.7.3-1 .5L906 486.5c11.8 22.8 39.6 32.1 62.6 20.9L1258.8 364c-2 25.3 6.1 51.3 24.6 71.4 35.2 38.3 95 40.8 133.4 5.6zm-30.1-32.8c-20.3 18.6-51.9 17.3-70.5-3-18.7-20.3-17.3-51.9 3-70.5s51.9-17.3 70.5 3c18.6 20.2 17.3 51.8-3 70.5z" fill="#AC94FA"/><path d="M948 517c-5.6 0-11.1-.9-16.6-2.7-13-4.3-23.6-13.4-29.9-25.6-.6-1.2-.7-2.6-.3-3.9.4-1.3 1.3-2.3 2.5-2.9L1310 281.7c.3-.1.5-.2.8-.4h.1c.1 0 .2-.1.3-.1 39.4-18.3 85.6-9.1 115.1 23 18 19.6 27.2 44.9 26.1 71.5-1.1 26.6-12.5 51.1-32.1 69-40.4 37.1-103.4 34.4-140.5-6-16.7-18.2-26-42.1-26.2-66.6L970.9 511.8c-7.3 3.4-15.1 5.2-22.9 5.2zm-35-28.5c11.7 17.3 34.2 23.6 53.4 14.3l290.2-143.4c1.6-.8 3.5-.7 5 .3s2.3 2.7 2.2 4.5c-2 24.7 6.5 49.4 23.3 67.6 17.6 19.2 41.7 28.9 65.9 28.9 21.6 0 43.3-7.8 60.5-23.5 17.6-16.2 27.9-38.2 28.9-62.1s-7.3-46.7-23.5-64.3c-26.5-28.9-68.2-37.1-103.7-20.6-.1 0-.1 0-.2.1-.2.1-.4.2-.5.3l-.4.2L913 488.5zm440-62.2c-.8 0-1.6 0-2.4-.1-14.7-.6-28.2-6.9-38.1-17.7-9.9-10.8-15.1-24.8-14.4-39.5.7-14.7 6.9-28.2 17.7-38.1 10.8-9.9 24.8-15 39.5-14.4 14.7.6 28.2 6.9 38.1 17.7 20.5 22.3 19 57.1-3.3 77.6-10.2 9.4-23.3 14.5-37.1 14.5zm-.1-99.8c-11.3 0-22 4.2-30.3 11.8-8.8 8.1-14 19.2-14.5 31.2s3.7 23.5 11.8 32.3c8.1 8.8 19.2 14 31.2 14.5s23.5-3.7 32.3-11.8c18.2-16.8 19.5-45.2 2.7-63.5-8.1-8.8-19.2-14-31.2-14.5h-2z" fill="#383A48"/><path d="M1172.72 397.538c7.76-3.337 11.35-12.335 8.02-20.098-3.34-7.763-12.34-11.351-20.1-8.014-7.76 3.336-11.35 12.335-8.02 20.098 3.34 7.763 12.34 11.351 20.1 8.014zM674.5 865.7c-1.3 0-2.6-.5-3.6-1.5-1.9-2-1.9-5.1.1-7.1l8.6-8.3c2-1.9 5.1-1.9 7.1.1 1.9 2 1.9 5.1-.1 7.1l-8.6 8.3c-1 .9-2.2 1.4-3.5 1.4zm30.2-29.2c-1.3 0-2.6-.5-3.6-1.5-1.9-2-1.9-5.1.1-7.1l8.6-8.3c2-1.9 5.1-1.9 7.1.1 1.9 2 1.9 5.1-.1 7.1l-8.6 8.3c-1 .9-2.2 1.4-3.5 1.4zm30.2-29.2c-1.3 0-2.6-.5-3.6-1.5-1.9-2-1.9-5.1.1-7.1l8.6-8.3c2-1.9 5.1-1.9 7.1.1 1.9 2 1.9 5.1-.1 7.1l-8.6 8.3c-1 .9-2.3 1.4-3.5 1.4zm30.2-29.3c-1.3 0-2.6-.5-3.6-1.5-1.9-2-1.9-5.1.1-7.1l8.6-8.3c2-1.9 5.1-1.9 7.1.1 1.9 2 1.9 5.1-.1 7.1l-8.6 8.3c-1 1-2.3 1.4-3.5 1.4zm30.1-29.2c-1.3 0-2.6-.5-3.6-1.5-1.9-2-1.9-5.1.1-7.1l8.6-8.3c2-1.9 5.1-1.9 7.1.1 1.9 2 1.9 5.1-.1 7.1l-8.6 8.3c-1 1-2.2 1.4-3.5 1.4zm30.2-29.2c-1.3 0-2.6-.5-3.6-1.5-1.9-2-1.9-5.1.1-7.1l8.6-8.3c2-1.9 5.1-1.9 7.1.1 1.9 2 1.9 5.1-.1 7.1l-8.6 8.3c-1 .9-2.2 1.4-3.5 1.4zm30.2-29.2c-1.3 0-2.6-.5-3.6-1.5-1.9-2-1.9-5.1.1-7.1l8.6-8.3c2-1.9 5.2-1.9 7.1.1 1.9 2 1.9 5.1-.1 7.1l-8.6 8.3c-1 .9-2.3 1.4-3.5 1.4zm30.2-29.2c-1.3 0-2.6-.5-3.6-1.5-1.9-2-1.9-5.1.1-7.1l8.6-8.3c2-1.9 5.1-1.9 7.1.1 1.9 2 1.9 5.1-.1 7.1l-8.6 8.3c-1 .9-2.3 1.4-3.5 1.4zm30.1-29.2c-1.3 0-2.6-.5-3.6-1.5-1.9-2-1.9-5.1.1-7.1l8.6-8.3c2-1.9 5.1-1.9 7.1.1 1.9 2 1.9 5.1-.1 7.1l-8.6 8.3c-1 .9-2.2 1.4-3.5 1.4zm30.2-29.2c-1.3 0-2.6-.5-3.6-1.5-1.9-2-1.9-5.1.1-7.1l8.6-8.3c2-1.9 5.1-1.9 7.1.1 1.9 2 1.9 5.1-.1 7.1l-8.6 8.3c-1 .9-2.2 1.4-3.5 1.4zm30.2-29.3c-1.3 0-2.6-.5-3.6-1.5-1.9-2-1.9-5.1.1-7.1l8.6-8.3c2-1.9 5.1-1.9 7.1.1 1.9 2 1.9 5.1-.1 7.1l-8.6 8.3c-1 1-2.3 1.4-3.5 1.4zm30.2-29.2c-1.3 0-2.6-.5-3.6-1.5-1.9-2-1.9-5.1.1-7.1l8.6-8.3c2-1.9 5.1-1.9 7.1.1 1.9 2 1.9 5.1-.1 7.1l-8.6 8.3c-1 1-2.3 1.4-3.5 1.4zm30.1-29.2c-1.3 0-2.6-.5-3.6-1.5-1.9-2-1.9-5.1.1-7.1l8.6-8.3c2-1.9 5.1-1.9 7.1.1 1.9 2 1.9 5.1-.1 7.1l-8.6 8.3c-1 .9-2.2 1.4-3.5 1.4zm30.2-29.2c-1.3 0-2.6-.5-3.6-1.5-1.9-2-1.9-5.1.1-7.1l8.6-8.3c2-1.9 5.1-1.9 7.1.1 1.9 2 1.9 5.1-.1 7.1l-8.6 8.3c-1 .9-2.2 1.4-3.5 1.4zm30.2-29.2c-1.3 0-2.6-.5-3.6-1.5-1.9-2-1.9-5.1.1-7.1l8.6-8.3c2-1.9 5.1-1.9 7.1.1 1.9 2 1.9 5.1-.1 7.1l-8.6 8.3c-1 .9-2.3 1.4-3.5 1.4zM1419.7 863.1l-10.8-82.5h-109l-33.7 82.5h-86.4l169.7-397.9h104.8l64.4 397.9h-99zm-95.4-153.5h80.8l-16.7-155.2h-4.5l-59.6 155.2z" fill="#383A48"/><path d="M1518.6 868.1h-99c-2.5 0-4.6-1.9-5-4.4l-10.2-78.1h-101.3l-32.4 79.4c-.8 1.9-2.6 3.1-4.6 3.1h-86.4c-1.7 0-3.2-.8-4.2-2.2-.9-1.4-1.1-3.2-.4-4.7l169.7-397.9c.8-1.8 2.6-3 4.6-3h104.8c2.5 0 4.5 1.8 4.9 4.2l64.4 397.9c.2 1.4-.2 2.9-1.1 4-.9 1.1-2.3 1.7-3.8 1.7zm-94.5-10h88.7L1450 470.2h-97.3l-165.4 387.9h75.5l32.4-79.4c.8-1.9 2.6-3.1 4.6-3.1h109c2.5 0 4.6 1.9 5 4.4l10.3 78.1zm-19-143.5h-80.8c-1.6 0-3.2-.8-4.1-2.2-.9-1.4-1.1-3.1-.5-4.6l59.6-155.2c.7-1.9 2.6-3.2 4.7-3.2h4.5c2.6 0 4.7 1.9 5 4.5L1410 709c.2 1.4-.3 2.8-1.3 3.9s-2.2 1.7-3.6 1.7zm-73.6-10h68l-14.9-138.2-53.1 138.2z" fill="#383A48"/><path d="M1394.7 863.1l-10.8-82.5h-109l-33.7 82.5h-86.4l169.7-397.9h104.8l64.4 397.9h-99zm-95.4-153.5h80.8l-16.7-155.2h-4.5l-59.6 155.2z" fill="#FC0"/><path d="M1493.7 868.1h-99c-2.5 0-4.6-1.9-5-4.4l-10.2-78.1h-101.3l-32.4 79.4c-.8 1.9-2.6 3.1-4.6 3.1h-86.4c-1.7 0-3.2-.8-4.2-2.2-.9-1.4-1.1-3.2-.4-4.7l169.7-397.9c.8-1.8 2.6-3 4.6-3h104.8c2.5 0 4.5 1.8 4.9 4.2l64.4 397.9c.2 1.4-.2 2.9-1.1 4-.9 1.1-2.3 1.7-3.8 1.7zm-94.6-10h88.7l-62.7-387.9h-97.3l-165.4 387.9h75.5l32.4-79.4c.8-1.9 2.6-3.1 4.6-3.1h109c2.5 0 4.6 1.9 5 4.4l10.2 78.1zm-19-143.5h-80.8c-1.6 0-3.2-.8-4.1-2.2-.9-1.4-1.1-3.1-.5-4.6l59.6-155.2c.7-1.9 2.6-3.2 4.7-3.2h4.5c2.6 0 4.7 1.9 5 4.5l16.7 155.2c.2 1.4-.3 2.8-1.3 3.9s-2.4 1.6-3.8 1.6zm-73.5-10h68l-14.9-138.2-53.1 138.2z" fill="#383A48"/><path d="M1279.8 13.9h182.1l-91.8 136.5-90.3-136.5z" fill="#F98080"/><path d="M1370.1 155.4c-1.7 0-3.2-.8-4.2-2.2l-90.3-136.5c-1-1.5-1.1-3.5-.2-5.1.9-1.6 2.6-2.6 4.4-2.6h182.1c1.8 0 3.5 1 4.4 2.7.9 1.6.8 3.6-.3 5.1l-91.8 136.5c-.9 1.2-2.4 2.1-4.1 2.1zm-81-136.5l81 122.5 82.4-122.5h-163.4zM609.8 868.1H52.6c-2.8 0-5-2.2-5-5s2.2-5 5-5h557.2c2.8 0 5 2.2 5 5s-2.3 5-5 5zM5.4 365.8c-1.3 0-2.6-.5-3.5-1.5-2-2-2-5.1 0-7.1l173.4-173.4c2-2 5.1-2 7.1 0s2 5.1 0 7.1L8.9 364.4c-1 .9-2.3 1.4-3.5 1.4zM638.5 750.5h-33v10h33v-10z" fill="#383A48"/><path d="M627 739h-10v33h10v-33zM92.1 12.4h-33v10h33v-10z" fill="#383A48"/><path d="M80.6.9h-10v33h10V.9zM1229.4 51.1h-33v10h33v-10z" fill="#383A48"/><path d="M1217.9 39.6h-10v33h10v-33zM1185 598.9c-1.3 0-2.6-.5-3.6-1.5l-22.5-23.5c-1.9-2-1.8-5.2.1-7.1 2-1.9 5.2-1.8 7.1.1l22.5 23.5c1.9 2 1.8 5.2-.1 7.1-1 1-2.2 1.4-3.5 1.4zM1150.2 640.6c-.6 0-1.2-.1-1.8-.3l-30.3-11.9c-2.6-1-3.8-3.9-2.8-6.5s3.9-3.8 6.5-2.8l30.3 11.9c2.6 1 3.8 3.9 2.8 6.5-.8 1.9-2.7 3.1-4.7 3.1zM1103.4 700.2c-2.6 0-4.7-2-5-4.6-.2-2.8 1.8-5.2 4.5-5.4l32.4-2.9c2.7-.2 5.2 1.8 5.4 4.5.2 2.8-1.8 5.2-4.5 5.4l-32.4 2.9c-.1.1-.3.1-.4.1z" fill="#383A48"/></svg>